<?xml version="1.0" standalone="no"?>
<!DOCTYPE svg PUBLIC "-//W3C//DTD SVG 20010904//EN"
 "http://www.w3.org/TR/2001/REC-SVG-20010904/DTD/svg10.dtd">
<svg version="1.0" xmlns="http://www.w3.org/2000/svg"
 width="1270.000000pt" height="433.000000pt" viewBox="0 0 1270.000000 433.000000"
 preserveAspectRatio="xMidYMid meet">

<g transform="translate(0.000000,433.000000) scale(0.100000,-0.100000)"
fill="#9C9C9C" stroke="none">
<path d="M6090 4323 c-35 -13 -40 -35 -40 -190 0 -204 -12 -193 203 -193 221
0 207 -13 207 189 0 120 -3 162 -14 177 -13 17 -29 19 -178 21 -90 1 -170 0
-178 -4z"/>
<path d="M4322 4294 l-22 -15 0 -1090 0 -1089 31 -19 c32 -19 173 -53 324 -77
225 -35 461 -27 615 21 229 73 373 251 420 522 6 34 11 173 11 308 0 135 -5
274 -11 308 -51 290 -208 468 -475 538 -63 16 -115 21 -240 22 -88 1 -188 -2
-222 -6 l-63 -8 0 281 c0 267 -1 281 -20 300 -18 18 -33 20 -173 20 -122 0
-157 -3 -175 -16z m828 -920 c63 -35 110 -97 137 -177 21 -67 31 -512 13 -615
-22 -127 -79 -214 -170 -256 -40 -19 -62 -21 -200 -20 -85 1 -173 6 -195 11
l-40 9 -3 531 -2 532 42 5 c80 11 133 13 248 12 109 -1 118 -3 170 -32z"/>
<path d="M11995 4268 c-33 -9 -83 -53 -289 -257 -160 -159 -255 -260 -267
-286 -24 -51 -24 -129 0 -180 20 -43 478 -507 525 -532 41 -21 111 -27 163
-13 43 12 73 38 291 254 134 133 252 258 263 278 24 46 25 143 3 196 -18 44
-448 481 -509 517 -48 28 -124 38 -180 23z m120 -98 c37 -18 395 -369 468
-458 31 -38 36 -96 13 -140 -8 -15 -117 -129 -243 -254 -192 -191 -234 -228
-265 -233 -20 -4 -47 -4 -60 0 -27 8 -483 457 -504 497 -18 34 -18 72 0 106
25 46 469 482 501 491 43 13 45 13 90 -9z"/>
<path d="M11885 3962 c-28 -7 -30 -11 -33 -55 l-3 -47 130 0 c147 0 164 -7
176 -73 13 -69 11 -71 -101 -78 -174 -9 -239 -60 -239 -189 0 -83 24 -126 85
-158 37 -20 56 -23 110 -19 36 2 82 13 103 23 36 17 39 18 48 1 8 -13 24 -17
69 -17 l60 0 0 238 c0 275 -6 299 -81 349 -40 27 -49 28 -168 30 -69 1 -139
-1 -156 -5z m256 -342 c15 -9 19 -21 19 -68 0 -31 -4 -62 -8 -69 -12 -20 -60
-33 -117 -33 -63 0 -85 21 -85 81 0 53 27 81 86 90 75 10 84 10 105 -1z"/>
<path d="M445 3724 c-16 -2 -84 -11 -150 -20 -66 -9 -135 -22 -153 -30 l-32
-13 0 -130 c0 -119 2 -131 20 -144 16 -11 32 -12 69 -5 72 13 466 25 540 16
145 -17 191 -81 191 -267 l0 -111 -117 0 c-484 0 -721 -110 -789 -365 -18 -67
-18 -275 0 -342 59 -220 219 -325 496 -326 134 -1 228 21 350 81 41 20 78 39
83 40 4 2 7 -12 7 -32 0 -23 7 -43 20 -56 18 -18 33 -20 159 -20 122 0 142 2
162 19 l24 19 2 599 c2 545 0 605 -16 675 -48 206 -174 332 -388 389 -63 17
-113 22 -263 24 -102 2 -198 1 -215 -1z m485 -1161 l0 -192 -81 -31 c-105 -40
-178 -54 -260 -47 -89 7 -131 27 -160 73 -21 34 -24 51 -23 134 0 78 4 103 22
137 48 92 138 120 379 119 l123 -1 0 -192z"/>
<path d="M2420 3723 c-56 -9 -130 -38 -219 -84 -52 -27 -95 -49 -97 -49 -2 0
-4 20 -4 45 0 70 -18 77 -193 73 -103 -2 -149 -7 -160 -17 -16 -12 -17 -83
-17 -830 0 -689 2 -820 14 -837 13 -17 30 -19 166 -22 125 -3 155 -1 176 13
l24 15 0 631 0 630 73 34 c112 51 180 68 258 63 78 -6 117 -29 145 -85 18 -36
19 -78 24 -651 l5 -614 24 -19 c20 -17 40 -19 171 -19 130 0 151 2 171 19 l23
19 -2 626 c-1 345 -3 630 -3 634 -4 25 10 34 84 58 150 48 292 45 352 -8 64
-56 65 -62 65 -715 l0 -584 25 -24 c23 -24 28 -25 175 -25 148 0 151 0 176 25
l26 26 -5 612 c-5 678 -6 694 -71 832 -41 87 -100 148 -179 185 -90 43 -154
53 -302 47 -153 -6 -236 -27 -366 -91 l-87 -44 -33 34 c-40 41 -113 77 -187
93 -51 10 -199 13 -252 4z"/>
<path d="M7310 3720 c-217 -27 -423 -78 -440 -110 -7 -12 -10 -380 -10 -1094
0 -1063 0 -1076 20 -1096 18 -18 33 -20 174 -20 132 0 157 3 175 18 20 16 21
26 24 297 l2 280 35 -3 c19 -1 114 -3 210 -4 139 -2 192 1 255 16 292 66 468
270 504 588 14 122 14 407 1 518 -24 191 -79 318 -185 426 -81 83 -190 141
-315 169 -89 20 -341 28 -450 15z m359 -326 c71 -21 141 -89 169 -166 55 -147
55 -598 1 -742 -42 -114 -130 -175 -265 -184 -89 -6 -306 16 -316 31 -4 7 -8
245 -8 529 0 403 3 519 13 525 36 23 333 29 406 7z"/>
<path d="M8910 3715 c-145 -17 -222 -34 -242 -53 -15 -13 -18 -33 -18 -137 0
-95 3 -125 15 -135 11 -9 47 -9 157 -1 196 15 464 16 514 2 23 -6 55 -23 72
-39 48 -42 64 -92 70 -219 l5 -113 -119 0 c-252 0 -428 -28 -561 -90 -179 -83
-253 -215 -253 -448 0 -222 77 -367 233 -441 87 -41 164 -55 297 -54 102 0
126 4 207 31 51 18 116 44 145 59 29 15 56 29 61 31 4 2 7 -10 7 -28 0 -20 9
-40 25 -55 23 -24 29 -25 165 -25 127 0 142 2 160 20 20 20 20 33 20 618 0
627 -3 676 -47 777 -69 162 -211 262 -423 301 -93 17 -348 16 -490 -1z m568
-1149 l2 -187 -62 -29 c-131 -62 -314 -78 -390 -33 -57 34 -73 65 -77 160 -4
101 9 150 50 198 54 61 143 81 354 79 l120 -1 3 -187z"/>
<path d="M10931 3714 c-66 -14 -190 -68 -241 -104 -15 -11 -31 -20 -34 -20 -3
0 -6 20 -6 44 0 69 -16 76 -185 76 -111 0 -145 -3 -163 -16 l-22 -15 0 -820
c0 -806 0 -819 20 -839 18 -18 33 -20 169 -20 135 0 151 2 175 21 l26 20 0
623 0 623 71 33 c92 42 193 68 297 76 110 9 112 12 112 169 0 155 -6 165 -93
164 -34 0 -91 -7 -126 -15z"/>
<path d="M6074 3685 l-24 -24 2 -812 3 -811 24 -19 c20 -17 40 -19 173 -19
145 0 150 1 173 25 l25 24 0 811 c0 797 0 810 -20 830 -18 18 -33 20 -175 20
-152 0 -156 -1 -181 -25z"/>
<path d="M4895 1244 c-90 -38 -95 -39 -95 -16 0 11 -7 23 -16 26 -26 10 -112
7 -119 -4 -6 -10 -36 -175 -120 -656 -20 -117 -35 -223 -33 -235 3 -22 9 -24
65 -27 58 -3 64 -1 73 20 5 13 35 167 65 343 30 176 58 333 61 348 5 24 18 34
68 58 33 15 97 34 141 41 l79 13 9 43 c13 65 7 72 -60 72 -39 0 -77 -9 -118
-26z"/>
<path d="M5408 1251 c-75 -24 -116 -51 -171 -110 -74 -79 -108 -160 -143 -341
-50 -254 10 -418 171 -465 64 -18 230 -20 358 -3 106 13 127 28 127 89 l0 41
-97 -9 c-54 -4 -147 -8 -208 -8 -120 0 -157 12 -198 66 -22 31 -33 133 -20
194 l9 40 299 5 300 5 13 60 c18 84 20 211 3 267 -18 64 -70 121 -138 155 -76
36 -217 43 -305 14z m232 -129 c53 -26 75 -73 75 -157 -1 -114 19 -105 -236
-105 l-222 0 7 39 c16 99 72 181 151 217 63 30 172 33 225 6z"/>
<path d="M6251 1255 c-63 -18 -105 -42 -143 -82 -36 -37 -48 -73 -48 -139 0
-107 44 -165 217 -280 164 -111 177 -124 171 -178 -8 -64 -38 -101 -100 -122
-43 -14 -73 -16 -181 -10 -72 3 -147 9 -168 12 -37 6 -38 6 -48 -34 -6 -22 -8
-47 -5 -56 10 -26 71 -37 230 -43 137 -5 159 -3 224 16 58 18 81 32 119 69
102 102 108 256 14 344 -16 14 -83 62 -150 107 -174 117 -199 154 -153 229 32
52 55 57 265 57 l190 0 6 37 c7 46 1 56 -42 69 -59 19 -336 21 -398 4z"/>
<path d="M7060 1255 c-138 -24 -144 -26 -153 -71 -35 -175 -203 -1162 -200
-1171 4 -9 28 -13 74 -13 63 0 69 2 74 23 2 12 14 76 25 142 11 66 23 130 25
142 5 21 7 21 140 16 109 -5 147 -3 197 11 86 23 163 79 215 155 50 72 76 150
104 315 46 264 -4 392 -175 449 -60 20 -214 21 -326 2z m301 -131 c72 -42 85
-124 48 -324 -36 -199 -81 -283 -179 -333 -54 -28 -58 -29 -169 -23 -63 3
-118 9 -122 13 -8 9 104 659 115 671 11 11 121 20 202 18 49 -2 82 -9 105 -22z"/>
<path d="M8064 1260 c-110 -23 -203 -94 -256 -197 -90 -172 -123 -454 -68
-581 47 -109 143 -162 294 -162 171 0 298 75 375 219 54 103 93 278 94 421 0
143 -42 218 -151 272 -57 28 -76 32 -156 35 -50 1 -109 -2 -132 -7z m223 -146
c44 -32 65 -84 64 -162 -1 -87 -34 -268 -59 -323 -55 -122 -139 -181 -257
-181 -81 0 -122 22 -152 82 -29 55 -29 117 -4 265 32 185 79 272 172 319 47
24 63 27 131 24 58 -2 83 -8 105 -24z"/>
<path d="M9060 1260 c-20 -5 -57 -18 -84 -29 -59 -26 -66 -26 -66 -2 0 10 -7
22 -16 25 -28 11 -111 6 -122 -7 -6 -7 -40 -183 -77 -392 -93 -529 -89 -506
-73 -516 21 -14 114 -11 127 4 6 8 38 171 71 363 33 192 64 356 68 364 5 8 44
27 87 42 93 34 202 40 252 15 68 -36 68 -100 -1 -481 -26 -143 -46 -271 -44
-285 3 -24 7 -26 64 -29 41 -2 64 1 71 10 17 22 113 607 113 686 0 121 -40
186 -137 222 -57 21 -166 26 -233 10z"/>
<path d="M9840 1254 c-129 -34 -195 -108 -194 -219 0 -112 42 -165 224 -287
143 -95 165 -117 165 -168 0 -46 -27 -86 -76 -115 -28 -17 -52 -20 -139 -20
-58 0 -143 2 -190 5 l-85 5 -9 -38 c-19 -76 6 -86 225 -94 124 -4 166 -2 210
10 119 35 188 106 211 218 24 117 -19 176 -227 317 -156 104 -177 133 -149
201 28 71 48 76 271 73 l191 -2 7 40 c4 25 3 46 -4 54 -28 34 -327 48 -431 20z"/>
<path d="M10730 1257 c-122 -35 -209 -111 -266 -231 -51 -107 -87 -291 -82
-416 7 -151 54 -225 175 -270 53 -20 71 -22 218 -17 88 2 184 10 213 17 44 10
53 16 58 38 3 15 8 34 10 42 10 39 -6 41 -167 29 -302 -24 -365 10 -362 193 0
47 4 91 8 97 4 8 100 11 300 11 339 0 305 -12 325 118 29 192 -21 315 -154
373 -62 28 -207 36 -276 16z m217 -137 c18 -10 39 -30 48 -43 20 -31 30 -111
21 -171 l-7 -46 -226 0 -225 0 7 38 c17 96 83 187 160 223 57 26 178 26 222
-1z"/>
</g>
</svg>
