<?xml version="1.0" encoding="UTF-8" standalone="no"?>
<!DOCTYPE svg PUBLIC "-//W3C//DTD SVG 1.1//EN" "http://www.w3.org/Graphics/SVG/1.1/DTD/svg11.dtd">
<svg xmlns="http://www.w3.org/2000/svg" version="1.1" viewBox="0.00 0.00 512.00 512.00">
<path fill="#ffffff" d="
  M 56.38 0.00
  L 455.74 0.00
  Q 489.20 3.38 504.91 31.83
  Q 510.79 42.46 512.00 56.38
  L 512.00 455.74
  Q 509.07 485.82 485.00 502.05
  Q 472.34 510.58 455.61 512.00
  L 56.26 512.00
  Q 26.65 509.12 10.37 485.63
  Q 1.43 472.72 0.00 455.62
  L 0.00 56.26
  Q 1.44 39.61 9.95 27.00
  Q 26.23 2.86 56.38 0.00
  Z
  M 472.00 60.00
  A 20.00 20.00 0.0 0 0 452.00 40.00
  L 60.00 40.00
  A 20.00 20.00 0.0 0 0 40.00 60.00
  L 40.00 452.00
  A 20.00 20.00 0.0 0 0 60.00 472.00
  L 452.00 472.00
  A 20.00 20.00 0.0 0 0 472.00 452.00
  L 472.00 60.00
  Z"
/>
<circle fill="#ffffff" cx="125.99" cy="124.99" r="40.94"/>
<path fill="#ffffff" d="
  M 272.56 226.91
  Q 281.89 210.61 300.01 201.60
  Q 314.22 194.54 330.66 193.37
  Q 349.82 192.01 367.45 196.26
  C 393.45 202.53 409.04 219.62 416.02 244.38
  C 420.85 261.48 421.96 279.69 421.97 297.50
  Q 422.02 360.01 421.99 422.49
  A 0.51 0.51 0.0 0 1 421.48 423.00
  L 353.78 423.00
  A 0.79 0.79 0.0 0 1 352.99 422.21
  Q 353.02 363.51 352.89 304.75
  C 352.84 284.09 349.20 257.75 324.19 253.63
  C 309.70 251.25 293.18 254.30 283.54 266.21
  C 273.48 278.64 271.94 296.52 271.96 312.16
  Q 272.02 366.79 272.00 422.25
  A 0.75 0.75 0.0 0 1 271.25 423.00
  L 205.25 423.00
  A 1.25 1.25 0.0 0 1 204.00 421.75
  L 204.00 198.24
  A 1.26 1.25 -0.0 0 1 205.26 196.99
  L 271.25 197.00
  A 0.75 0.75 0.0 0 1 272.00 197.75
  L 272.00 226.76
  Q 272.00 227.88 272.56 226.91
  Z"
/>
<rect fill="#ffffff" x="90.00" y="197.00" width="70.00" height="226.00" rx="1.07"/>
</svg>
