<?xml version="1.0" encoding="UTF-8" standalone="no"?>
<!DOCTYPE svg PUBLIC "-//W3C//DTD SVG 1.1//EN" "http://www.w3.org/Graphics/SVG/1.1/DTD/svg11.dtd">
<svg xmlns="http://www.w3.org/2000/svg" version="1.1" viewBox="0.00 0.00 413.00 143.00">
<path fill="#ffffff" d="
  M 19.54 17.84
  C 16.81 16.67 13.35 13.91 14.30 10.60
  Q 15.42 6.66 19.14 6.09
  C 23.61 5.40 26.18 9.27 26.61 13.20
  Q 27.10 17.67 26.35 22.46
  Q 26.24 23.17 25.81 22.59
  Q 23.55 19.55 19.54 17.84
  Z"
/>
<path fill="#ffffff" d="
  M 35.05 31.48
  Q 31.16 33.16 29.18 36.04
  Q 28.82 36.57 28.72 35.93
  C 27.92 30.57 27.35 19.29 34.83 19.37
  Q 39.35 19.42 40.55 23.67
  C 41.65 27.53 38.18 30.12 35.05 31.48
  Z"
/>
<path fill="#ffffff" d="
  M 14.43 37.01
  Q 11.32 35.88 9.27 33.73
  C 5.98 30.28 6.79 24.70 10.68 21.99
  Q 16.57 17.88 22.02 23.46
  C 26.12 27.65 26.54 37.83 26.17 43.60
  Q 26.09 44.76 25.51 43.76
  C 24.63 42.26 23.29 40.94 21.75 40.16
  Q 18.31 38.42 14.43 37.01
  Z"
/>
<path fill="#ffffff" d="
  M 404.69 48.51
  A 17.79 17.79 0.0 0 1 386.90 66.30
  L 383.54 66.30
  A 17.79 17.79 0.0 0 1 365.75 48.51
  L 365.75 42.69
  A 17.79 17.79 0.0 0 1 383.54 24.90
  L 386.90 24.90
  A 17.79 17.79 0.0 0 1 404.69 42.69
  L 404.69 48.51
  Z
  M 384.03 33.21
  C 377.68 34.34 378.40 45.29 378.70 49.78
  C 379.01 54.55 380.84 58.69 386.50 57.89
  C 393.25 56.94 392.17 44.37 391.43 39.53
  C 390.82 35.48 388.58 32.40 384.03 33.21
  Z"
/>
<path fill="#ffffff" d="
  M 222.41 52.03
  L 222.31 64.47
  A 1.54 1.53 -89.8 0 1 220.78 66.00
  L 211.18 66.00
  A 1.32 1.32 0.0 0 1 209.86 64.68
  L 209.92 26.27
  A 1.14 1.14 0.0 0 1 211.06 25.13
  Q 221.41 25.12 230.99 25.29
  C 239.64 25.44 247.11 31.59 245.47 40.88
  C 243.50 52.00 231.52 51.49 223.08 51.37
  A 0.66 0.66 0.0 0 0 222.41 52.03
  Z
  M 222.41 34.74
  L 222.37 41.72
  A 0.78 0.78 0.0 0 0 223.15 42.51
  L 228.60 42.53
  A 4.33 4.09 0.3 0 0 232.95 38.47
  L 232.95 38.11
  A 4.33 4.09 0.3 0 0 228.64 34.00
  L 223.19 33.97
  A 0.78 0.78 0.0 0 0 222.41 34.74
  Z"
/>
<path fill="#ffffff" d="
  M 263.61 57.00
  L 281.38 57.00
  A 0.98 0.98 0.0 0 1 282.36 57.98
  L 282.38 65.02
  A 0.98 0.98 0.0 0 1 281.40 66.00
  L 251.10 66.00
  A 0.98 0.98 0.0 0 1 250.12 65.02
  L 250.12 26.17
  A 0.98 0.98 0.0 0 1 251.10 25.19
  L 280.95 25.20
  A 0.98 0.98 0.0 0 1 281.93 26.20
  L 281.78 33.19
  A 0.98 0.98 0.0 0 1 280.80 34.15
  L 263.62 34.21
  A 0.98 0.98 0.0 0 0 262.64 35.19
  L 262.65 40.05
  A 0.98 0.98 0.0 0 0 263.63 41.03
  L 273.72 41.06
  A 0.98 0.98 0.0 0 1 274.70 42.04
  L 274.70 48.96
  A 0.98 0.98 0.0 0 1 273.72 49.94
  L 263.64 49.93
  A 0.98 0.98 0.0 0 0 262.65 50.91
  L 262.63 56.01
  A 0.98 0.98 0.0 0 0 263.61 57.00
  Z"
/>
<path fill="#ffffff" d="
  M 309.88 35.03
  L 309.86 64.97
  A 1.03 1.03 0.0 0 1 308.83 66.00
  L 298.40 66.00
  A 1.03 1.03 0.0 0 1 297.37 64.97
  L 297.35 35.03
  A 1.03 1.03 0.0 0 0 296.32 34.00
  L 286.80 34.00
  A 1.03 1.03 0.0 0 1 285.77 32.97
  L 285.78 26.22
  A 1.03 1.03 0.0 0 1 286.81 25.19
  L 320.47 25.19
  A 1.03 1.03 0.0 0 1 321.50 26.22
  L 321.50 32.97
  A 1.03 1.03 0.0 0 1 320.47 34.00
  L 310.91 34.00
  A 1.03 1.03 0.0 0 0 309.88 35.03
  Z"
/>
<path fill="#ffffff" d="
  M 338.38 50.66
  L 338.37 64.44
  A 1.56 1.56 0.0 0 1 336.81 66.00
  L 327.25 66.00
  A 1.26 1.26 0.0 0 1 325.99 64.75
  L 325.88 26.23
  A 1.01 1.01 0.0 0 1 326.88 25.22
  Q 336.98 25.14 347.24 25.26
  C 353.52 25.34 360.88 28.14 361.90 35.00
  C 362.70 40.38 360.06 45.52 355.07 47.71
  A 0.82 0.82 0.0 0 0 354.65 48.80
  L 361.40 63.84
  Q 362.37 66.01 360.00 66.00
  L 349.83 65.99
  A 1.37 1.36 -10.2 0 1 348.55 65.10
  L 343.19 50.43
  A 0.96 0.95 -9.0 0 0 342.32 49.80
  L 339.34 49.73
  Q 338.38 49.71 338.38 50.66
  Z
  M 338.35 34.28
  L 338.39 40.66
  A 0.93 0.93 0.0 0 0 339.33 41.58
  L 344.96 41.54
  A 4.26 4.02 -0.4 0 0 349.19 37.49
  L 349.19 37.29
  A 4.26 4.02 -0.4 0 0 344.90 33.30
  L 339.27 33.34
  A 0.93 0.93 0.0 0 0 338.35 34.28
  Z"
/>
<path fill="#ffffff" d="
  M 156.06 36.18
  Q 155.51 35.64 154.98 36.20
  L 152.35 38.97
  A 0.74 0.74 0.0 0 0 152.36 40.00
  L 165.59 53.19
  A 1.78 1.76 -71.2 0 1 166.11 54.26
  C 166.77 60.11 168.07 66.16 175.61 63.78
  Q 176.10 63.63 176.47 63.99
  L 184.81 72.23
  A 0.28 0.27 54.2 0 1 184.74 72.67
  C 177.45 76.28 168.22 76.49 161.02 72.74
  C 150.51 67.27 146.31 55.28 149.87 44.04
  C 153.59 32.29 164.58 26.56 176.77 28.10
  C 196.93 30.66 203.21 54.91 190.17 68.88
  Q 189.43 69.67 188.67 68.90
  L 179.30 59.42
  A 1.13 1.12 27.1 0 1 178.99 58.47
  C 179.72 53.87 180.79 41.06 175.19 39.09
  C 170.01 37.26 166.71 41.15 166.56 45.86
  Q 166.53 46.67 165.96 46.10
  L 156.06 36.18
  Z"
/>
<path fill="#ffffff" d="
  M 94.66 110.19
  Q 94.25 109.97 93.76 109.97
  Q 72.65 109.99 53.98 109.96
  Q 50.42 109.95 50.39 106.39
  Q 50.33 99.45 50.42 92.80
  Q 50.45 90.08 52.04 88.02
  Q 72.77 61.10 95.24 31.96
  Q 97.42 29.14 101.22 29.13
  Q 112.58 29.11 123.99 29.13
  Q 127.15 29.13 127.16 32.30
  L 127.19 87.73
  A 1.30 1.30 0.0 0 0 128.49 89.02
  L 139.51 89.02
  A 2.49 2.48 -90.0 0 1 141.99 91.51
  L 142.00 106.85
  Q 142.00 109.96 138.90 109.96
  L 128.68 109.98
  A 1.46 1.46 0.0 0 0 127.22 111.41
  Q 127.08 119.04 127.17 127.79
  Q 127.22 131.97 123.05 131.98
  Q 109.55 132.03 97.98 131.97
  A 2.78 2.78 0.0 0 1 95.21 129.19
  L 95.26 111.19
  A 1.13 1.13 0.0 0 0 94.66 110.19
  Z
  M 74.33 87.86
  A 0.72 0.72 0.0 0 0 74.91 89.00
  L 95.02 89.00
  A 0.72 0.72 0.0 0 0 95.74 88.28
  L 95.74 60.18
  A 0.72 0.72 0.0 0 0 94.43 59.76
  L 74.33 87.86
  Z"
/>
<path fill="#ffffff" d="
  M 28.02 43.63
  Q 29.49 39.05 32.59 37.31
  C 34.72 36.11 37.13 38.16 37.48 40.20
  C 37.90 42.69 35.18 44.43 32.84 44.18
  Q 30.07 43.89 27.88 45.01
  Q 26.97 45.48 27.52 44.62
  C 27.76 44.25 27.89 44.06 28.02 43.63
  Z"
/>
<path fill="#ffffff" d="
  M 38.90 66.21
  L 17.25 55.20
  A 0.31 0.31 0.0 0 1 17.09 54.90
  L 17.61 48.16
  A 0.31 0.31 0.0 0 1 17.92 47.87
  L 37.32 47.87
  A 0.31 0.31 0.0 0 1 37.63 48.15
  L 39.35 65.91
  A 0.31 0.31 0.0 0 1 38.90 66.21
  Z"
/>
<path fill="#ffffff" d="
  M 38.14 71.54
  L 13.91 89.36
  A 0.33 0.33 0.0 0 1 13.39 89.06
  L 16.40 60.41
  A 0.33 0.33 0.0 0 1 16.88 60.15
  L 38.09 70.98
  A 0.33 0.33 0.0 0 1 38.14 71.54
  Z"
/>
<path fill="#ffffff" d="
  M 395.07 75.56
  Q 398.44 77.30 400.62 80.42
  Q 401.24 81.31 400.36 81.95
  L 392.37 87.78
  Q 391.97 88.08 391.52 87.86
  C 390.19 87.24 389.21 85.92 388.00 85.08
  C 385.10 83.04 379.10 82.44 375.36 84.44
  C 372.36 86.05 373.89 89.31 376.54 90.04
  Q 383.43 91.94 390.67 93.81
  C 396.89 95.41 402.12 100.00 402.98 106.47
  C 404.27 116.04 398.63 123.28 389.67 125.48
  C 379.60 127.96 362.99 126.83 356.92 117.01
  Q 356.16 115.78 357.36 114.97
  L 365.46 109.44
  A 1.22 1.22 0.0 0 1 367.03 109.61
  Q 368.18 110.82 369.31 112.02
  C 373.15 116.08 379.43 116.38 384.55 114.95
  C 389.28 113.62 388.41 108.86 384.08 107.85
  Q 378.07 106.46 372.06 104.88
  C 361.87 102.20 354.80 92.30 360.12 82.31
  C 366.37 70.60 384.41 70.02 395.07 75.56
  Z"
/>
<path fill="#ffffff" d="
  M 232.45 114.68
  C 237.14 116.39 242.60 114.57 243.61 109.31
  Q 244.11 106.71 244.11 104.08
  Q 244.10 88.03 244.10 73.96
  A 1.00 1.00 0.0 0 1 245.09 72.96
  L 256.45 72.90
  A 1.00 0.99 89.4 0 1 257.45 73.89
  Q 257.61 91.06 257.42 106.90
  C 257.31 115.19 253.51 122.87 244.79 125.29
  Q 232.94 128.56 222.28 124.63
  C 215.35 122.08 212.14 114.30 211.89 107.27
  Q 211.43 94.24 211.80 73.94
  A 1.00 1.00 0.0 0 1 212.81 72.96
  L 226.97 72.96
  A 0.90 0.90 0.0 0 1 227.87 73.86
  Q 227.91 89.46 227.86 105.11
  C 227.84 108.79 228.63 113.28 232.45 114.68
  Z"
/>
<path fill="#ffffff" d="
  M 281.87 94.12
  L 294.91 94.13
  A 1.36 1.36 0.0 0 1 296.27 95.49
  L 296.26 104.15
  A 1.36 1.36 0.0 0 1 294.90 105.51
  L 281.87 105.52
  A 1.36 1.36 0.0 0 0 280.51 106.88
  L 280.50 124.64
  A 1.36 1.36 0.0 0 1 279.14 126.00
  L 265.59 125.99
  A 1.36 1.36 0.0 0 1 264.23 124.63
  L 264.23 74.30
  A 1.36 1.36 0.0 0 1 265.59 72.94
  L 303.64 72.95
  A 1.36 1.36 0.0 0 1 305.00 74.32
  L 304.96 83.27
  A 1.36 1.36 0.0 0 1 303.60 84.62
  L 281.86 84.64
  A 1.36 1.36 0.0 0 0 280.50 86.00
  L 280.51 92.76
  A 1.36 1.36 0.0 0 0 281.87 94.12
  Z"
/>
<path fill="#ffffff" d="
  M 328.31 114.25
  L 351.39 114.25
  A 1.34 1.34 0.0 0 1 352.73 115.60
  L 352.68 124.67
  A 1.34 1.34 0.0 0 1 351.34 126.00
  L 312.09 126.00
  A 1.34 1.34 0.0 0 1 310.75 124.66
  L 310.73 74.30
  A 1.34 1.34 0.0 0 1 312.07 72.96
  L 350.66 72.96
  A 1.34 1.34 0.0 0 1 352.00 74.31
  L 351.96 83.29
  A 1.34 1.34 0.0 0 1 350.62 84.62
  L 328.32 84.64
  A 1.34 1.34 0.0 0 0 326.98 85.98
  L 326.97 92.17
  A 1.34 1.34 0.0 0 0 328.31 93.51
  L 341.38 93.54
  A 1.34 1.34 0.0 0 1 342.72 94.89
  L 342.65 103.69
  A 1.34 1.34 0.0 0 1 341.31 105.02
  L 328.31 105.05
  A 1.34 1.34 0.0 0 0 326.97 106.39
  L 326.97 112.91
  A 1.34 1.34 0.0 0 0 328.31 114.25
  Z"
/>
<path fill="#ffffff" d="
  M 40.49 76.31
  L 43.12 102.26
  A 0.33 0.33 0.0 0 1 42.67 102.60
  L 17.72 93.09
  A 0.33 0.33 0.0 0 1 17.64 92.51
  L 39.96 76.07
  A 0.33 0.33 0.0 0 1 40.49 76.31
  Z"
/>
<path fill="#ffffff" d="
  M 21.27 119.51
  L 10.76 119.50
  A 0.31 0.31 0.0 0 1 10.45 119.16
  L 12.58 96.36
  A 0.31 0.31 0.0 0 1 13.00 96.10
  L 40.71 106.76
  A 0.31 0.31 0.0 0 1 40.77 107.31
  L 21.44 119.46
  A 0.31 0.31 0.0 0 1 21.27 119.51
  Z"
/>
<path fill="#ffffff" d="
  M 44.60 119.51
  L 31.28 119.51
  A 0.34 0.34 0.0 0 1 31.10 118.88
  L 43.40 111.22
  A 0.34 0.34 0.0 0 1 43.92 111.46
  L 44.94 119.13
  A 0.34 0.34 0.0 0 1 44.60 119.51
  Z"
/>
<path fill="#ffffff" d="
  M 37.83 131.12
  L 17.55 131.09
  A 0.41 0.41 0.0 0 0 17.14 131.49
  L 17.02 139.12
  A 0.41 0.41 0.0 0 1 16.61 139.52
  L 11.98 139.52
  A 0.41 0.41 0.0 0 1 11.57 139.11
  L 11.57 131.42
  A 0.41 0.41 0.0 0 0 11.16 131.01
  L 5.43 131.07
  A 0.41 0.41 0.0 0 1 5.01 130.66
  L 4.89 124.18
  A 0.41 0.41 0.0 0 1 5.30 123.76
  L 49.51 123.75
  A 0.41 0.41 0.0 0 1 49.92 124.16
  L 49.90 130.62
  A 0.41 0.41 0.0 0 1 49.49 131.03
  L 44.16 131.05
  A 0.41 0.41 0.0 0 0 43.75 131.46
  L 43.77 139.18
  A 0.41 0.41 0.0 0 1 43.35 139.59
  L 38.64 139.54
  A 0.41 0.41 0.0 0 1 38.24 139.13
  L 38.24 131.53
  A 0.41 0.41 0.0 0 0 37.83 131.12
  Z"
/>
</svg>
