<?xml version="1.0" encoding="UTF-8" standalone="no"?>
<!DOCTYPE svg PUBLIC "-//W3C//DTD SVG 1.1//EN" "http://www.w3.org/Graphics/SVG/1.1/DTD/svg11.dtd">
<svg xmlns="http://www.w3.org/2000/svg" version="1.1" viewBox="0.00 0.00 558.00 569.00">
<g stroke-width="2.00" fill="none" stroke-linecap="butt">
<path stroke="#8c655a" vector-effect="non-scaling-stroke" d="
  M 261.09 39.14
  L 262.67 45.01"
/>
<path stroke="#f56245" vector-effect="non-scaling-stroke" d="
  M 262.94 48.99
  C 261.89 46.86 260.99 45.03 260.50 42.57
  Q 260.01 40.14 259.23 37.80
  Q 258.22 34.79 257.98 32.61
  Q 257.49 28.09 257.12 22.94
  C 257.02 21.66 256.52 20.49 255.98 19.37"
/>
<path stroke="#ff4a2b" vector-effect="non-scaling-stroke" d="
  M 276.49 80.92
  Q 275.63 81.58 275.79 82.40
  A 2.56 2.56 0.0 0 1 274.00 85.35
  Q 272.69 85.74 271.46 86.61
  Q 269.54 87.97 267.53 89.00
  C 265.86 89.86 264.58 91.37 263.34 92.80
  Q 263.05 93.13 262.61 93.22
  Q 261.52 93.43 260.60 94.40
  Q 260.50 94.52 260.53 94.67
  Q 260.55 94.73 260.60 94.74
  Q 260.91 94.86 260.71 95.13
  Q 257.26 99.85 256.60 106.22
  Q 256.18 110.29 256.58 114.24
  Q 256.63 114.78 256.91 115.24
  Q 257.20 115.73 257.16 116.32
  Q 257.11 117.21 257.35 118.07
  Q 258.18 121.00 258.89 123.83
  Q 259.93 127.98 262.53 132.33
  Q 263.14 133.34 263.36 134.33
  Q 263.64 135.56 264.28 136.56
  Q 266.53 140.04 269.17 143.35
  Q 269.42 143.67 269.53 144.06
  A 1.66 1.62 -75.3 0 0 269.90 144.71
  L 276.10 151.39
  Q 276.36 151.67 276.42 152.06
  Q 276.47 152.35 276.62 152.51
  Q 279.32 155.40 282.84 158.66
  Q 282.87 158.70 282.87 158.75
  Q 282.86 158.79 282.85 158.84
  Q 282.81 159.04 282.95 159.18
  Q 286.28 162.31 289.42 165.78
  C 290.50 166.97 291.96 167.70 292.97 168.91
  Q 295.65 172.11 299.00 174.45
  Q 302.54 176.94 305.15 179.43
  Q 307.95 182.12 311.10 185.05
  Q 312.59 186.43 314.33 187.71
  Q 316.01 188.95 317.56 190.39
  Q 319.60 192.28 321.63 193.78
  Q 323.79 195.37 325.71 197.20
  Q 325.95 197.43 326.28 197.50
  Q 326.77 197.61 327.11 197.96
  Q 329.97 200.81 332.98 203.03
  Q 333.16 203.16 333.39 203.15
  Q 333.72 203.12 334.00 203.30
  Q 336.84 205.05 338.76 207.14
  Q 340.65 209.21 342.68 210.62
  Q 347.22 213.80 351.33 216.99
  C 352.24 217.70 352.88 218.69 353.77 219.49
  Q 354.70 220.34 355.52 221.42
  Q 356.40 222.59 357.87 223.54
  Q 359.61 224.65 361.22 226.85
  Q 361.51 227.25 361.98 227.43
  Q 362.46 227.63 362.83 228.01
  Q 364.95 230.24 367.70 231.79
  Q 370.02 233.09 371.65 235.27
  C 373.16 237.27 375.60 237.97 376.88 240.10
  Q 377.93 241.86 379.42 242.89
  Q 380.50 243.63 381.30 244.47
  Q 383.53 246.82 385.67 249.20
  Q 385.91 249.47 385.97 249.84
  Q 386.02 250.24 386.47 250.26
  A 0.73 0.70 68.7 0 1 386.92 250.47
  Q 391.94 255.57 398.10 261.06
  Q 399.16 262.00 400.12 263.17
  Q 400.92 264.15 402.23 264.86
  Q 403.72 265.67 405.02 266.75
  Q 406.34 267.86 407.72 268.73
  Q 410.76 270.67 413.78 272.14
  Q 417.17 273.78 422.52 274.61
  Q 424.97 274.99 427.09 274.07
  Q 429.21 273.14 431.30 272.39
  Q 432.64 271.90 433.70 270.95
  Q 435.11 269.69 436.74 269.05
  Q 437.24 268.85 437.16 268.32
  Q 436.99 267.17 438.12 266.31
  Q 438.54 265.99 438.67 265.49
  Q 438.96 264.42 439.56 263.56
  Q 440.11 262.78 440.41 261.76
  Q 441.31 258.74 442.01 255.74
  Q 442.39 254.15 442.93 255.69
  Q 443.30 256.72 443.91 257.74
  Q 444.48 258.68 444.81 259.78
  Q 445.47 261.96 446.40 264.07
  Q 447.98 267.65 448.49 271.11
  Q 448.89 273.80 449.43 276.36
  Q 450.00 279.08 450.44 281.46
  C 451.20 285.49 450.61 288.95 450.60 292.84
  Q 450.60 293.01 450.70 293.14
  Q 450.79 293.26 450.94 293.29
  Q 451.33 293.38 451.41 293.77
  L 452.07 297.47"
/>
<path stroke="#bd1a11" vector-effect="non-scaling-stroke" d="
  M 388.50 387.47
  Q 388.68 386.72 388.44 386.01"
/>
<path stroke="#f56245" vector-effect="non-scaling-stroke" d="
  M 388.44 386.01
  Q 388.63 386.17 388.72 386.45
  Q 388.83 386.77 389.14 386.89
  Q 389.27 386.94 389.41 386.84
  Q 389.52 386.75 389.55 386.61
  Q 389.99 384.21 389.74 380.62
  Q 388.39 361.22 381.73 347.25
  C 379.44 342.43 377.18 337.54 374.26 333.19
  C 370.65 327.80 367.62 322.21 363.41 317.09
  C 354.66 306.49 345.16 297.15 335.62 287.56
  C 330.58 282.50 324.90 277.92 319.67 272.89
  Q 311.08 264.65 300.87 256.51
  C 295.66 252.37 291.03 247.59 285.78 243.70
  Q 279.25 238.85 274.21 234.65
  C 268.29 229.72 261.98 224.81 256.53 219.79
  Q 236.54 201.38 218.73 181.27
  Q 216.07 178.27 213.79 174.97
  C 209.93 169.41 205.44 163.99 202.95 157.61
  Q 199.98 150.00 197.25 141.26
  Q 195.68 136.24 195.42 131.74
  Q 195.00 124.50 195.10 117.57
  Q 195.15 114.55 194.86 111.33
  Q 194.58 108.26 194.70 105.16
  Q 194.72 104.61 194.17 104.60
  Q 193.51 104.59 192.99 104.79"
/>
<path stroke="#bd1a11" vector-effect="non-scaling-stroke" d="
  M 192.99 104.79
  Q 192.66 104.02 193.11 103.54"
/>
<path stroke="#b25554" vector-effect="non-scaling-stroke" d="
  M 384.03 393.59
  Q 384.09 390.35 383.89 387.26
  Q 383.24 376.73 382.12 366.24
  Q 381.85 363.71 381.16 361.23
  Q 378.18 350.48 373.33 340.45"
/>
<path stroke="#b25554" vector-effect="non-scaling-stroke" d="
  M 192.99 104.79
  Q 193.18 105.57 193.15 106.50
  Q 192.68 119.77 192.98 129.73
  Q 193.30 140.12 197.80 150.41
  Q 199.46 154.19 200.92 158.11
  Q 201.78 160.42 203.02 162.75
  Q 204.17 164.89 205.15 167.12
  C 205.50 167.90 205.32 168.50 205.45 169.30
  Q 205.60 170.27 205.16 169.39
  Q 204.08 167.25 202.68 165.30
  Q 200.59 162.41 198.69 159.05
  Q 197.97 157.79 197.21 156.60
  Q 195.00 153.17 192.81 146.71
  Q 191.37 142.45 190.74 136.15
  Q 189.19 120.55 190.03 104.61"
/>
<path stroke="#b25554" vector-effect="non-scaling-stroke" d="
  M 388.44 386.01
  Q 388.27 383.78 388.17 381.51
  Q 388.07 379.19 387.62 377.05
  Q 386.04 369.66 384.66 362.26
  Q 382.14 348.80 373.28 334.71"
/>
<path stroke="#b18a80" vector-effect="non-scaling-stroke" d="
  M 373.28 334.71
  Q 366.58 323.85 364.36 320.64
  Q 363.54 319.46 361.25 317.35
  Q 360.91 317.04 360.83 316.59
  Q 360.77 316.24 360.64 316.11
  Q 358.48 314.01 356.39 311.73"
/>
<path stroke="#bf988d" vector-effect="non-scaling-stroke" d="
  M 356.39 311.73
  Q 355.25 311.05 354.69 309.94
  Q 354.47 309.50 354.02 309.26
  Q 353.01 308.71 352.38 308.06
  Q 350.17 305.78 348.11 303.43
  Q 347.79 303.06 347.71 302.58
  Q 347.62 302.06 347.21 301.70
  Q 345.31 300.00 343.68 298.14
  Q 342.32 296.60 340.80 295.36
  Q 339.17 294.04 337.87 292.46
  Q 335.60 289.71 332.84 287.95
  Q 331.70 287.23 331.35 285.96
  Q 331.24 285.55 330.94 285.25
  L 326.01 280.41
  Q 325.67 280.08 325.19 280.06
  Q 324.32 280.02 324.40 279.24
  Q 324.45 278.72 324.00 278.46
  Q 319.36 275.72 316.21 271.78
  Q 315.44 270.81 314.49 269.98
  Q 314.00 269.56 313.36 269.40
  Q 312.60 269.21 312.34 268.48
  A 1.39 1.37 2.3 0 0 311.60 267.69
  Q 310.21 267.07 309.56 265.84
  Q 309.08 264.92 308.16 264.31
  Q 306.80 263.40 305.58 262.74
  A 7.46 4.52 46.5 0 1 304.73 262.21
  Q 304.06 261.74 303.56 261.13
  C 302.41 259.74 300.60 259.41 299.37 257.95
  Q 298.42 256.83 297.10 256.26
  Q 295.27 255.46 293.95 254.26
  Q 292.15 252.62 290.38 250.72
  C 289.56 249.84 288.44 249.39 287.85 248.30
  A 0.65 0.53 12.8 0 0 287.71 248.12
  L 284.33 245.09
  Q 283.95 244.75 283.48 244.54
  Q 282.06 243.92 281.14 242.71
  Q 278.71 239.52 275.50 238.32
  Q 273.95 237.75 272.75 236.46
  Q 270.79 234.34 268.80 232.33
  Q 268.58 232.11 268.27 232.07
  Q 267.60 231.98 267.28 231.39
  Q 267.03 230.93 266.55 230.74
  C 264.93 230.11 264.47 228.65 263.09 228.01
  C 261.87 227.46 260.87 226.11 260.06 225.08
  Q 259.78 224.72 259.33 224.62
  Q 258.00 224.33 257.37 223.11
  Q 257.16 222.70 256.73 222.53
  Q 256.03 222.26 255.73 221.59
  Q 255.53 221.16 255.06 221.09
  C 254.19 220.98 253.40 220.39 252.93 219.66
  Q 251.03 216.62 248.27 214.90
  C 247.07 214.15 246.31 212.91 244.99 212.49
  Q 244.46 212.33 244.14 211.88
  Q 242.00 208.90 239.11 206.67
  Q 236.87 204.93 234.87 202.98
  Q 232.82 200.99 230.71 199.08
  Q 229.85 198.30 228.73 197.80
  Q 227.53 197.28 226.91 196.21
  Q 224.62 192.29 220.65 189.37
  Q 219.45 188.49 218.61 187.17
  Q 216.67 184.14 213.67 182.01
  Q 212.57 181.23 211.92 180.16
  Q 211.13 178.87 210.39 177.58
  Q 210.31 177.44 210.17 177.50
  L 210.16 177.50
  Q 209.95 177.59 210.03 177.81
  Q 210.47 178.95 210.88 180.08
  Q 210.93 180.20 210.86 180.09
  C 210.25 179.21 209.57 178.98 209.08 178.00
  Q 207.25 174.34 204.83 171.01
  Q 204.26 170.23 203.97 169.39
  Q 203.65 168.50 203.13 167.69
  Q 202.76 167.09 202.07 167.12
  Q 201.59 167.14 201.41 166.71
  Q 200.55 164.72 198.81 164.29"
/>
<path stroke="#a17a6f" vector-effect="non-scaling-stroke" d="
  M 198.81 164.29
  L 194.00 155.92"
/>
<path stroke="#8c655a" vector-effect="non-scaling-stroke" d="
  M 194.00 155.92
  Q 189.78 145.74 189.10 139.64
  C 187.94 129.15 186.81 119.38 188.34 108.83
  A 0.88 0.88 0.0 0 0 187.18 107.87
  Q 186.34 108.17 185.59 108.72
  Q 179.57 113.20 174.44 117.26
  Q 162.17 126.94 153.96 137.61
  Q 145.89 148.09 142.01 155.02
  C 136.92 164.10 131.91 174.07 129.43 184.48
  C 128.57 188.06 128.48 191.73 127.92 195.39
  Q 127.28 199.50 127.24 203.38
  Q 127.13 214.10 129.30 225.50
  C 131.51 237.16 136.50 246.89 143.12 256.38
  C 147.32 262.40 151.63 268.59 156.35 274.18
  Q 171.90 292.56 188.57 306.12
  Q 193.63 310.24 198.25 314.18
  Q 211.46 325.46 226.64 337.74
  C 251.43 357.78 274.67 378.42 294.99 402.47
  Q 304.45 413.67 312.29 428.67
  Q 315.39 434.61 316.89 439.90
  Q 319.20 448.03 320.96 457.67
  Q 321.75 462.02 322.01 467.15
  Q 322.07 468.28 321.63 472.81
  Q 321.36 475.54 321.89 478.56"
/>
<path stroke="#7f8ca2" vector-effect="non-scaling-stroke" d="
  M 265.92 567.82
  Q 265.54 566.99 266.45 566.24
  C 275.69 558.59 284.44 551.43 291.95 542.65
  Q 297.64 535.99 301.45 530.59
  Q 309.39 519.33 314.57 505.54
  Q 315.59 502.83 316.26 499.55
  Q 316.92 496.35 317.51 493.45
  C 317.97 491.21 317.92 488.85 317.99 486.57
  Q 318.02 485.79 318.54 481.45
  Q 318.98 477.68 318.71 471.50
  Q 317.92 453.99 311.51 440.39"
/>
<path stroke="#b1a6b0" vector-effect="non-scaling-stroke" d="
  M 311.51 440.39
  Q 310.37 438.10 309.37 435.65
  Q 308.16 432.70 307.23 430.92
  Q 301.14 419.38 294.73 411.18
  Q 290.52 405.79 286.28 400.48
  Q 281.71 394.74 277.39 390.22
  Q 266.39 378.71 257.14 370.86
  Q 253.51 367.79 249.72 364.22
  Q 246.96 361.64 244.08 359.34
  Q 241.46 357.26 238.33 354.50
  Q 233.88 350.61 229.28 347.19
  Q 228.17 346.37 223.98 342.58
  Q 221.24 340.10 218.55 338.17
  Q 211.70 333.26 189.84 314.76
  Q 186.54 311.98 182.94 308.95
  Q 163.58 292.66 147.62 272.99
  Q 144.22 268.79 140.77 263.75
  Q 135.85 256.56 134.56 254.04
  Q 132.18 249.39 129.43 244.74"
/>
<path stroke="#7f8ca2" vector-effect="non-scaling-stroke" d="
  M 129.43 244.74
  L 127.08 238.68"
/>
<path stroke="#84869e" vector-effect="non-scaling-stroke" d="
  M 127.08 238.68
  C 124.07 227.76 122.18 218.78 122.80 207.75
  Q 122.99 204.24 124.00 201.81"
/>
<path stroke="#84869e" vector-effect="non-scaling-stroke" d="
  M 122.52 201.84
  Q 119.10 202.09 116.79 203.80
  Q 107.51 210.65 96.19 222.48
  Q 81.58 237.73 72.86 256.93
  Q 70.03 263.15 68.44 269.46
  Q 66.90 275.60 66.10 281.19
  Q 64.75 290.50 65.21 300.45
  Q 65.62 309.37 67.96 320.03
  Q 69.88 328.80 74.37 337.64
  Q 80.03 348.79 88.24 358.62"
/>
<path stroke="#79424c" vector-effect="non-scaling-stroke" d="
  M 373.28 334.71
  L 370.76 331.33
  A 0.41 0.41 0.0 0 0 370.02 331.60
  C 370.09 332.75 370.87 333.28 370.88 334.51
  Q 370.88 334.99 371.08 335.43
  L 373.33 340.45"
/>
<path stroke="#b18a80" vector-effect="non-scaling-stroke" d="
  M 373.33 340.45
  L 371.92 338.05
  A 0.41 0.40 -37.3 0 0 371.28 337.97
  L 371.02 338.23
  Q 370.60 338.65 370.84 339.19
  L 373.82 345.93"
/>
<path stroke="#1974b8" vector-effect="non-scaling-stroke" d="
  M 127.08 238.68
  L 126.96 240.96
  Q 126.93 241.44 126.66 241.84
  Q 126.14 242.59 126.32 243.50
  Q 127.12 247.49 126.78 251.73
  Q 126.64 253.50 126.64 255.24
  Q 126.64 256.98 126.48 258.71
  Q 126.13 262.68 127.15 266.30
  Q 127.72 268.29 127.72 270.15
  Q 127.73 272.44 128.13 273.99
  Q 129.46 279.16 131.08 284.12
  Q 131.14 284.31 131.34 284.35
  Q 131.47 284.38 131.58 284.46
  Q 131.96 284.71 132.11 285.13
  Q 133.29 288.26 134.58 291.56
  Q 135.10 292.92 135.91 294.22
  Q 136.84 295.73 137.33 296.77
  Q 141.88 306.47 149.11 314.19
  Q 149.44 314.55 149.88 314.83
  Q 150.41 315.17 150.49 315.78
  A 1.06 1.02 22.2 0 0 150.72 316.30
  Q 152.78 318.72 155.12 320.82
  Q 158.89 324.19 162.28 327.72
  Q 163.20 328.67 164.36 329.28
  Q 165.69 329.98 166.57 331.26
  Q 167.76 332.98 169.62 334.27
  Q 171.86 335.83 173.74 337.85
  Q 174.65 338.83 175.74 339.49
  Q 176.96 340.24 178.02 341.21
  Q 180.25 343.24 182.64 345.15
  Q 183.99 346.22 185.19 347.48
  Q 186.40 348.74 187.83 349.79
  Q 189.43 350.96 190.70 352.25
  Q 192.09 353.66 193.61 354.73
  Q 194.00 355.00 194.22 355.42
  Q 194.59 356.13 195.25 356.65
  Q 198.54 359.22 201.41 361.89
  Q 204.36 364.63 207.39 366.76
  Q 213.77 371.24 219.84 376.86
  Q 220.13 377.13 220.16 377.52
  Q 220.18 377.76 220.36 377.90
  Q 221.53 378.80 222.78 379.55
  Q 223.94 380.24 225.03 381.36
  Q 226.36 382.72 227.68 383.62
  Q 229.57 384.89 231.25 386.25"
/>
<path stroke="#4b8ec6" vector-effect="non-scaling-stroke" d="
  M 231.25 386.25
  Q 231.87 387.47 232.87 388.14
  Q 234.64 389.33 234.69 389.38
  C 236.38 390.85 238.01 391.88 239.46 393.80
  Q 240.62 395.33 242.53 396.52
  Q 242.90 396.75 243.03 397.16
  Q 243.12 397.45 243.39 397.63
  Q 245.06 398.69 246.33 400.13"
/>
<path stroke="#1974b8" vector-effect="non-scaling-stroke" d="
  M 246.33 400.13
  Q 244.80 399.36 243.59 398.23
  Q 241.67 396.44 241.15 396.05
  Q 239.13 394.52 237.21 392.87
  Q 237.06 392.75 237.13 392.57
  Q 237.15 392.50 237.11 392.44
  Q 236.98 392.26 236.75 392.20
  Q 235.13 391.77 234.03 390.54
  Q 233.71 390.18 233.22 390.00
  Q 232.50 389.72 233.00 390.31
  Q 235.90 393.68 237.97 395.16
  Q 241.24 397.49 243.85 400.49
  Q 244.92 401.73 243.58 400.79
  Q 242.41 399.98 241.67 398.77
  A 1.61 1.57 -3.5 0 0 240.95 398.15
  Q 239.87 397.70 239.24 396.68
  Q 239.00 396.29 238.61 396.02
  Q 237.09 394.97 235.79 393.81
  Q 234.63 392.79 232.90 392.21
  Q 232.09 391.94 232.68 392.55
  Q 236.32 396.34 240.52 399.09
  Q 240.57 399.12 240.60 399.16
  Q 240.69 399.31 240.55 399.46
  A 0.06 0.05 25.3 0 0 240.59 399.55
  Q 242.12 399.84 242.89 401.20
  Q 243.38 402.06 242.47 401.68
  Q 242.21 401.58 241.97 401.42
  Q 241.56 401.16 241.61 401.64
  Q 241.64 401.95 242.03 402.11
  A 0.03 0.03 0.0 0 1 242.01 402.16
  Q 241.90 402.13 241.76 402.13
  Q 241.61 402.13 241.48 402.04
  Q 239.73 400.78 238.00 399.60
  Q 237.84 399.49 237.71 399.65
  L 237.71 399.65
  Q 237.58 399.81 237.73 399.95
  Q 240.02 402.11 242.39 404.08
  Q 242.76 404.40 243.02 404.80
  Q 243.37 405.35 242.90 404.91
  Q 239.65 401.90 235.86 399.75
  Q 235.65 399.64 235.53 399.83
  L 235.52 399.84
  Q 235.39 400.03 235.57 400.17
  Q 237.40 401.67 239.50 403.42
  Q 239.88 403.74 239.96 404.23
  Q 240.00 404.54 240.23 404.79
  Q 240.73 405.35 240.11 404.92
  Q 239.23 404.30 238.46 403.55
  C 237.00 402.16 234.84 401.14 233.17 400.08
  Q 232.43 399.61 232.78 400.41
  Q 233.08 401.11 233.73 401.26
  Q 234.18 401.36 234.50 401.69
  L 238.39 405.65
  A 0.63 0.63 0.0 0 1 238.56 405.96
  Q 238.71 406.54 239.10 406.98
  Q 239.36 407.27 239.05 407.04
  L 232.89 402.31
  Q 232.77 402.22 232.68 402.35
  L 232.49 402.63
  Q 232.35 402.84 232.56 402.99
  Q 234.89 404.58 237.18 406.49
  Q 237.81 407.02 237.07 406.66
  Q 236.89 406.57 236.84 406.83
  Q 236.79 407.14 236.53 406.97
  Q 231.78 403.89 228.70 400.97
  Q 227.90 400.21 227.02 399.67
  Q 226.07 399.08 225.28 398.35
  Q 220.92 394.35 216.77 390.75
  Q 216.51 390.52 216.30 390.80
  L 216.11 391.05
  Q 216.05 391.13 216.12 391.19
  Q 218.91 393.43 221.03 395.57
  Q 221.20 395.74 221.02 395.89
  L 221.02 395.89
  Q 220.90 395.99 220.80 395.87
  Q 219.46 394.22 217.69 393.07
  Q 216.00 391.98 214.61 390.53
  Q 213.16 389.02 211.57 387.83
  C 210.52 387.06 210.35 385.87 209.18 385.17
  Q 207.99 384.46 207.11 383.42
  Q 206.41 382.58 205.56 381.91
  Q 204.05 380.72 202.42 379.45
  Q 202.03 379.16 201.55 379.15
  L 200.87 379.14
  A 1.66 1.59 -25.9 0 1 199.97 378.85
  Q 195.71 375.86 192.44 372.77
  Q 191.91 372.27 192.10 372.97
  Q 192.57 374.65 194.41 375.61
  Q 194.90 375.86 195.09 376.51
  Q 195.33 377.33 194.71 376.75
  L 191.22 373.54
  Q 190.59 372.96 190.94 373.74
  Q 192.26 376.69 194.66 378.96
  Q 195.27 379.54 196.08 379.32
  Q 196.67 379.17 196.66 379.75
  Q 196.65 380.32 197.17 380.54
  Q 198.18 380.97 198.79 381.88
  Q 199.09 382.32 199.55 382.57
  Q 204.59 385.29 208.10 389.79
  Q 208.14 389.83 208.14 389.89
  Q 208.14 390.02 208.16 390.16
  A 0.04 0.04 0.0 0 1 208.09 390.19
  Q 205.83 387.70 203.78 386.13
  Q 202.29 384.99 203.41 386.50
  Q 204.83 388.41 206.23 390.30
  Q 207.62 392.19 209.21 393.86
  Q 211.22 395.96 212.97 398.83
  A 1.52 1.47 -2.5 0 0 213.60 399.39
  Q 213.79 399.49 213.93 399.65
  Q 214.69 400.58 213.77 399.77
  Q 209.32 395.81 204.20 392.71
  Q 203.67 392.38 203.80 392.99
  L 203.89 393.41
  Q 204.03 394.03 204.62 394.26
  Q 205.87 394.72 206.46 396.04
  Q 206.51 396.16 206.38 396.16
  L 205.07 396.20
  Q 204.87 396.20 204.77 396.03
  Q 204.28 395.16 203.44 394.44
  Q 203.08 394.13 202.96 394.60
  L 202.83 395.13
  Q 202.78 395.33 202.95 395.44
  C 203.90 396.11 204.83 396.36 205.40 397.49
  Q 206.02 398.73 206.60 399.97
  C 207.13 401.11 208.01 401.74 208.99 402.43
  Q 209.22 402.58 209.14 402.84
  Q 209.09 403.00 209.11 403.18
  A 0.66 0.59 -68.3 0 0 209.19 403.40
  L 213.25 410.04
  Q 213.43 410.32 213.73 410.47
  Q 214.02 410.61 214.13 410.91
  Q 214.99 413.28 216.55 415.60
  Q 216.65 415.75 216.53 415.88
  Q 216.49 415.91 216.44 415.93
  Q 216.09 416.04 215.94 416.36
  Q 215.70 416.88 216.22 417.18
  Q 216.59 417.40 216.48 417.82
  Q 216.09 419.24 217.03 420.62
  Q 217.29 421.00 217.26 421.46
  Q 217.22 422.05 216.92 422.53
  Q 216.63 423.00 216.84 423.51
  Q 218.08 426.41 219.39 429.29
  Q 220.59 431.93 221.92 435.23
  Q 223.70 439.60 225.94 443.56
  Q 226.70 444.91 226.74 446.40
  Q 226.78 448.16 226.17 449.53
  C 225.68 450.63 226.14 452.17 226.27 453.35
  Q 226.31 453.72 226.18 454.07
  Q 226.00 454.54 226.38 454.87
  Q 226.77 455.21 226.88 455.72
  Q 227.31 457.60 228.33 459.19
  Q 228.59 459.60 228.58 460.09
  Q 228.55 461.89 229.49 463.14
  Q 229.86 463.64 230.21 464.20
  Q 230.83 465.20 231.94 464.84
  Q 232.45 464.67 232.34 465.20
  Q 231.72 468.07 234.01 469.67
  C 234.95 470.33 235.42 471.54 235.43 472.66
  Q 235.46 474.66 236.48 476.02
  C 237.03 476.75 237.15 477.48 237.52 478.29
  Q 237.70 478.68 238.06 478.90
  Q 239.50 479.80 239.09 481.69
  A 0.82 0.81 -60.0 0 0 239.28 482.41
  Q 239.90 483.11 240.13 482.81
  Q 240.41 482.43 240.52 482.89
  Q 240.84 484.14 241.75 485.01
  Q 242.15 485.39 241.85 485.86
  Q 241.35 486.63 241.71 487.53
  Q 241.93 488.11 241.91 488.72
  L 241.64 494.36
  Q 241.62 494.95 241.07 495.19
  Q 240.37 495.48 240.18 496.24
  Q 240.03 496.87 240.67 496.88
  Q 241.06 496.89 241.14 497.26
  A 0.82 0.82 0.0 0 1 240.77 498.14
  Q 240.50 498.30 240.31 498.52
  Q 239.82 499.11 240.50 499.46
  Q 241.12 499.78 241.19 500.42
  Q 241.25 500.92 241.72 501.10
  Q 242.10 501.24 242.23 501.59
  Q 242.40 502.06 242.12 502.48
  Q 241.67 503.17 241.69 504.81"
/>
<path stroke="#5981a4" vector-effect="non-scaling-stroke" d="
  M 241.69 504.81
  Q 230.71 489.49 222.51 480.50
  Q 216.94 474.38 207.99 466.22
  Q 201.41 460.23 194.58 453.71
  Q 186.89 446.37 176.43 438.32
  Q 173.71 436.23 170.82 433.58
  Q 167.95 430.95 165.29 428.79
  Q 152.11 418.12 138.91 407.27"
/>
<path stroke="#5981a4" vector-effect="non-scaling-stroke" d="
  M 134.68 404.00
  L 121.43 392.80"
/>
<path stroke="#424142" vector-effect="non-scaling-stroke" d="
  M 194.00 155.92
  Q 194.03 158.40 193.76 160.66
  Q 193.49 162.88 192.37 164.93
  Q 190.87 167.64 189.82 170.82
  Q 188.31 175.38 187.08 180.44
  Q 186.76 181.78 186.63 183.14
  Q 186.50 184.54 186.13 185.85
  Q 185.57 187.79 185.61 189.64
  C 185.68 192.28 185.25 195.05 186.25 197.58
  Q 187.20 199.95 187.87 202.38
  Q 188.48 204.60 189.59 206.83
  Q 190.72 209.10 191.69 211.36
  C 192.94 214.26 194.80 216.66 196.48 219.27
  C 197.77 221.26 198.21 223.48 199.90 225.25
  Q 201.53 226.96 202.71 229.11
  Q 205.03 233.32 208.45 236.57
  Q 209.61 237.66 210.39 238.82
  C 211.85 240.96 214.08 242.23 215.81 244.12
  Q 222.02 250.92 229.23 256.80
  Q 229.60 257.11 229.78 257.55
  Q 230.09 258.32 230.80 258.77
  Q 232.02 259.55 232.94 260.70
  Q 233.89 261.88 235.13 262.76
  Q 238.13 264.90 240.79 267.44
  Q 243.26 269.80 246.29 272.20
  Q 246.41 272.29 246.55 272.20
  Q 246.56 272.20 246.69 272.32
  L 255.47 280.21
  Q 255.83 280.54 256.30 280.70
  Q 256.78 280.87 257.19 281.19
  Q 259.09 282.65 260.89 284.31
  Q 261.32 284.71 261.89 284.59
  Q 262.34 284.50 262.45 284.97
  Q 262.54 285.37 262.85 285.64
  Q 264.12 286.72 265.28 287.89
  A 26.97 10.99 51.1 0 0 267.93 290.42
  Q 272.30 294.36 277.20 298.27
  Q 278.21 299.08 279.05 300.04
  Q 279.92 301.04 281.10 301.72
  Q 282.86 302.74 284.17 304.13
  Q 286.37 306.46 288.99 308.38
  Q 295.93 313.46 301.37 318.86
  Q 301.60 319.08 301.91 319.10
  Q 302.40 319.12 302.74 319.47
  Q 306.09 322.86 309.32 325.66
  Q 310.32 326.52 311.25 327.42
  Q 312.19 328.31 313.26 329.08
  Q 316.96 331.74 319.14 334.40
  Q 320.61 336.19 321.95 337.22
  Q 323.55 338.45 324.98 339.92
  Q 326.69 341.68 328.39 342.96
  Q 331.33 345.17 334.28 347.76
  Q 335.12 348.50 336.05 349.00
  C 338.12 350.10 339.13 351.96 341.13 352.96
  Q 345.62 355.21 350.11 357.48
  Q 352.75 358.81 356.07 359.37
  Q 359.68 359.98 362.69 359.75
  Q 366.25 359.49 369.86 358.71
  Q 371.90 358.27 373.80 357.31
  C 375.10 356.65 376.49 356.79 377.86 357.07"
/>
<path stroke="#8c655a" vector-effect="non-scaling-stroke" d="
  M 377.86 357.07
  Q 379.44 360.98 379.84 365.12
  Q 380.45 371.33 380.45 371.35
  C 381.53 378.50 382.66 385.73 381.86 392.87
  Q 380.64 403.76 377.10 414.41
  Q 374.85 421.20 368.46 432.81
  Q 366.33 436.66 363.17 440.81
  C 359.86 445.15 356.80 449.57 352.90 453.54
  Q 350.09 456.40 347.45 459.08
  C 342.45 464.16 336.47 468.82 330.90 473.56
  C 329.21 474.99 327.59 475.76 325.66 476.76
  Q 325.33 476.93 325.36 477.30
  Q 325.39 477.65 325.97 477.96"
/>
<path stroke="#767575" vector-effect="non-scaling-stroke" d="
  M 198.81 164.29
  Q 198.92 165.09 199.70 166.04"
/>
<path stroke="#686768" vector-effect="non-scaling-stroke" d="
  M 199.70 166.04
  Q 200.61 167.61 199.81 169.19
  Q 199.59 169.63 199.65 170.12
  Q 200.15 174.20 199.81 175.75
  C 199.02 179.27 198.09 182.83 197.95 186.33
  Q 197.83 189.24 197.69 192.22
  C 197.57 194.63 198.04 196.80 198.38 199.13
  Q 198.71 201.41 199.69 204.14
  Q 200.81 207.25 201.77 210.13
  Q 202.11 211.15 202.72 212.06
  Q 203.37 213.03 203.73 214.18
  Q 204.26 215.84 205.18 217.16
  Q 206.27 218.71 207.40 220.26
  Q 208.44 221.70 209.34 223.40
  Q 210.42 225.45 212.30 227.10
  Q 213.74 228.36 214.75 229.83
  Q 215.84 231.41 217.21 232.81
  C 218.78 234.41 219.70 236.41 221.62 237.60
  Q 221.78 237.70 221.77 237.89
  Q 221.76 238.04 221.60 238.02
  A 0.07 0.01 41.9 0 0 221.65 238.08
  L 225.53 241.64
  Q 225.86 241.94 226.27 242.11
  Q 227.56 242.64 228.15 243.80
  Q 228.35 244.18 228.72 244.37
  Q 229.51 244.80 229.85 245.62
  Q 230.13 246.32 230.75 246.75
  Q 233.82 248.86 235.72 251.59
  Q 236.67 252.96 238.05 253.70
  Q 238.89 254.14 239.60 254.76
  Q 241.54 256.46 243.54 258.18
  Q 243.58 258.22 245.18 259.28
  Q 246.38 260.08 247.16 260.96
  Q 250.14 264.34 254.33 267.49
  Q 255.26 268.18 256.02 269.09
  Q 256.67 269.88 257.54 270.48
  Q 259.92 272.14 261.98 274.11
  Q 263.80 275.85 266.65 278.02
  Q 268.97 279.79 271.15 281.73
  Q 271.74 282.26 272.48 282.76
  Q 273.18 283.24 273.64 284.00
  Q 273.83 284.31 274.17 284.42
  Q 274.83 284.63 275.12 285.27
  A 1.25 1.25 0.0 0 0 276.02 285.97
  Q 276.78 286.12 277.08 286.87
  Q 277.28 287.37 277.74 287.63
  Q 279.32 288.55 280.67 289.76
  Q 281.97 290.92 283.29 291.97
  Q 284.73 293.11 285.70 294.50
  Q 286.01 294.95 286.54 295.08
  C 288.27 295.49 288.84 296.91 290.10 297.98
  Q 298.12 304.81 306.36 311.33
  Q 308.11 312.72 310.11 314.52
  Q 311.90 316.13 313.87 317.53
  Q 314.78 318.18 315.45 318.96
  Q 316.17 319.79 316.77 320.61
  Q 316.92 320.80 317.16 320.82
  Q 317.54 320.86 317.80 321.13
  Q 319.44 322.76 321.36 324.04
  Q 322.84 325.03 323.68 326.12
  Q 324.68 327.42 325.97 328.12
  Q 327.97 329.22 329.65 330.83
  Q 331.32 332.45 333.13 333.86
  Q 334.97 335.29 336.76 336.73
  Q 341.84 340.83 348.48 343.64
  Q 353.25 345.65 357.09 345.41
  Q 361.99 345.09 367.04 343.47
  Q 367.56 343.30 368.05 343.57
  Q 369.50 344.36 371.14 344.09
  Q 371.88 343.96 372.01 344.71
  Q 372.20 345.82 373.82 345.93"
/>
<path stroke="#a17a6f" vector-effect="non-scaling-stroke" d="
  M 373.82 345.93
  L 377.86 357.07"
/>
<path stroke="#4694ca" vector-effect="non-scaling-stroke" d="
  M 311.51 440.39
  L 307.19 439.83
  Q 306.68 439.77 306.36 439.37
  Q 305.81 438.71 304.97 438.91
  A 0.88 0.88 0.0 0 1 304.11 438.64
  Q 303.99 438.51 303.83 438.43
  Q 303.47 438.24 303.05 438.18
  Q 300.70 437.87 298.56 437.20
  Q 298.19 437.09 298.29 437.46
  Q 298.33 437.63 298.46 437.72
  Q 298.73 437.91 299.05 437.84
  Q 299.10 437.83 299.15 437.86
  Q 299.67 438.25 299.02 438.16
  Q 292.56 437.23 286.64 434.27
  Q 286.42 434.16 286.39 433.91
  Q 286.37 433.73 286.25 433.59
  Q 286.04 433.33 285.70 433.31
  Q 284.53 433.27 283.73 432.47
  C 282.71 431.45 281.38 430.82 280.13 430.11
  Q 279.29 429.63 278.54 428.86
  Q 275.71 425.99 272.27 423.88
  Q 271.08 423.15 270.21 422.08
  Q 269.37 421.03 268.10 420.49
  Q 267.56 420.26 267.29 419.75
  Q 266.31 417.93 264.61 416.66
  Q 263.19 415.59 261.96 414.41
  Q 259.75 412.26 257.53 410.09
  C 256.51 409.09 255.27 408.53 254.36 407.34
  Q 253.36 406.02 252.01 405.28
  Q 249.34 403.80 248.64 402.72
  Q 247.69 401.24 246.33 400.13"
/>
<path stroke="#5487a8" vector-effect="non-scaling-stroke" d="
  M 262.10 568.51
  Q 262.37 560.97 261.42 557.30
  Q 259.34 549.30 258.14 541.13
  C 257.66 537.92 256.71 534.37 255.61 531.88
  Q 250.51 520.43 244.56 509.41
  Q 243.23 506.94 241.69 504.81"
/>
<path stroke="#4694ca" vector-effect="non-scaling-stroke" d="
  M 129.43 244.74
  Q 130.17 247.16 129.83 249.36
  Q 129.41 252.02 129.53 253.21
  Q 129.88 256.76 129.94 260.48
  Q 129.94 261.01 130.26 261.44
  C 130.93 262.37 130.53 263.52 130.70 264.58
  C 130.84 265.53 130.80 266.58 131.14 267.46
  Q 132.84 271.88 132.89 276.67
  C 132.92 278.60 133.87 280.11 134.05 281.98
  Q 134.23 283.78 135.15 285.49
  Q 136.08 287.21 136.74 289.09
  Q 138.78 294.86 142.94 300.07
  Q 145.06 302.72 146.93 306.51
  Q 147.81 308.28 149.40 309.82
  Q 150.67 311.04 151.69 312.49
  Q 152.74 313.99 154.04 315.35
  Q 154.49 315.81 155.07 315.99
  Q 155.52 316.13 155.82 316.49
  Q 158.21 319.27 160.94 321.81
  Q 163.76 324.41 166.33 327.04
  Q 169.91 330.70 174.14 334.18
  C 174.88 334.79 175.14 335.81 175.78 336.25
  Q 179.11 338.50 182.45 341.66
  Q 185.41 344.46 188.87 347.39
  Q 189.00 347.50 189.16 347.55
  Q 189.33 347.60 189.51 347.62
  Q 190.02 347.67 190.40 348.02
  Q 192.89 350.36 195.17 352.80
  Q 196.02 353.72 197.27 354.11
  Q 198.65 354.55 199.58 355.61
  Q 201.04 357.29 202.65 358.56
  Q 205.46 360.79 208.32 363.05
  C 209.20 363.75 210.25 364.12 210.98 365.02
  Q 211.73 365.95 212.69 366.75
  Q 218.30 371.40 223.79 376.25
  Q 223.92 376.37 226.88 378.51
  Q 228.40 379.59 229.62 381.27
  Q 230.48 382.45 231.70 383.43
  Q 232.87 384.37 233.83 385.54
  Q 235.55 387.65 237.84 389.26
  Q 237.99 389.37 238.18 389.38
  Q 238.36 389.38 238.54 389.39
  Q 239.03 389.42 239.38 389.78
  Q 243.69 394.23 248.60 398.25
  Q 249.35 398.87 249.96 399.74
  Q 250.42 400.39 249.74 399.97
  Q 249.06 399.55 248.59 398.92
  Q 248.09 398.25 247.39 397.68
  Q 244.49 395.32 241.65 392.47
  Q 240.82 391.63 239.76 391.10
  Q 238.74 390.59 238.01 389.84
  Q 237.77 389.59 237.55 389.87
  L 237.39 390.08
  Q 237.35 390.13 237.40 390.16
  Q 238.39 390.85 239.27 391.82
  Q 239.84 392.43 239.10 392.05
  Q 236.97 390.93 235.63 389.69
  Q 233.16 387.38 231.25 386.25"
/>
<path stroke="#868586" vector-effect="non-scaling-stroke" d="
  M 356.39 311.73
  Q 356.32 312.44 356.99 313.00
  Q 357.52 313.44 357.40 314.12
  Q 357.33 314.58 357.48 315.00
  Q 357.79 315.82 356.99 315.47
  Q 356.81 315.39 356.72 315.21
  Q 356.58 314.93 356.38 314.74
  Q 355.94 314.31 356.24 314.94
  Q 356.35 315.17 356.07 315.35
  A 0.31 0.31 0.0 0 1 355.66 315.27
  Q 353.56 312.35 351.02 311.03
  A 0.35 0.35 0.0 0 0 350.60 311.58
  Q 352.48 313.58 354.13 315.45
  Q 354.93 316.35 355.69 317.46
  Q 356.40 318.50 357.28 319.44
  Q 358.29 320.51 359.10 321.48
  Q 359.53 322.00 358.85 321.92
  C 356.87 321.67 355.38 320.51 353.63 320.21
  Q 350.72 319.71 347.99 319.25
  Q 347.50 319.17 347.02 319.33
  Q 346.52 319.49 345.99 319.43
  Q 341.19 318.86 337.98 317.55
  Q 334.32 316.06 329.98 313.99
  Q 325.97 312.07 322.53 309.19
  Q 319.18 306.37 315.64 303.76
  Q 312.30 301.29 308.72 298.36
  Q 301.07 292.10 293.44 285.83
  Q 293.23 285.65 291.67 284.62
  Q 290.90 284.11 289.99 283.27
  Q 284.99 278.62 278.35 273.82
  Q 274.54 271.06 270.90 267.54
  Q 268.32 265.04 265.75 262.92
  Q 262.89 260.55 260.10 257.87
  A 4.91 3.54 48.9 0 0 259.58 257.42
  Q 255.60 254.33 252.07 251.17
  Q 246.06 245.77 240.18 240.18
  Q 236.06 236.26 233.19 232.95
  Q 230.06 229.35 226.49 225.12
  Q 226.08 224.63 225.80 224.06
  Q 225.44 223.32 224.76 222.91
  Q 224.36 222.67 224.19 222.23
  Q 223.51 220.46 222.47 218.85
  Q 220.86 216.39 219.58 213.25
  Q 218.76 211.23 218.40 209.15
  Q 218.02 206.99 217.44 205.00
  Q 217.30 204.52 217.48 204.06
  Q 217.78 203.24 217.31 202.48
  Q 217.03 202.03 217.06 201.50
  C 217.14 200.25 217.23 199.08 216.84 197.89
  C 216.17 195.84 216.22 193.79 215.16 191.83
  Q 214.06 189.79 213.11 187.53
  Q 212.88 186.97 212.86 186.40
  Q 212.84 185.71 212.22 185.38
  Q 211.77 185.13 211.49 184.70
  Q 209.66 181.86 208.18 178.95
  Q 206.29 175.25 204.93 173.22
  Q 202.60 169.74 200.05 166.07
  Q 200.02 166.02 199.95 166.02
  Q 199.82 166.03 199.70 166.04"
/>
<path stroke="#f4856e" vector-effect="non-scaling-stroke" d="
  M 317.86 138.89
  Q 310.82 132.67 303.76 126.49
  Q 303.75 126.48 303.75 126.46
  Q 303.76 126.33 303.80 126.21
  Q 303.91 125.88 303.62 125.67
  Q 295.95 120.28 289.09 114.57
  Q 286.14 112.12 282.69 112.68
  Q 281.13 112.94 280.27 114.45
  Q 279.63 115.59 278.73 116.52
  Q 275.56 119.82 275.62 125.00
  Q 275.63 125.53 275.33 125.97
  Q 275.07 126.35 275.14 126.82
  Q 275.45 128.98 276.75 130.66
  Q 277.46 131.57 277.90 132.64
  Q 278.25 133.47 278.88 134.15
  Q 279.97 135.34 280.68 136.63
  Q 281.94 138.91 283.21 141.27
  Q 284.73 144.07 286.74 146.55
  Q 288.73 148.99 290.39 151.89
  Q 291.01 152.96 292.09 153.69
  C 293.30 154.51 293.87 155.31 294.86 156.29
  Q 295.22 156.65 295.22 157.15
  Q 295.23 157.95 295.99 157.88
  Q 304.15 165.51 312.65 172.74
  C 313.41 173.38 313.83 174.38 314.96 174.92
  Q 315.40 175.13 315.65 175.56
  Q 316.63 177.23 318.40 177.89
  Q 318.92 178.08 319.24 178.52
  Q 319.60 178.99 320.14 179.27
  Q 320.62 179.51 320.91 179.97
  Q 321.32 180.62 321.89 181.02
  Q 322.49 181.44 322.98 181.92
  Q 326.24 185.09 329.19 188.23
  C 330.36 189.46 331.88 190.28 333.02 191.56
  Q 334.26 192.96 335.72 194.20
  Q 338.85 196.86 341.97 199.46
  Q 344.93 201.93 347.80 204.92
  Q 352.88 210.21 358.89 213.21
  Q 360.58 214.05 362.19 215.19
  Q 365.65 217.65 368.74 220.22
  Q 368.98 220.42 370.90 221.47
  Q 371.69 221.89 372.32 222.53
  Q 374.92 225.13 379.27 228.15
  C 382.09 230.11 383.79 233.01 386.71 234.87
  Q 388.96 236.30 391.19 237.57
  Q 392.80 238.48 394.24 239.62
  Q 395.71 240.79 397.22 241.62
  Q 399.99 243.14 402.21 245.55
  Q 403.23 246.66 404.69 247.28
  C 408.30 248.83 411.13 250.21 415.23 250.16
  Q 415.74 250.15 416.13 249.82
  Q 417.05 249.05 418.19 248.75
  Q 418.70 248.62 418.87 248.13
  Q 419.57 246.21 420.41 244.11
  Q 421.24 242.03 421.31 239.87
  Q 421.38 237.75 421.63 235.63
  Q 421.67 235.30 421.54 234.99
  Q 421.40 234.69 421.12 234.55
  Q 420.67 234.32 420.63 233.83
  Q 420.51 232.55 419.56 231.80
  Q 419.16 231.48 418.96 231.00
  Q 418.43 229.64 417.13 228.63
  Q 415.90 227.66 414.95 226.40
  Q 412.83 223.60 410.54 220.92
  Q 409.83 220.09 409.44 219.17
  Q 409.03 218.17 408.18 217.49
  Q 407.01 216.54 406.07 215.35
  Q 402.73 211.14 399.03 206.73
  Q 397.35 204.73 395.43 203.42
  Q 394.57 202.83 394.01 202.01
  Q 393.49 201.26 392.85 200.65
  Q 388.27 196.29 383.17 192.16
  Q 378.49 188.37 374.12 184.15
  Q 373.77 183.81 373.28 183.80
  Q 372.81 183.78 372.56 183.39
  Q 371.84 182.29 370.66 181.43
  Q 369.59 180.66 368.52 179.77
  Q 366.94 178.44 365.39 177.06
  Q 365.00 176.71 364.64 176.31
  Q 364.26 175.89 363.74 175.90
  Q 363.22 175.90 362.80 175.58
  Q 359.00 172.62 354.90 169.40
  Q 354.22 168.86 353.45 168.40
  Q 352.77 168.01 352.19 167.38
  Q 350.24 165.27 347.68 163.95
  Q 347.25 163.73 347.00 163.30
  Q 346.21 161.96 344.95 161.14
  Q 343.84 160.42 342.80 159.38
  Q 340.36 156.94 337.71 155.07
  A 0.95 0.91 10.3 0 1 337.35 154.57
  Q 337.20 154.05 336.76 153.93
  Q 336.46 153.85 336.20 153.68
  Q 335.42 153.19 334.59 152.58
  Q 333.74 151.95 332.80 151.50
  Q 330.83 150.56 328.64 148.11
  Q 328.02 147.42 326.09 145.97
  Q 325.04 145.18 323.69 143.70
  Q 322.41 142.30 320.84 141.22
  Q 319.27 140.14 317.86 138.89"
/>
</g>
<path fill="#ea9d87" d="
  M 261.09 39.14
  L 262.67 45.01
  L 262.94 48.99
  C 261.89 46.86 260.99 45.03 260.50 42.57
  Q 260.01 40.14 259.23 37.80
  Q 258.22 34.79 257.98 32.61
  Q 257.49 28.09 257.12 22.94
  C 257.02 21.66 256.52 20.49 255.98 19.37
  L 256.64 19.18
  A 0.91 0.91 0.0 0 1 257.80 20.14
  Q 257.69 21.22 257.57 22.35
  C 257.27 25.20 259.04 28.69 258.79 30.52
  Q 258.13 35.38 261.09 39.14
  Z"
/>
<path fill="#ff2702" d="
  M 255.98 19.37
  C 256.52 20.49 257.02 21.66 257.12 22.94
  Q 257.49 28.09 257.98 32.61
  Q 258.22 34.79 259.23 37.80
  Q 260.01 40.14 260.50 42.57
  C 260.99 45.03 261.89 46.86 262.94 48.99
  Q 264.76 56.55 267.64 63.81
  Q 268.93 67.08 271.99 72.39
  Q 274.41 76.59 276.49 80.92
  Q 275.63 81.58 275.79 82.40
  A 2.56 2.56 0.0 0 1 274.00 85.35
  Q 272.69 85.74 271.46 86.61
  Q 269.54 87.97 267.53 89.00
  C 265.86 89.86 264.58 91.37 263.34 92.80
  Q 263.05 93.13 262.61 93.22
  Q 261.52 93.43 260.60 94.40
  Q 260.50 94.52 260.53 94.67
  Q 260.55 94.73 260.60 94.74
  Q 260.91 94.86 260.71 95.13
  Q 257.26 99.85 256.60 106.22
  Q 256.18 110.29 256.58 114.24
  Q 256.63 114.78 256.91 115.24
  Q 257.20 115.73 257.16 116.32
  Q 257.11 117.21 257.35 118.07
  Q 258.18 121.00 258.89 123.83
  Q 259.93 127.98 262.53 132.33
  Q 263.14 133.34 263.36 134.33
  Q 263.64 135.56 264.28 136.56
  Q 266.53 140.04 269.17 143.35
  Q 269.42 143.67 269.53 144.06
  A 1.66 1.62 -75.3 0 0 269.90 144.71
  L 276.10 151.39
  Q 276.36 151.67 276.42 152.06
  Q 276.47 152.35 276.62 152.51
  Q 279.32 155.40 282.84 158.66
  Q 282.87 158.70 282.87 158.75
  Q 282.86 158.79 282.85 158.84
  Q 282.81 159.04 282.95 159.18
  Q 286.28 162.31 289.42 165.78
  C 290.50 166.97 291.96 167.70 292.97 168.91
  Q 295.65 172.11 299.00 174.45
  Q 302.54 176.94 305.15 179.43
  Q 307.95 182.12 311.10 185.05
  Q 312.59 186.43 314.33 187.71
  Q 316.01 188.95 317.56 190.39
  Q 319.60 192.28 321.63 193.78
  Q 323.79 195.37 325.71 197.20
  Q 325.95 197.43 326.28 197.50
  Q 326.77 197.61 327.11 197.96
  Q 329.97 200.81 332.98 203.03
  Q 333.16 203.16 333.39 203.15
  Q 333.72 203.12 334.00 203.30
  Q 336.84 205.05 338.76 207.14
  Q 340.65 209.21 342.68 210.62
  Q 347.22 213.80 351.33 216.99
  C 352.24 217.70 352.88 218.69 353.77 219.49
  Q 354.70 220.34 355.52 221.42
  Q 356.40 222.59 357.87 223.54
  Q 359.61 224.65 361.22 226.85
  Q 361.51 227.25 361.98 227.43
  Q 362.46 227.63 362.83 228.01
  Q 364.95 230.24 367.70 231.79
  Q 370.02 233.09 371.65 235.27
  C 373.16 237.27 375.60 237.97 376.88 240.10
  Q 377.93 241.86 379.42 242.89
  Q 380.50 243.63 381.30 244.47
  Q 383.53 246.82 385.67 249.20
  Q 385.91 249.47 385.97 249.84
  Q 386.02 250.24 386.47 250.26
  A 0.73 0.70 68.7 0 1 386.92 250.47
  Q 391.94 255.57 398.10 261.06
  Q 399.16 262.00 400.12 263.17
  Q 400.92 264.15 402.23 264.86
  Q 403.72 265.67 405.02 266.75
  Q 406.34 267.86 407.72 268.73
  Q 410.76 270.67 413.78 272.14
  Q 417.17 273.78 422.52 274.61
  Q 424.97 274.99 427.09 274.07
  Q 429.21 273.14 431.30 272.39
  Q 432.64 271.90 433.70 270.95
  Q 435.11 269.69 436.74 269.05
  Q 437.24 268.85 437.16 268.32
  Q 436.99 267.17 438.12 266.31
  Q 438.54 265.99 438.67 265.49
  Q 438.96 264.42 439.56 263.56
  Q 440.11 262.78 440.41 261.76
  Q 441.31 258.74 442.01 255.74
  Q 442.39 254.15 442.93 255.69
  Q 443.30 256.72 443.91 257.74
  Q 444.48 258.68 444.81 259.78
  Q 445.47 261.96 446.40 264.07
  Q 447.98 267.65 448.49 271.11
  Q 448.89 273.80 449.43 276.36
  Q 450.00 279.08 450.44 281.46
  C 451.20 285.49 450.61 288.95 450.60 292.84
  Q 450.60 293.01 450.70 293.14
  Q 450.79 293.26 450.94 293.29
  Q 451.33 293.38 451.41 293.77
  L 452.07 297.47
  C 452.30 303.47 450.27 308.32 449.37 314.18
  Q 449.10 315.99 447.74 318.12
  C 445.36 321.83 445.71 326.27 443.90 330.43
  Q 439.51 340.52 435.89 345.66
  Q 433.16 349.53 430.51 354.11
  C 428.38 357.81 424.70 360.75 421.96 364.38
  C 420.56 366.24 419.30 368.28 417.51 369.78
  C 413.39 373.26 409.89 377.28 405.65 380.49
  Q 402.00 383.26 398.53 386.21
  C 397.16 387.38 395.39 387.62 393.68 387.91
  A 2.08 2.07 2.6 0 0 392.01 389.43
  Q 391.72 390.56 391.07 391.42
  Q 390.50 392.18 389.62 391.78
  Q 389.14 391.55 389.06 391.03
  L 388.50 387.47
  Q 388.68 386.72 388.44 386.01
  Q 388.63 386.17 388.72 386.45
  Q 388.83 386.77 389.14 386.89
  Q 389.27 386.94 389.41 386.84
  Q 389.52 386.75 389.55 386.61
  Q 389.99 384.21 389.74 380.62
  Q 388.39 361.22 381.73 347.25
  C 379.44 342.43 377.18 337.54 374.26 333.19
  C 370.65 327.80 367.62 322.21 363.41 317.09
  C 354.66 306.49 345.16 297.15 335.62 287.56
  C 330.58 282.50 324.90 277.92 319.67 272.89
  Q 311.08 264.65 300.87 256.51
  C 295.66 252.37 291.03 247.59 285.78 243.70
  Q 279.25 238.85 274.21 234.65
  C 268.29 229.72 261.98 224.81 256.53 219.79
  Q 236.54 201.38 218.73 181.27
  Q 216.07 178.27 213.79 174.97
  C 209.93 169.41 205.44 163.99 202.95 157.61
  Q 199.98 150.00 197.25 141.26
  Q 195.68 136.24 195.42 131.74
  Q 195.00 124.50 195.10 117.57
  Q 195.15 114.55 194.86 111.33
  Q 194.58 108.26 194.70 105.16
  Q 194.72 104.61 194.17 104.60
  Q 193.51 104.59 192.99 104.79
  Q 192.66 104.02 193.11 103.54
  Q 193.84 101.10 194.32 98.53
  C 195.24 93.53 196.95 88.71 198.32 83.79
  Q 199.07 81.11 200.37 78.72
  Q 201.76 76.16 202.83 73.12
  C 204.70 67.81 208.26 62.24 211.65 57.70
  Q 222.35 43.34 236.77 29.46
  Q 238.64 27.66 240.94 26.57
  Q 244.20 25.03 247.25 21.96
  C 249.91 19.28 252.81 20.38 255.98 19.37
  Z"
/>
<path fill="#2d2c2c" d="
  M 261.09 39.14
  Q 262.91 41.61 262.67 45.01
  L 261.09 39.14
  Z"
/>
<path fill="#fe6d54" d="
  M 276.49 80.92
  C 278.45 83.91 280.32 86.88 282.56 89.67
  C 288.74 97.37 294.88 105.54 301.98 112.06
  C 312.39 121.62 323.01 131.77 334.32 140.52
  Q 355.47 156.89 376.99 174.04
  C 379.45 176.01 381.59 178.27 384.02 180.23
  C 397.82 191.39 408.46 202.20 421.68 216.78
  Q 431.91 228.06 440.78 243.94
  Q 444.75 251.05 446.30 258.38
  C 446.99 261.67 448.96 265.18 449.47 267.74
  Q 450.84 274.62 452.17 281.50
  Q 452.99 285.72 452.07 297.47
  L 451.41 293.77
  Q 451.33 293.38 450.94 293.29
  Q 450.79 293.26 450.70 293.14
  Q 450.60 293.01 450.60 292.84
  C 450.61 288.95 451.20 285.49 450.44 281.46
  Q 450.00 279.08 449.43 276.36
  Q 448.89 273.80 448.49 271.11
  Q 447.98 267.65 446.40 264.07
  Q 445.47 261.96 444.81 259.78
  Q 444.48 258.68 443.91 257.74
  Q 443.30 256.72 442.93 255.69
  Q 442.39 254.15 442.01 255.74
  Q 441.31 258.74 440.41 261.76
  Q 440.11 262.78 439.56 263.56
  Q 438.96 264.42 438.67 265.49
  Q 438.54 265.99 438.12 266.31
  Q 436.99 267.17 437.16 268.32
  Q 437.24 268.85 436.74 269.05
  Q 435.11 269.69 433.70 270.95
  Q 432.64 271.90 431.30 272.39
  Q 429.21 273.14 427.09 274.07
  Q 424.97 274.99 422.52 274.61
  Q 417.17 273.78 413.78 272.14
  Q 410.76 270.67 407.72 268.73
  Q 406.34 267.86 405.02 266.75
  Q 403.72 265.67 402.23 264.86
  Q 400.92 264.15 400.12 263.17
  Q 399.16 262.00 398.10 261.06
  Q 391.94 255.57 386.92 250.47
  A 0.73 0.70 68.7 0 0 386.47 250.26
  Q 386.02 250.24 385.97 249.84
  Q 385.91 249.47 385.67 249.20
  Q 383.53 246.82 381.30 244.47
  Q 380.50 243.63 379.42 242.89
  Q 377.93 241.86 376.88 240.10
  C 375.60 237.97 373.16 237.27 371.65 235.27
  Q 370.02 233.09 367.70 231.79
  Q 364.95 230.24 362.83 228.01
  Q 362.46 227.63 361.98 227.43
  Q 361.51 227.25 361.22 226.85
  Q 359.61 224.65 357.87 223.54
  Q 356.40 222.59 355.52 221.42
  Q 354.70 220.34 353.77 219.49
  C 352.88 218.69 352.24 217.70 351.33 216.99
  Q 347.22 213.80 342.68 210.62
  Q 340.65 209.21 338.76 207.14
  Q 336.84 205.05 334.00 203.30
  Q 333.72 203.12 333.39 203.15
  Q 333.16 203.16 332.98 203.03
  Q 329.97 200.81 327.11 197.96
  Q 326.77 197.61 326.28 197.50
  Q 325.95 197.43 325.71 197.20
  Q 323.79 195.37 321.63 193.78
  Q 319.60 192.28 317.56 190.39
  Q 316.01 188.95 314.33 187.71
  Q 312.59 186.43 311.10 185.05
  Q 307.95 182.12 305.15 179.43
  Q 302.54 176.94 299.00 174.45
  Q 295.65 172.11 292.97 168.91
  C 291.96 167.70 290.50 166.97 289.42 165.78
  Q 286.28 162.31 282.95 159.18
  Q 282.81 159.04 282.85 158.84
  Q 282.86 158.79 282.87 158.75
  Q 282.87 158.70 282.84 158.66
  Q 279.32 155.40 276.62 152.51
  Q 276.47 152.35 276.42 152.06
  Q 276.36 151.67 276.10 151.39
  L 269.90 144.71
  A 1.66 1.62 -75.3 0 1 269.53 144.06
  Q 269.42 143.67 269.17 143.35
  Q 266.53 140.04 264.28 136.56
  Q 263.64 135.56 263.36 134.33
  Q 263.14 133.34 262.53 132.33
  Q 259.93 127.98 258.89 123.83
  Q 258.18 121.00 257.35 118.07
  Q 257.11 117.21 257.16 116.32
  Q 257.20 115.73 256.91 115.24
  Q 256.63 114.78 256.58 114.24
  Q 256.18 110.29 256.60 106.22
  Q 257.26 99.85 260.71 95.13
  Q 260.91 94.86 260.60 94.74
  Q 260.55 94.73 260.53 94.67
  Q 260.50 94.52 260.60 94.40
  Q 261.52 93.43 262.61 93.22
  Q 263.05 93.13 263.34 92.80
  C 264.58 91.37 265.86 89.86 267.53 89.00
  Q 269.54 87.97 271.46 86.61
  Q 272.69 85.74 274.00 85.35
  A 2.56 2.56 0.0 0 0 275.79 82.40
  Q 275.63 81.58 276.49 80.92
  Z
  M 317.86 138.89
  Q 310.82 132.67 303.76 126.49
  Q 303.75 126.48 303.75 126.46
  Q 303.76 126.33 303.80 126.21
  Q 303.91 125.88 303.62 125.67
  Q 295.95 120.28 289.09 114.57
  Q 286.14 112.12 282.69 112.68
  Q 281.13 112.94 280.27 114.45
  Q 279.63 115.59 278.73 116.52
  Q 275.56 119.82 275.62 125.00
  Q 275.63 125.53 275.33 125.97
  Q 275.07 126.35 275.14 126.82
  Q 275.45 128.98 276.75 130.66
  Q 277.46 131.57 277.90 132.64
  Q 278.25 133.47 278.88 134.15
  Q 279.97 135.34 280.68 136.63
  Q 281.94 138.91 283.21 141.27
  Q 284.73 144.07 286.74 146.55
  Q 288.73 148.99 290.39 151.89
  Q 291.01 152.96 292.09 153.69
  C 293.30 154.51 293.87 155.31 294.86 156.29
  Q 295.22 156.65 295.22 157.15
  Q 295.23 157.95 295.99 157.88
  Q 304.15 165.51 312.65 172.74
  C 313.41 173.38 313.83 174.38 314.96 174.92
  Q 315.40 175.13 315.65 175.56
  Q 316.63 177.23 318.40 177.89
  Q 318.92 178.08 319.24 178.52
  Q 319.60 178.99 320.14 179.27
  Q 320.62 179.51 320.91 179.97
  Q 321.32 180.62 321.89 181.02
  Q 322.49 181.44 322.98 181.92
  Q 326.24 185.09 329.19 188.23
  C 330.36 189.46 331.88 190.28 333.02 191.56
  Q 334.26 192.96 335.72 194.20
  Q 338.85 196.86 341.97 199.46
  Q 344.93 201.93 347.80 204.92
  Q 352.88 210.21 358.89 213.21
  Q 360.58 214.05 362.19 215.19
  Q 365.65 217.65 368.74 220.22
  Q 368.98 220.42 370.90 221.47
  Q 371.69 221.89 372.32 222.53
  Q 374.92 225.13 379.27 228.15
  C 382.09 230.11 383.79 233.01 386.71 234.87
  Q 388.96 236.30 391.19 237.57
  Q 392.80 238.48 394.24 239.62
  Q 395.71 240.79 397.22 241.62
  Q 399.99 243.14 402.21 245.55
  Q 403.23 246.66 404.69 247.28
  C 408.30 248.83 411.13 250.21 415.23 250.16
  Q 415.74 250.15 416.13 249.82
  Q 417.05 249.05 418.19 248.75
  Q 418.70 248.62 418.87 248.13
  Q 419.57 246.21 420.41 244.11
  Q 421.24 242.03 421.31 239.87
  Q 421.38 237.75 421.63 235.63
  Q 421.67 235.30 421.54 234.99
  Q 421.40 234.69 421.12 234.55
  Q 420.67 234.32 420.63 233.83
  Q 420.51 232.55 419.56 231.80
  Q 419.16 231.48 418.96 231.00
  Q 418.43 229.64 417.13 228.63
  Q 415.90 227.66 414.95 226.40
  Q 412.83 223.60 410.54 220.92
  Q 409.83 220.09 409.44 219.17
  Q 409.03 218.17 408.18 217.49
  Q 407.01 216.54 406.07 215.35
  Q 402.73 211.14 399.03 206.73
  Q 397.35 204.73 395.43 203.42
  Q 394.57 202.83 394.01 202.01
  Q 393.49 201.26 392.85 200.65
  Q 388.27 196.29 383.17 192.16
  Q 378.49 188.37 374.12 184.15
  Q 373.77 183.81 373.28 183.80
  Q 372.81 183.78 372.56 183.39
  Q 371.84 182.29 370.66 181.43
  Q 369.59 180.66 368.52 179.77
  Q 366.94 178.44 365.39 177.06
  Q 365.00 176.71 364.64 176.31
  Q 364.26 175.89 363.74 175.90
  Q 363.22 175.90 362.80 175.58
  Q 359.00 172.62 354.90 169.40
  Q 354.22 168.86 353.45 168.40
  Q 352.77 168.01 352.19 167.38
  Q 350.24 165.27 347.68 163.95
  Q 347.25 163.73 347.00 163.30
  Q 346.21 161.96 344.95 161.14
  Q 343.84 160.42 342.80 159.38
  Q 340.36 156.94 337.71 155.07
  A 0.95 0.91 10.3 0 1 337.35 154.57
  Q 337.20 154.05 336.76 153.93
  Q 336.46 153.85 336.20 153.68
  Q 335.42 153.19 334.59 152.58
  Q 333.74 151.95 332.80 151.50
  Q 330.83 150.56 328.64 148.11
  Q 328.02 147.42 326.09 145.97
  Q 325.04 145.18 323.69 143.70
  Q 322.41 142.30 320.84 141.22
  Q 319.27 140.14 317.86 138.89
  Z"
/>
<path fill="#7a0c20" d="
  M 193.11 103.54
  Q 192.66 104.02 192.99 104.79
  Q 193.18 105.57 193.15 106.50
  Q 192.68 119.77 192.98 129.73
  Q 193.30 140.12 197.80 150.41
  Q 199.46 154.19 200.92 158.11
  Q 201.78 160.42 203.02 162.75
  Q 204.17 164.89 205.15 167.12
  C 205.50 167.90 205.32 168.50 205.45 169.30
  Q 205.60 170.27 205.16 169.39
  Q 204.08 167.25 202.68 165.30
  Q 200.59 162.41 198.69 159.05
  Q 197.97 157.79 197.21 156.60
  Q 195.00 153.17 192.81 146.71
  Q 191.37 142.45 190.74 136.15
  Q 189.19 120.55 190.03 104.61
  L 193.11 103.54
  Z"
/>
<path fill="#ea9d87" d="
  M 388.44 386.01
  Q 388.27 383.78 388.17 381.51
  Q 388.07 379.19 387.62 377.05
  Q 386.04 369.66 384.66 362.26
  Q 382.14 348.80 373.28 334.71
  Q 366.58 323.85 364.36 320.64
  Q 363.54 319.46 361.25 317.35
  Q 360.91 317.04 360.83 316.59
  Q 360.77 316.24 360.64 316.11
  Q 358.48 314.01 356.39 311.73
  Q 355.25 311.05 354.69 309.94
  Q 354.47 309.50 354.02 309.26
  Q 353.01 308.71 352.38 308.06
  Q 350.17 305.78 348.11 303.43
  Q 347.79 303.06 347.71 302.58
  Q 347.62 302.06 347.21 301.70
  Q 345.31 300.00 343.68 298.14
  Q 342.32 296.60 340.80 295.36
  Q 339.17 294.04 337.87 292.46
  Q 335.60 289.71 332.84 287.95
  Q 331.70 287.23 331.35 285.96
  Q 331.24 285.55 330.94 285.25
  L 326.01 280.41
  Q 325.67 280.08 325.19 280.06
  Q 324.32 280.02 324.40 279.24
  Q 324.45 278.72 324.00 278.46
  Q 319.36 275.72 316.21 271.78
  Q 315.44 270.81 314.49 269.98
  Q 314.00 269.56 313.36 269.40
  Q 312.60 269.21 312.34 268.48
  A 1.39 1.37 2.3 0 0 311.60 267.69
  Q 310.21 267.07 309.56 265.84
  Q 309.08 264.92 308.16 264.31
  Q 306.80 263.40 305.58 262.74
  A 7.46 4.52 46.5 0 1 304.73 262.21
  Q 304.06 261.74 303.56 261.13
  C 302.41 259.74 300.60 259.41 299.37 257.95
  Q 298.42 256.83 297.10 256.26
  Q 295.27 255.46 293.95 254.26
  Q 292.15 252.62 290.38 250.72
  C 289.56 249.84 288.44 249.39 287.85 248.30
  A 0.65 0.53 12.8 0 0 287.71 248.12
  L 284.33 245.09
  Q 283.95 244.75 283.48 244.54
  Q 282.06 243.92 281.14 242.71
  Q 278.71 239.52 275.50 238.32
  Q 273.95 237.75 272.75 236.46
  Q 270.79 234.34 268.80 232.33
  Q 268.58 232.11 268.27 232.07
  Q 267.60 231.98 267.28 231.39
  Q 267.03 230.93 266.55 230.74
  C 264.93 230.11 264.47 228.65 263.09 228.01
  C 261.87 227.46 260.87 226.11 260.06 225.08
  Q 259.78 224.72 259.33 224.62
  Q 258.00 224.33 257.37 223.11
  Q 257.16 222.70 256.73 222.53
  Q 256.03 222.26 255.73 221.59
  Q 255.53 221.16 255.06 221.09
  C 254.19 220.98 253.40 220.39 252.93 219.66
  Q 251.03 216.62 248.27 214.90
  C 247.07 214.15 246.31 212.91 244.99 212.49
  Q 244.46 212.33 244.14 211.88
  Q 242.00 208.90 239.11 206.67
  Q 236.87 204.93 234.87 202.98
  Q 232.82 200.99 230.71 199.08
  Q 229.85 198.30 228.73 197.80
  Q 227.53 197.28 226.91 196.21
  Q 224.62 192.29 220.65 189.37
  Q 219.45 188.49 218.61 187.17
  Q 216.67 184.14 213.67 182.01
  Q 212.57 181.23 211.92 180.16
  Q 211.13 178.87 210.39 177.58
  Q 210.31 177.44 210.17 177.50
  L 210.16 177.50
  Q 209.95 177.59 210.03 177.81
  Q 210.47 178.95 210.88 180.08
  Q 210.93 180.20 210.86 180.09
  C 210.25 179.21 209.57 178.98 209.08 178.00
  Q 207.25 174.34 204.83 171.01
  Q 204.26 170.23 203.97 169.39
  Q 203.65 168.50 203.13 167.69
  Q 202.76 167.09 202.07 167.12
  Q 201.59 167.14 201.41 166.71
  Q 200.55 164.72 198.81 164.29
  L 194.00 155.92
  Q 189.78 145.74 189.10 139.64
  C 187.94 129.15 186.81 119.38 188.34 108.83
  A 0.88 0.88 0.0 0 0 187.18 107.87
  Q 186.34 108.17 185.59 108.72
  Q 179.57 113.20 174.44 117.26
  Q 162.17 126.94 153.96 137.61
  Q 145.89 148.09 142.01 155.02
  C 136.92 164.10 131.91 174.07 129.43 184.48
  C 128.57 188.06 128.48 191.73 127.92 195.39
  Q 127.28 199.50 127.24 203.38
  Q 127.13 214.10 129.30 225.50
  C 131.51 237.16 136.50 246.89 143.12 256.38
  C 147.32 262.40 151.63 268.59 156.35 274.18
  Q 171.90 292.56 188.57 306.12
  Q 193.63 310.24 198.25 314.18
  Q 211.46 325.46 226.64 337.74
  C 251.43 357.78 274.67 378.42 294.99 402.47
  Q 304.45 413.67 312.29 428.67
  Q 315.39 434.61 316.89 439.90
  Q 319.20 448.03 320.96 457.67
  Q 321.75 462.02 322.01 467.15
  Q 322.07 468.28 321.63 472.81
  Q 321.36 475.54 321.89 478.56
  Q 319.59 483.71 319.41 487.01
  Q 318.80 498.60 314.25 509.35
  Q 303.41 534.96 283.77 553.89
  Q 280.91 556.64 276.15 560.27
  Q 272.24 563.25 268.68 566.67
  Q 268.21 567.12 265.92 567.82
  Q 265.54 566.99 266.45 566.24
  C 275.69 558.59 284.44 551.43 291.95 542.65
  Q 297.64 535.99 301.45 530.59
  Q 309.39 519.33 314.57 505.54
  Q 315.59 502.83 316.26 499.55
  Q 316.92 496.35 317.51 493.45
  C 317.97 491.21 317.92 488.85 317.99 486.57
  Q 318.02 485.79 318.54 481.45
  Q 318.98 477.68 318.71 471.50
  Q 317.92 453.99 311.51 440.39
  Q 310.37 438.10 309.37 435.65
  Q 308.16 432.70 307.23 430.92
  Q 301.14 419.38 294.73 411.18
  Q 290.52 405.79 286.28 400.48
  Q 281.71 394.74 277.39 390.22
  Q 266.39 378.71 257.14 370.86
  Q 253.51 367.79 249.72 364.22
  Q 246.96 361.64 244.08 359.34
  Q 241.46 357.26 238.33 354.50
  Q 233.88 350.61 229.28 347.19
  Q 228.17 346.37 223.98 342.58
  Q 221.24 340.10 218.55 338.17
  Q 211.70 333.26 189.84 314.76
  Q 186.54 311.98 182.94 308.95
  Q 163.58 292.66 147.62 272.99
  Q 144.22 268.79 140.77 263.75
  Q 135.85 256.56 134.56 254.04
  Q 132.18 249.39 129.43 244.74
  L 127.08 238.68
  C 124.07 227.76 122.18 218.78 122.80 207.75
  Q 122.99 204.24 124.00 201.81
  Q 124.40 201.13 124.33 200.76
  Q 124.24 200.24 123.78 200.49
  Q 122.90 200.95 122.52 201.84
  Q 119.10 202.09 116.79 203.80
  Q 107.51 210.65 96.19 222.48
  Q 81.58 237.73 72.86 256.93
  Q 70.03 263.15 68.44 269.46
  Q 66.90 275.60 66.10 281.19
  Q 64.75 290.50 65.21 300.45
  Q 65.62 309.37 67.96 320.03
  Q 69.88 328.80 74.37 337.64
  Q 80.03 348.79 88.24 358.62
  Q 84.27 355.21 80.72 349.79
  C 76.07 342.71 70.88 335.26 68.99 327.53
  C 68.12 323.99 66.73 320.56 66.07 316.93
  Q 61.41 291.21 68.67 265.60
  C 71.08 257.12 75.55 249.94 79.39 242.23
  C 81.15 238.71 83.87 236.20 85.92 232.91
  Q 88.23 229.22 91.99 225.10
  C 98.25 218.26 104.76 211.15 112.47 205.59
  Q 116.58 202.63 120.30 199.45
  A 1.59 1.55 26.1 0 1 121.42 199.08
  C 123.62 199.20 126.14 199.09 126.53 196.34
  Q 127.44 189.95 128.82 183.03
  Q 130.06 176.82 134.40 166.98
  Q 139.82 154.73 145.73 146.63
  Q 150.76 139.75 156.61 132.88
  Q 161.48 127.18 165.84 123.48
  Q 171.14 118.99 175.80 114.69
  C 178.18 112.49 180.99 111.37 183.49 109.36
  Q 186.54 106.90 190.03 104.61
  Q 189.19 120.55 190.74 136.15
  Q 191.37 142.45 192.81 146.71
  Q 195.00 153.17 197.21 156.60
  Q 197.97 157.79 198.69 159.05
  Q 200.59 162.41 202.68 165.30
  Q 204.08 167.25 205.16 169.39
  Q 205.60 170.27 205.45 169.30
  C 205.32 168.50 205.50 167.90 205.15 167.12
  Q 204.17 164.89 203.02 162.75
  Q 201.78 160.42 200.92 158.11
  Q 199.46 154.19 197.80 150.41
  Q 193.30 140.12 192.98 129.73
  Q 192.68 119.77 193.15 106.50
  Q 193.18 105.57 192.99 104.79
  Q 193.51 104.59 194.17 104.60
  Q 194.72 104.61 194.70 105.16
  Q 194.58 108.26 194.86 111.33
  Q 195.15 114.55 195.10 117.57
  Q 195.00 124.50 195.42 131.74
  Q 195.68 136.24 197.25 141.26
  Q 199.98 150.00 202.95 157.61
  C 205.44 163.99 209.93 169.41 213.79 174.97
  Q 216.07 178.27 218.73 181.27
  Q 236.54 201.38 256.53 219.79
  C 261.98 224.81 268.29 229.72 274.21 234.65
  Q 279.25 238.85 285.78 243.70
  C 291.03 247.59 295.66 252.37 300.87 256.51
  Q 311.08 264.65 319.67 272.89
  C 324.90 277.92 330.58 282.50 335.62 287.56
  C 345.16 297.15 354.66 306.49 363.41 317.09
  C 367.62 322.21 370.65 327.80 374.26 333.19
  C 377.18 337.54 379.44 342.43 381.73 347.25
  Q 388.39 361.22 389.74 380.62
  Q 389.99 384.21 389.55 386.61
  Q 389.52 386.75 389.41 386.84
  Q 389.27 386.94 389.14 386.89
  Q 388.83 386.77 388.72 386.45
  Q 388.63 386.17 388.44 386.01
  Z"
/>
<path fill="#2d2c2c" d="
  M 194.00 155.92
  Q 194.03 158.40 193.76 160.66
  Q 193.49 162.88 192.37 164.93
  Q 190.87 167.64 189.82 170.82
  Q 188.31 175.38 187.08 180.44
  Q 186.76 181.78 186.63 183.14
  Q 186.50 184.54 186.13 185.85
  Q 185.57 187.79 185.61 189.64
  C 185.68 192.28 185.25 195.05 186.25 197.58
  Q 187.20 199.95 187.87 202.38
  Q 188.48 204.60 189.59 206.83
  Q 190.72 209.10 191.69 211.36
  C 192.94 214.26 194.80 216.66 196.48 219.27
  C 197.77 221.26 198.21 223.48 199.90 225.25
  Q 201.53 226.96 202.71 229.11
  Q 205.03 233.32 208.45 236.57
  Q 209.61 237.66 210.39 238.82
  C 211.85 240.96 214.08 242.23 215.81 244.12
  Q 222.02 250.92 229.23 256.80
  Q 229.60 257.11 229.78 257.55
  Q 230.09 258.32 230.80 258.77
  Q 232.02 259.55 232.94 260.70
  Q 233.89 261.88 235.13 262.76
  Q 238.13 264.90 240.79 267.44
  Q 243.26 269.80 246.29 272.20
  Q 246.41 272.29 246.55 272.20
  Q 246.56 272.20 246.69 272.32
  L 255.47 280.21
  Q 255.83 280.54 256.30 280.70
  Q 256.78 280.87 257.19 281.19
  Q 259.09 282.65 260.89 284.31
  Q 261.32 284.71 261.89 284.59
  Q 262.34 284.50 262.45 284.97
  Q 262.54 285.37 262.85 285.64
  Q 264.12 286.72 265.28 287.89
  A 26.97 10.99 51.1 0 0 267.93 290.42
  Q 272.30 294.36 277.20 298.27
  Q 278.21 299.08 279.05 300.04
  Q 279.92 301.04 281.10 301.72
  Q 282.86 302.74 284.17 304.13
  Q 286.37 306.46 288.99 308.38
  Q 295.93 313.46 301.37 318.86
  Q 301.60 319.08 301.91 319.10
  Q 302.40 319.12 302.74 319.47
  Q 306.09 322.86 309.32 325.66
  Q 310.32 326.52 311.25 327.42
  Q 312.19 328.31 313.26 329.08
  Q 316.96 331.74 319.14 334.40
  Q 320.61 336.19 321.95 337.22
  Q 323.55 338.45 324.98 339.92
  Q 326.69 341.68 328.39 342.96
  Q 331.33 345.17 334.28 347.76
  Q 335.12 348.50 336.05 349.00
  C 338.12 350.10 339.13 351.96 341.13 352.96
  Q 345.62 355.21 350.11 357.48
  Q 352.75 358.81 356.07 359.37
  Q 359.68 359.98 362.69 359.75
  Q 366.25 359.49 369.86 358.71
  Q 371.90 358.27 373.80 357.31
  C 375.10 356.65 376.49 356.79 377.86 357.07
  Q 379.44 360.98 379.84 365.12
  Q 380.45 371.33 380.45 371.35
  C 381.53 378.50 382.66 385.73 381.86 392.87
  Q 380.64 403.76 377.10 414.41
  Q 374.85 421.20 368.46 432.81
  Q 366.33 436.66 363.17 440.81
  C 359.86 445.15 356.80 449.57 352.90 453.54
  Q 350.09 456.40 347.45 459.08
  C 342.45 464.16 336.47 468.82 330.90 473.56
  C 329.21 474.99 327.59 475.76 325.66 476.76
  Q 325.33 476.93 325.36 477.30
  Q 325.39 477.65 325.97 477.96
  Q 323.32 478.14 323.28 477.01
  Q 323.20 474.99 322.81 473.20
  Q 322.67 472.55 322.22 473.04
  L 321.97 473.30
  A 1.43 1.38 -26.0 0 0 321.59 474.35
  L 321.89 478.56
  Q 321.36 475.54 321.63 472.81
  Q 322.07 468.28 322.01 467.15
  Q 321.75 462.02 320.96 457.67
  Q 319.20 448.03 316.89 439.90
  Q 315.39 434.61 312.29 428.67
  Q 304.45 413.67 294.99 402.47
  C 274.67 378.42 251.43 357.78 226.64 337.74
  Q 211.46 325.46 198.25 314.18
  Q 193.63 310.24 188.57 306.12
  Q 171.90 292.56 156.35 274.18
  C 151.63 268.59 147.32 262.40 143.12 256.38
  C 136.50 246.89 131.51 237.16 129.30 225.50
  Q 127.13 214.10 127.24 203.38
  Q 127.28 199.50 127.92 195.39
  C 128.48 191.73 128.57 188.06 129.43 184.48
  C 131.91 174.07 136.92 164.10 142.01 155.02
  Q 145.89 148.09 153.96 137.61
  Q 162.17 126.94 174.44 117.26
  Q 179.57 113.20 185.59 108.72
  Q 186.34 108.17 187.18 107.87
  A 0.88 0.88 0.0 0 1 188.34 108.83
  C 186.81 119.38 187.94 129.15 189.10 139.64
  Q 189.78 145.74 194.00 155.92
  Z"
/>
<path fill="#ea9d87" d="
  M 320.84 141.22
  Q 322.41 142.30 323.69 143.70
  Q 325.04 145.18 326.09 145.97
  Q 328.02 147.42 328.64 148.11
  Q 330.83 150.56 332.80 151.50
  Q 333.74 151.95 334.59 152.58
  Q 335.42 153.19 336.20 153.68
  Q 336.46 153.85 336.76 153.93
  Q 337.20 154.05 337.35 154.57
  A 0.95 0.91 10.3 0 0 337.71 155.07
  Q 340.36 156.94 342.80 159.38
  Q 343.84 160.42 344.95 161.14
  Q 346.21 161.96 347.00 163.30
  Q 347.25 163.73 347.68 163.95
  Q 350.24 165.27 352.19 167.38
  Q 352.77 168.01 353.45 168.40
  Q 354.22 168.86 354.90 169.40
  Q 359.00 172.62 362.80 175.58
  Q 363.22 175.90 363.74 175.90
  Q 364.26 175.89 364.64 176.31
  Q 365.00 176.71 365.39 177.06
  Q 366.94 178.44 368.52 179.77
  Q 369.59 180.66 370.66 181.43
  Q 371.84 182.29 372.56 183.39
  Q 372.81 183.78 373.28 183.80
  Q 373.77 183.81 374.12 184.15
  Q 378.49 188.37 383.17 192.16
  Q 388.27 196.29 392.85 200.65
  Q 393.49 201.26 394.01 202.01
  Q 394.57 202.83 395.43 203.42
  Q 397.35 204.73 399.03 206.73
  Q 402.73 211.14 406.07 215.35
  Q 407.01 216.54 408.18 217.49
  Q 409.03 218.17 409.44 219.17
  Q 409.83 220.09 410.54 220.92
  Q 412.83 223.60 414.95 226.40
  Q 415.90 227.66 417.13 228.63
  Q 418.43 229.64 418.96 231.00
  Q 419.16 231.48 419.56 231.80
  Q 420.51 232.55 420.63 233.83
  Q 420.67 234.32 421.12 234.55
  Q 421.40 234.69 421.54 234.99
  Q 421.67 235.30 421.63 235.63
  Q 421.38 237.75 421.31 239.87
  Q 421.24 242.03 420.41 244.11
  Q 419.57 246.21 418.87 248.13
  Q 418.70 248.62 418.19 248.75
  Q 417.05 249.05 416.13 249.82
  Q 415.74 250.15 415.23 250.16
  C 411.13 250.21 408.30 248.83 404.69 247.28
  Q 403.23 246.66 402.21 245.55
  Q 399.99 243.14 397.22 241.62
  Q 395.71 240.79 394.24 239.62
  Q 392.80 238.48 391.19 237.57
  Q 388.96 236.30 386.71 234.87
  C 383.79 233.01 382.09 230.11 379.27 228.15
  Q 374.92 225.13 372.32 222.53
  Q 371.69 221.89 370.90 221.47
  Q 368.98 220.42 368.74 220.22
  Q 365.65 217.65 362.19 215.19
  Q 360.58 214.05 358.89 213.21
  Q 352.88 210.21 347.80 204.92
  Q 344.93 201.93 341.97 199.46
  Q 338.85 196.86 335.72 194.20
  Q 334.26 192.96 333.02 191.56
  C 331.88 190.28 330.36 189.46 329.19 188.23
  Q 326.24 185.09 322.98 181.92
  Q 322.49 181.44 321.89 181.02
  Q 321.32 180.62 320.91 179.97
  Q 320.62 179.51 320.14 179.27
  Q 319.60 178.99 319.24 178.52
  Q 318.92 178.08 318.40 177.89
  Q 316.63 177.23 315.65 175.56
  Q 315.40 175.13 314.96 174.92
  C 313.83 174.38 313.41 173.38 312.65 172.74
  Q 304.15 165.51 295.99 157.88
  Q 295.23 157.95 295.22 157.15
  Q 295.22 156.65 294.86 156.29
  C 293.87 155.31 293.30 154.51 292.09 153.69
  Q 291.01 152.96 290.39 151.89
  Q 288.73 148.99 286.74 146.55
  Q 284.73 144.07 283.21 141.27
  Q 281.94 138.91 280.68 136.63
  Q 279.97 135.34 278.88 134.15
  Q 278.25 133.47 277.90 132.64
  Q 277.46 131.57 276.75 130.66
  Q 275.45 128.98 275.14 126.82
  Q 275.07 126.35 275.33 125.97
  Q 275.63 125.53 275.62 125.00
  Q 275.56 119.82 278.73 116.52
  Q 279.63 115.59 280.27 114.45
  Q 281.13 112.94 282.69 112.68
  Q 286.14 112.12 289.09 114.57
  Q 295.95 120.28 303.62 125.67
  Q 303.91 125.88 303.80 126.21
  Q 303.76 126.33 303.75 126.46
  Q 303.75 126.48 303.76 126.49
  Q 310.82 132.67 317.86 138.89
  Q 319.27 140.14 320.84 141.22
  Z"
/>
<path fill="#575657" d="
  M 194.00 155.92
  L 198.81 164.29
  Q 198.92 165.09 199.70 166.04
  Q 200.61 167.61 199.81 169.19
  Q 199.59 169.63 199.65 170.12
  Q 200.15 174.20 199.81 175.75
  C 199.02 179.27 198.09 182.83 197.95 186.33
  Q 197.83 189.24 197.69 192.22
  C 197.57 194.63 198.04 196.80 198.38 199.13
  Q 198.71 201.41 199.69 204.14
  Q 200.81 207.25 201.77 210.13
  Q 202.11 211.15 202.72 212.06
  Q 203.37 213.03 203.73 214.18
  Q 204.26 215.84 205.18 217.16
  Q 206.27 218.71 207.40 220.26
  Q 208.44 221.70 209.34 223.40
  Q 210.42 225.45 212.30 227.10
  Q 213.74 228.36 214.75 229.83
  Q 215.84 231.41 217.21 232.81
  C 218.78 234.41 219.70 236.41 221.62 237.60
  Q 221.78 237.70 221.77 237.89
  Q 221.76 238.04 221.60 238.02
  A 0.07 0.01 41.9 0 0 221.65 238.08
  L 225.53 241.64
  Q 225.86 241.94 226.27 242.11
  Q 227.56 242.64 228.15 243.80
  Q 228.35 244.18 228.72 244.37
  Q 229.51 244.80 229.85 245.62
  Q 230.13 246.32 230.75 246.75
  Q 233.82 248.86 235.72 251.59
  Q 236.67 252.96 238.05 253.70
  Q 238.89 254.14 239.60 254.76
  Q 241.54 256.46 243.54 258.18
  Q 243.58 258.22 245.18 259.28
  Q 246.38 260.08 247.16 260.96
  Q 250.14 264.34 254.33 267.49
  Q 255.26 268.18 256.02 269.09
  Q 256.67 269.88 257.54 270.48
  Q 259.92 272.14 261.98 274.11
  Q 263.80 275.85 266.65 278.02
  Q 268.97 279.79 271.15 281.73
  Q 271.74 282.26 272.48 282.76
  Q 273.18 283.24 273.64 284.00
  Q 273.83 284.31 274.17 284.42
  Q 274.83 284.63 275.12 285.27
  A 1.25 1.25 0.0 0 0 276.02 285.97
  Q 276.78 286.12 277.08 286.87
  Q 277.28 287.37 277.74 287.63
  Q 279.32 288.55 280.67 289.76
  Q 281.97 290.92 283.29 291.97
  Q 284.73 293.11 285.70 294.50
  Q 286.01 294.95 286.54 295.08
  C 288.27 295.49 288.84 296.91 290.10 297.98
  Q 298.12 304.81 306.36 311.33
  Q 308.11 312.72 310.11 314.52
  Q 311.90 316.13 313.87 317.53
  Q 314.78 318.18 315.45 318.96
  Q 316.17 319.79 316.77 320.61
  Q 316.92 320.80 317.16 320.82
  Q 317.54 320.86 317.80 321.13
  Q 319.44 322.76 321.36 324.04
  Q 322.84 325.03 323.68 326.12
  Q 324.68 327.42 325.97 328.12
  Q 327.97 329.22 329.65 330.83
  Q 331.32 332.45 333.13 333.86
  Q 334.97 335.29 336.76 336.73
  Q 341.84 340.83 348.48 343.64
  Q 353.25 345.65 357.09 345.41
  Q 361.99 345.09 367.04 343.47
  Q 367.56 343.30 368.05 343.57
  Q 369.50 344.36 371.14 344.09
  Q 371.88 343.96 372.01 344.71
  Q 372.20 345.82 373.82 345.93
  L 377.86 357.07
  C 376.49 356.79 375.10 356.65 373.80 357.31
  Q 371.90 358.27 369.86 358.71
  Q 366.25 359.49 362.69 359.75
  Q 359.68 359.98 356.07 359.37
  Q 352.75 358.81 350.11 357.48
  Q 345.62 355.21 341.13 352.96
  C 339.13 351.96 338.12 350.10 336.05 349.00
  Q 335.12 348.50 334.28 347.76
  Q 331.33 345.17 328.39 342.96
  Q 326.69 341.68 324.98 339.92
  Q 323.55 338.45 321.95 337.22
  Q 320.61 336.19 319.14 334.40
  Q 316.96 331.74 313.26 329.08
  Q 312.19 328.31 311.25 327.42
  Q 310.32 326.52 309.32 325.66
  Q 306.09 322.86 302.74 319.47
  Q 302.40 319.12 301.91 319.10
  Q 301.60 319.08 301.37 318.86
  Q 295.93 313.46 288.99 308.38
  Q 286.37 306.46 284.17 304.13
  Q 282.86 302.74 281.10 301.72
  Q 279.92 301.04 279.05 300.04
  Q 278.21 299.08 277.20 298.27
  Q 272.30 294.36 267.93 290.42
  A 26.97 10.99 51.1 0 1 265.28 287.89
  Q 264.12 286.72 262.85 285.64
  Q 262.54 285.37 262.45 284.97
  Q 262.34 284.50 261.89 284.59
  Q 261.32 284.71 260.89 284.31
  Q 259.09 282.65 257.19 281.19
  Q 256.78 280.87 256.30 280.70
  Q 255.83 280.54 255.47 280.21
  L 246.69 272.32
  Q 246.56 272.20 246.55 272.20
  Q 246.41 272.29 246.29 272.20
  Q 243.26 269.80 240.79 267.44
  Q 238.13 264.90 235.13 262.76
  Q 233.89 261.88 232.94 260.70
  Q 232.02 259.55 230.80 258.77
  Q 230.09 258.32 229.78 257.55
  Q 229.60 257.11 229.23 256.80
  Q 222.02 250.92 215.81 244.12
  C 214.08 242.23 211.85 240.96 210.39 238.82
  Q 209.61 237.66 208.45 236.57
  Q 205.03 233.32 202.71 229.11
  Q 201.53 226.96 199.90 225.25
  C 198.21 223.48 197.77 221.26 196.48 219.27
  C 194.80 216.66 192.94 214.26 191.69 211.36
  Q 190.72 209.10 189.59 206.83
  Q 188.48 204.60 187.87 202.38
  Q 187.20 199.95 186.25 197.58
  C 185.25 195.05 185.68 192.28 185.61 189.64
  Q 185.57 187.79 186.13 185.85
  Q 186.50 184.54 186.63 183.14
  Q 186.76 181.78 187.08 180.44
  Q 188.31 175.38 189.82 170.82
  Q 190.87 167.64 192.37 164.93
  Q 193.49 162.88 193.76 160.66
  Q 194.03 158.40 194.00 155.92
  Z"
/>
<path fill="#949393" d="
  M 198.81 164.29
  Q 200.55 164.72 201.41 166.71
  Q 201.59 167.14 202.07 167.12
  Q 202.76 167.09 203.13 167.69
  Q 203.65 168.50 203.97 169.39
  Q 204.26 170.23 204.83 171.01
  Q 207.25 174.34 209.08 178.00
  C 209.57 178.98 210.25 179.21 210.86 180.09
  Q 210.93 180.20 210.88 180.08
  Q 210.47 178.95 210.03 177.81
  Q 209.95 177.59 210.16 177.50
  L 210.17 177.50
  Q 210.31 177.44 210.39 177.58
  Q 211.13 178.87 211.92 180.16
  Q 212.57 181.23 213.67 182.01
  Q 216.67 184.14 218.61 187.17
  Q 219.45 188.49 220.65 189.37
  Q 224.62 192.29 226.91 196.21
  Q 227.53 197.28 228.73 197.80
  Q 229.85 198.30 230.71 199.08
  Q 232.82 200.99 234.87 202.98
  Q 236.87 204.93 239.11 206.67
  Q 242.00 208.90 244.14 211.88
  Q 244.46 212.33 244.99 212.49
  C 246.31 212.91 247.07 214.15 248.27 214.90
  Q 251.03 216.62 252.93 219.66
  C 253.40 220.39 254.19 220.98 255.06 221.09
  Q 255.53 221.16 255.73 221.59
  Q 256.03 222.26 256.73 222.53
  Q 257.16 222.70 257.37 223.11
  Q 258.00 224.33 259.33 224.62
  Q 259.78 224.72 260.06 225.08
  C 260.87 226.11 261.87 227.46 263.09 228.01
  C 264.47 228.65 264.93 230.11 266.55 230.74
  Q 267.03 230.93 267.28 231.39
  Q 267.60 231.98 268.27 232.07
  Q 268.58 232.11 268.80 232.33
  Q 270.79 234.34 272.75 236.46
  Q 273.95 237.75 275.50 238.32
  Q 278.71 239.52 281.14 242.71
  Q 282.06 243.92 283.48 244.54
  Q 283.95 244.75 284.33 245.09
  L 287.71 248.12
  A 0.65 0.53 12.8 0 1 287.85 248.30
  C 288.44 249.39 289.56 249.84 290.38 250.72
  Q 292.15 252.62 293.95 254.26
  Q 295.27 255.46 297.10 256.26
  Q 298.42 256.83 299.37 257.95
  C 300.60 259.41 302.41 259.74 303.56 261.13
  Q 304.06 261.74 304.73 262.21
  A 7.46 4.52 46.5 0 0 305.58 262.74
  Q 306.80 263.40 308.16 264.31
  Q 309.08 264.92 309.56 265.84
  Q 310.21 267.07 311.60 267.69
  A 1.39 1.37 2.3 0 1 312.34 268.48
  Q 312.60 269.21 313.36 269.40
  Q 314.00 269.56 314.49 269.98
  Q 315.44 270.81 316.21 271.78
  Q 319.36 275.72 324.00 278.46
  Q 324.45 278.72 324.40 279.24
  Q 324.32 280.02 325.19 280.06
  Q 325.67 280.08 326.01 280.41
  L 330.94 285.25
  Q 331.24 285.55 331.35 285.96
  Q 331.70 287.23 332.84 287.95
  Q 335.60 289.71 337.87 292.46
  Q 339.17 294.04 340.80 295.36
  Q 342.32 296.60 343.68 298.14
  Q 345.31 300.00 347.21 301.70
  Q 347.62 302.06 347.71 302.58
  Q 347.79 303.06 348.11 303.43
  Q 350.17 305.78 352.38 308.06
  Q 353.01 308.71 354.02 309.26
  Q 354.47 309.50 354.69 309.94
  Q 355.25 311.05 356.39 311.73
  Q 356.32 312.44 356.99 313.00
  Q 357.52 313.44 357.40 314.12
  Q 357.33 314.58 357.48 315.00
  Q 357.79 315.82 356.99 315.47
  Q 356.81 315.39 356.72 315.21
  Q 356.58 314.93 356.38 314.74
  Q 355.94 314.31 356.24 314.94
  Q 356.35 315.17 356.07 315.35
  A 0.31 0.31 0.0 0 1 355.66 315.27
  Q 353.56 312.35 351.02 311.03
  A 0.35 0.35 0.0 0 0 350.60 311.58
  Q 352.48 313.58 354.13 315.45
  Q 354.93 316.35 355.69 317.46
  Q 356.40 318.50 357.28 319.44
  Q 358.29 320.51 359.10 321.48
  Q 359.53 322.00 358.85 321.92
  C 356.87 321.67 355.38 320.51 353.63 320.21
  Q 350.72 319.71 347.99 319.25
  Q 347.50 319.17 347.02 319.33
  Q 346.52 319.49 345.99 319.43
  Q 341.19 318.86 337.98 317.55
  Q 334.32 316.06 329.98 313.99
  Q 325.97 312.07 322.53 309.19
  Q 319.18 306.37 315.64 303.76
  Q 312.30 301.29 308.72 298.36
  Q 301.07 292.10 293.44 285.83
  Q 293.23 285.65 291.67 284.62
  Q 290.90 284.11 289.99 283.27
  Q 284.99 278.62 278.35 273.82
  Q 274.54 271.06 270.90 267.54
  Q 268.32 265.04 265.75 262.92
  Q 262.89 260.55 260.10 257.87
  A 4.91 3.54 48.9 0 0 259.58 257.42
  Q 255.60 254.33 252.07 251.17
  Q 246.06 245.77 240.18 240.18
  Q 236.06 236.26 233.19 232.95
  Q 230.06 229.35 226.49 225.12
  Q 226.08 224.63 225.80 224.06
  Q 225.44 223.32 224.76 222.91
  Q 224.36 222.67 224.19 222.23
  Q 223.51 220.46 222.47 218.85
  Q 220.86 216.39 219.58 213.25
  Q 218.76 211.23 218.40 209.15
  Q 218.02 206.99 217.44 205.00
  Q 217.30 204.52 217.48 204.06
  Q 217.78 203.24 217.31 202.48
  Q 217.03 202.03 217.06 201.50
  C 217.14 200.25 217.23 199.08 216.84 197.89
  C 216.17 195.84 216.22 193.79 215.16 191.83
  Q 214.06 189.79 213.11 187.53
  Q 212.88 186.97 212.86 186.40
  Q 212.84 185.71 212.22 185.38
  Q 211.77 185.13 211.49 184.70
  Q 209.66 181.86 208.18 178.95
  Q 206.29 175.25 204.93 173.22
  Q 202.60 169.74 200.05 166.07
  Q 200.02 166.02 199.95 166.02
  Q 199.82 166.03 199.70 166.04
  Q 198.92 165.09 198.81 164.29
  Z"
/>
<path fill="#787778" d="
  M 199.70 166.04
  Q 199.82 166.03 199.95 166.02
  Q 200.02 166.02 200.05 166.07
  Q 202.60 169.74 204.93 173.22
  Q 206.29 175.25 208.18 178.95
  Q 209.66 181.86 211.49 184.70
  Q 211.77 185.13 212.22 185.38
  Q 212.84 185.71 212.86 186.40
  Q 212.88 186.97 213.11 187.53
  Q 214.06 189.79 215.16 191.83
  C 216.22 193.79 216.17 195.84 216.84 197.89
  C 217.23 199.08 217.14 200.25 217.06 201.50
  Q 217.03 202.03 217.31 202.48
  Q 217.78 203.24 217.48 204.06
  Q 217.30 204.52 217.44 205.00
  Q 218.02 206.99 218.40 209.15
  Q 218.76 211.23 219.58 213.25
  Q 220.86 216.39 222.47 218.85
  Q 223.51 220.46 224.19 222.23
  Q 224.36 222.67 224.76 222.91
  Q 225.44 223.32 225.80 224.06
  Q 226.08 224.63 226.49 225.12
  Q 230.06 229.35 233.19 232.95
  Q 236.06 236.26 240.18 240.18
  Q 246.06 245.77 252.07 251.17
  Q 255.60 254.33 259.58 257.42
  A 4.91 3.54 48.9 0 1 260.10 257.87
  Q 262.89 260.55 265.75 262.92
  Q 268.32 265.04 270.90 267.54
  Q 274.54 271.06 278.35 273.82
  Q 284.99 278.62 289.99 283.27
  Q 290.90 284.11 291.67 284.62
  Q 293.23 285.65 293.44 285.83
  Q 301.07 292.10 308.72 298.36
  Q 312.30 301.29 315.64 303.76
  Q 319.18 306.37 322.53 309.19
  Q 325.97 312.07 329.98 313.99
  Q 334.32 316.06 337.98 317.55
  Q 341.19 318.86 345.99 319.43
  Q 346.52 319.49 347.02 319.33
  Q 347.50 319.17 347.99 319.25
  Q 350.72 319.71 353.63 320.21
  C 355.38 320.51 356.87 321.67 358.85 321.92
  Q 359.53 322.00 359.10 321.48
  Q 358.29 320.51 357.28 319.44
  Q 356.40 318.50 355.69 317.46
  Q 354.93 316.35 354.13 315.45
  Q 352.48 313.58 350.60 311.58
  A 0.35 0.35 0.0 0 1 351.02 311.03
  Q 353.56 312.35 355.66 315.27
  A 0.31 0.31 0.0 0 0 356.07 315.35
  Q 356.35 315.17 356.24 314.94
  Q 355.94 314.31 356.38 314.74
  Q 356.58 314.93 356.72 315.21
  Q 356.81 315.39 356.99 315.47
  Q 357.79 315.82 357.48 315.00
  Q 357.33 314.58 357.40 314.12
  Q 357.52 313.44 356.99 313.00
  Q 356.32 312.44 356.39 311.73
  Q 358.48 314.01 360.64 316.11
  Q 360.77 316.24 360.83 316.59
  Q 360.91 317.04 361.25 317.35
  Q 363.54 319.46 364.36 320.64
  Q 366.58 323.85 373.28 334.71
  L 370.76 331.33
  A 0.41 0.41 0.0 0 0 370.02 331.60
  C 370.09 332.75 370.87 333.28 370.88 334.51
  Q 370.88 334.99 371.08 335.43
  L 373.33 340.45
  L 371.92 338.05
  A 0.41 0.40 -37.3 0 0 371.28 337.97
  L 371.02 338.23
  Q 370.60 338.65 370.84 339.19
  L 373.82 345.93
  Q 372.20 345.82 372.01 344.71
  Q 371.88 343.96 371.14 344.09
  Q 369.50 344.36 368.05 343.57
  Q 367.56 343.30 367.04 343.47
  Q 361.99 345.09 357.09 345.41
  Q 353.25 345.65 348.48 343.64
  Q 341.84 340.83 336.76 336.73
  Q 334.97 335.29 333.13 333.86
  Q 331.32 332.45 329.65 330.83
  Q 327.97 329.22 325.97 328.12
  Q 324.68 327.42 323.68 326.12
  Q 322.84 325.03 321.36 324.04
  Q 319.44 322.76 317.80 321.13
  Q 317.54 320.86 317.16 320.82
  Q 316.92 320.80 316.77 320.61
  Q 316.17 319.79 315.45 318.96
  Q 314.78 318.18 313.87 317.53
  Q 311.90 316.13 310.11 314.52
  Q 308.11 312.72 306.36 311.33
  Q 298.12 304.81 290.10 297.98
  C 288.84 296.91 288.27 295.49 286.54 295.08
  Q 286.01 294.95 285.70 294.50
  Q 284.73 293.11 283.29 291.97
  Q 281.97 290.92 280.67 289.76
  Q 279.32 288.55 277.74 287.63
  Q 277.28 287.37 277.08 286.87
  Q 276.78 286.12 276.02 285.97
  A 1.25 1.25 0.0 0 1 275.12 285.27
  Q 274.83 284.63 274.17 284.42
  Q 273.83 284.31 273.64 284.00
  Q 273.18 283.24 272.48 282.76
  Q 271.74 282.26 271.15 281.73
  Q 268.97 279.79 266.65 278.02
  Q 263.80 275.85 261.98 274.11
  Q 259.92 272.14 257.54 270.48
  Q 256.67 269.88 256.02 269.09
  Q 255.26 268.18 254.33 267.49
  Q 250.14 264.34 247.16 260.96
  Q 246.38 260.08 245.18 259.28
  Q 243.58 258.22 243.54 258.18
  Q 241.54 256.46 239.60 254.76
  Q 238.89 254.14 238.05 253.70
  Q 236.67 252.96 235.72 251.59
  Q 233.82 248.86 230.75 246.75
  Q 230.13 246.32 229.85 245.62
  Q 229.51 244.80 228.72 244.37
  Q 228.35 244.18 228.15 243.80
  Q 227.56 242.64 226.27 242.11
  Q 225.86 241.94 225.53 241.64
  L 221.65 238.08
  A 0.07 0.01 41.9 0 1 221.60 238.02
  Q 221.76 238.04 221.77 237.89
  Q 221.78 237.70 221.62 237.60
  C 219.70 236.41 218.78 234.41 217.21 232.81
  Q 215.84 231.41 214.75 229.83
  Q 213.74 228.36 212.30 227.10
  Q 210.42 225.45 209.34 223.40
  Q 208.44 221.70 207.40 220.26
  Q 206.27 218.71 205.18 217.16
  Q 204.26 215.84 203.73 214.18
  Q 203.37 213.03 202.72 212.06
  Q 202.11 211.15 201.77 210.13
  Q 200.81 207.25 199.69 204.14
  Q 198.71 201.41 198.38 199.13
  C 198.04 196.80 197.57 194.63 197.69 192.22
  Q 197.83 189.24 197.95 186.33
  C 198.09 182.83 199.02 179.27 199.81 175.75
  Q 200.15 174.20 199.65 170.12
  Q 199.59 169.63 199.81 169.19
  Q 200.61 167.61 199.70 166.04
  Z"
/>
<path fill="#1e6eb4" d="
  M 124.00 201.81
  Q 122.99 204.24 122.80 207.75
  C 122.18 218.78 124.07 227.76 127.08 238.68
  L 126.96 240.96
  Q 126.93 241.44 126.66 241.84
  Q 126.14 242.59 126.32 243.50
  Q 127.12 247.49 126.78 251.73
  Q 126.64 253.50 126.64 255.24
  Q 126.64 256.98 126.48 258.71
  Q 126.13 262.68 127.15 266.30
  Q 127.72 268.29 127.72 270.15
  Q 127.73 272.44 128.13 273.99
  Q 129.46 279.16 131.08 284.12
  Q 131.14 284.31 131.34 284.35
  Q 131.47 284.38 131.58 284.46
  Q 131.96 284.71 132.11 285.13
  Q 133.29 288.26 134.58 291.56
  Q 135.10 292.92 135.91 294.22
  Q 136.84 295.73 137.33 296.77
  Q 141.88 306.47 149.11 314.19
  Q 149.44 314.55 149.88 314.83
  Q 150.41 315.17 150.49 315.78
  A 1.06 1.02 22.2 0 0 150.72 316.30
  Q 152.78 318.72 155.12 320.82
  Q 158.89 324.19 162.28 327.72
  Q 163.20 328.67 164.36 329.28
  Q 165.69 329.98 166.57 331.26
  Q 167.76 332.98 169.62 334.27
  Q 171.86 335.83 173.74 337.85
  Q 174.65 338.83 175.74 339.49
  Q 176.96 340.24 178.02 341.21
  Q 180.25 343.24 182.64 345.15
  Q 183.99 346.22 185.19 347.48
  Q 186.40 348.74 187.83 349.79
  Q 189.43 350.96 190.70 352.25
  Q 192.09 353.66 193.61 354.73
  Q 194.00 355.00 194.22 355.42
  Q 194.59 356.13 195.25 356.65
  Q 198.54 359.22 201.41 361.89
  Q 204.36 364.63 207.39 366.76
  Q 213.77 371.24 219.84 376.86
  Q 220.13 377.13 220.16 377.52
  Q 220.18 377.76 220.36 377.90
  Q 221.53 378.80 222.78 379.55
  Q 223.94 380.24 225.03 381.36
  Q 226.36 382.72 227.68 383.62
  Q 229.57 384.89 231.25 386.25
  Q 231.87 387.47 232.87 388.14
  Q 234.64 389.33 234.69 389.38
  C 236.38 390.85 238.01 391.88 239.46 393.80
  Q 240.62 395.33 242.53 396.52
  Q 242.90 396.75 243.03 397.16
  Q 243.12 397.45 243.39 397.63
  Q 245.06 398.69 246.33 400.13
  Q 244.80 399.36 243.59 398.23
  Q 241.67 396.44 241.15 396.05
  Q 239.13 394.52 237.21 392.87
  Q 237.06 392.75 237.13 392.57
  Q 237.15 392.50 237.11 392.44
  Q 236.98 392.26 236.75 392.20
  Q 235.13 391.77 234.03 390.54
  Q 233.71 390.18 233.22 390.00
  Q 232.50 389.72 233.00 390.31
  Q 235.90 393.68 237.97 395.16
  Q 241.24 397.49 243.85 400.49
  Q 244.92 401.73 243.58 400.79
  Q 242.41 399.98 241.67 398.77
  A 1.61 1.57 -3.5 0 0 240.95 398.15
  Q 239.87 397.70 239.24 396.68
  Q 239.00 396.29 238.61 396.02
  Q 237.09 394.97 235.79 393.81
  Q 234.63 392.79 232.90 392.21
  Q 232.09 391.94 232.68 392.55
  Q 236.32 396.34 240.52 399.09
  Q 240.57 399.12 240.60 399.16
  Q 240.69 399.31 240.55 399.46
  A 0.06 0.05 25.3 0 0 240.59 399.55
  Q 242.12 399.84 242.89 401.20
  Q 243.38 402.06 242.47 401.68
  Q 242.21 401.58 241.97 401.42
  Q 241.56 401.16 241.61 401.64
  Q 241.64 401.95 242.03 402.11
  A 0.03 0.03 0.0 0 1 242.01 402.16
  Q 241.90 402.13 241.76 402.13
  Q 241.61 402.13 241.48 402.04
  Q 239.73 400.78 238.00 399.60
  Q 237.84 399.49 237.71 399.65
  L 237.71 399.65
  Q 237.58 399.81 237.73 399.95
  Q 240.02 402.11 242.39 404.08
  Q 242.76 404.40 243.02 404.80
  Q 243.37 405.35 242.90 404.91
  Q 239.65 401.90 235.86 399.75
  Q 235.65 399.64 235.53 399.83
  L 235.52 399.84
  Q 235.39 400.03 235.57 400.17
  Q 237.40 401.67 239.50 403.42
  Q 239.88 403.74 239.96 404.23
  Q 240.00 404.54 240.23 404.79
  Q 240.73 405.35 240.11 404.92
  Q 239.23 404.30 238.46 403.55
  C 237.00 402.16 234.84 401.14 233.17 400.08
  Q 232.43 399.61 232.78 400.41
  Q 233.08 401.11 233.73 401.26
  Q 234.18 401.36 234.50 401.69
  L 238.39 405.65
  A 0.63 0.63 0.0 0 1 238.56 405.96
  Q 238.71 406.54 239.10 406.98
  Q 239.36 407.27 239.05 407.04
  L 232.89 402.31
  Q 232.77 402.22 232.68 402.35
  L 232.49 402.63
  Q 232.35 402.84 232.56 402.99
  Q 234.89 404.58 237.18 406.49
  Q 237.81 407.02 237.07 406.66
  Q 236.89 406.57 236.84 406.83
  Q 236.79 407.14 236.53 406.97
  Q 231.78 403.89 228.70 400.97
  Q 227.90 400.21 227.02 399.67
  Q 226.07 399.08 225.28 398.35
  Q 220.92 394.35 216.77 390.75
  Q 216.51 390.52 216.30 390.80
  L 216.11 391.05
  Q 216.05 391.13 216.12 391.19
  Q 218.91 393.43 221.03 395.57
  Q 221.20 395.74 221.02 395.89
  L 221.02 395.89
  Q 220.90 395.99 220.80 395.87
  Q 219.46 394.22 217.69 393.07
  Q 216.00 391.98 214.61 390.53
  Q 213.16 389.02 211.57 387.83
  C 210.52 387.06 210.35 385.87 209.18 385.17
  Q 207.99 384.46 207.11 383.42
  Q 206.41 382.58 205.56 381.91
  Q 204.05 380.72 202.42 379.45
  Q 202.03 379.16 201.55 379.15
  L 200.87 379.14
  A 1.66 1.59 -25.9 0 1 199.97 378.85
  Q 195.71 375.86 192.44 372.77
  Q 191.91 372.27 192.10 372.97
  Q 192.57 374.65 194.41 375.61
  Q 194.90 375.86 195.09 376.51
  Q 195.33 377.33 194.71 376.75
  L 191.22 373.54
  Q 190.59 372.96 190.94 373.74
  Q 192.26 376.69 194.66 378.96
  Q 195.27 379.54 196.08 379.32
  Q 196.67 379.17 196.66 379.75
  Q 196.65 380.32 197.17 380.54
  Q 198.18 380.97 198.79 381.88
  Q 199.09 382.32 199.55 382.57
  Q 204.59 385.29 208.10 389.79
  Q 208.14 389.83 208.14 389.89
  Q 208.14 390.02 208.16 390.16
  A 0.04 0.04 0.0 0 1 208.09 390.19
  Q 205.83 387.70 203.78 386.13
  Q 202.29 384.99 203.41 386.50
  Q 204.83 388.41 206.23 390.30
  Q 207.62 392.19 209.21 393.86
  Q 211.22 395.96 212.97 398.83
  A 1.52 1.47 -2.5 0 0 213.60 399.39
  Q 213.79 399.49 213.93 399.65
  Q 214.69 400.58 213.77 399.77
  Q 209.32 395.81 204.20 392.71
  Q 203.67 392.38 203.80 392.99
  L 203.89 393.41
  Q 204.03 394.03 204.62 394.26
  Q 205.87 394.72 206.46 396.04
  Q 206.51 396.16 206.38 396.16
  L 205.07 396.20
  Q 204.87 396.20 204.77 396.03
  Q 204.28 395.16 203.44 394.44
  Q 203.08 394.13 202.96 394.60
  L 202.83 395.13
  Q 202.78 395.33 202.95 395.44
  C 203.90 396.11 204.83 396.36 205.40 397.49
  Q 206.02 398.73 206.60 399.97
  C 207.13 401.11 208.01 401.74 208.99 402.43
  Q 209.22 402.58 209.14 402.84
  Q 209.09 403.00 209.11 403.18
  A 0.66 0.59 -68.3 0 0 209.19 403.40
  L 213.25 410.04
  Q 213.43 410.32 213.73 410.47
  Q 214.02 410.61 214.13 410.91
  Q 214.99 413.28 216.55 415.60
  Q 216.65 415.75 216.53 415.88
  Q 216.49 415.91 216.44 415.93
  Q 216.09 416.04 215.94 416.36
  Q 215.70 416.88 216.22 417.18
  Q 216.59 417.40 216.48 417.82
  Q 216.09 419.24 217.03 420.62
  Q 217.29 421.00 217.26 421.46
  Q 217.22 422.05 216.92 422.53
  Q 216.63 423.00 216.84 423.51
  Q 218.08 426.41 219.39 429.29
  Q 220.59 431.93 221.92 435.23
  Q 223.70 439.60 225.94 443.56
  Q 226.70 444.91 226.74 446.40
  Q 226.78 448.16 226.17 449.53
  C 225.68 450.63 226.14 452.17 226.27 453.35
  Q 226.31 453.72 226.18 454.07
  Q 226.00 454.54 226.38 454.87
  Q 226.77 455.21 226.88 455.72
  Q 227.31 457.60 228.33 459.19
  Q 228.59 459.60 228.58 460.09
  Q 228.55 461.89 229.49 463.14
  Q 229.86 463.64 230.21 464.20
  Q 230.83 465.20 231.94 464.84
  Q 232.45 464.67 232.34 465.20
  Q 231.72 468.07 234.01 469.67
  C 234.95 470.33 235.42 471.54 235.43 472.66
  Q 235.46 474.66 236.48 476.02
  C 237.03 476.75 237.15 477.48 237.52 478.29
  Q 237.70 478.68 238.06 478.90
  Q 239.50 479.80 239.09 481.69
  A 0.82 0.81 -60.0 0 0 239.28 482.41
  Q 239.90 483.11 240.13 482.81
  Q 240.41 482.43 240.52 482.89
  Q 240.84 484.14 241.75 485.01
  Q 242.15 485.39 241.85 485.86
  Q 241.35 486.63 241.71 487.53
  Q 241.93 488.11 241.91 488.72
  L 241.64 494.36
  Q 241.62 494.95 241.07 495.19
  Q 240.37 495.48 240.18 496.24
  Q 240.03 496.87 240.67 496.88
  Q 241.06 496.89 241.14 497.26
  A 0.82 0.82 0.0 0 1 240.77 498.14
  Q 240.50 498.30 240.31 498.52
  Q 239.82 499.11 240.50 499.46
  Q 241.12 499.78 241.19 500.42
  Q 241.25 500.92 241.72 501.10
  Q 242.10 501.24 242.23 501.59
  Q 242.40 502.06 242.12 502.48
  Q 241.67 503.17 241.69 504.81
  Q 230.71 489.49 222.51 480.50
  Q 216.94 474.38 207.99 466.22
  Q 201.41 460.23 194.58 453.71
  Q 186.89 446.37 176.43 438.32
  Q 173.71 436.23 170.82 433.58
  Q 167.95 430.95 165.29 428.79
  Q 152.11 418.12 138.91 407.27
  L 134.68 404.00
  L 121.43 392.80
  Q 110.42 383.54 101.77 374.75
  Q 94.75 367.62 88.24 358.62
  Q 80.03 348.79 74.37 337.64
  Q 69.88 328.80 67.96 320.03
  Q 65.62 309.37 65.21 300.45
  Q 64.75 290.50 66.10 281.19
  Q 66.90 275.60 68.44 269.46
  Q 70.03 263.15 72.86 256.93
  Q 81.58 237.73 96.19 222.48
  Q 107.51 210.65 116.79 203.80
  Q 119.10 202.09 122.52 201.84
  Q 122.57 202.45 123.01 202.51
  Q 123.40 202.56 123.59 202.21
  Q 123.74 201.95 124.00 201.81
  Z"
/>
<path fill="#147abc" d="
  M 127.08 238.68
  L 129.43 244.74
  Q 130.17 247.16 129.83 249.36
  Q 129.41 252.02 129.53 253.21
  Q 129.88 256.76 129.94 260.48
  Q 129.94 261.01 130.26 261.44
  C 130.93 262.37 130.53 263.52 130.70 264.58
  C 130.84 265.53 130.80 266.58 131.14 267.46
  Q 132.84 271.88 132.89 276.67
  C 132.92 278.60 133.87 280.11 134.05 281.98
  Q 134.23 283.78 135.15 285.49
  Q 136.08 287.21 136.74 289.09
  Q 138.78 294.86 142.94 300.07
  Q 145.06 302.72 146.93 306.51
  Q 147.81 308.28 149.40 309.82
  Q 150.67 311.04 151.69 312.49
  Q 152.74 313.99 154.04 315.35
  Q 154.49 315.81 155.07 315.99
  Q 155.52 316.13 155.82 316.49
  Q 158.21 319.27 160.94 321.81
  Q 163.76 324.41 166.33 327.04
  Q 169.91 330.70 174.14 334.18
  C 174.88 334.79 175.14 335.81 175.78 336.25
  Q 179.11 338.50 182.45 341.66
  Q 185.41 344.46 188.87 347.39
  Q 189.00 347.50 189.16 347.55
  Q 189.33 347.60 189.51 347.62
  Q 190.02 347.67 190.40 348.02
  Q 192.89 350.36 195.17 352.80
  Q 196.02 353.72 197.27 354.11
  Q 198.65 354.55 199.58 355.61
  Q 201.04 357.29 202.65 358.56
  Q 205.46 360.79 208.32 363.05
  C 209.20 363.75 210.25 364.12 210.98 365.02
  Q 211.73 365.95 212.69 366.75
  Q 218.30 371.40 223.79 376.25
  Q 223.92 376.37 226.88 378.51
  Q 228.40 379.59 229.62 381.27
  Q 230.48 382.45 231.70 383.43
  Q 232.87 384.37 233.83 385.54
  Q 235.55 387.65 237.84 389.26
  Q 237.99 389.37 238.18 389.38
  Q 238.36 389.38 238.54 389.39
  Q 239.03 389.42 239.38 389.78
  Q 243.69 394.23 248.60 398.25
  Q 249.35 398.87 249.96 399.74
  Q 250.42 400.39 249.74 399.97
  Q 249.06 399.55 248.59 398.92
  Q 248.09 398.25 247.39 397.68
  Q 244.49 395.32 241.65 392.47
  Q 240.82 391.63 239.76 391.10
  Q 238.74 390.59 238.01 389.84
  Q 237.77 389.59 237.55 389.87
  L 237.39 390.08
  Q 237.35 390.13 237.40 390.16
  Q 238.39 390.85 239.27 391.82
  Q 239.84 392.43 239.10 392.05
  Q 236.97 390.93 235.63 389.69
  Q 233.16 387.38 231.25 386.25
  Q 229.57 384.89 227.68 383.62
  Q 226.36 382.72 225.03 381.36
  Q 223.94 380.24 222.78 379.55
  Q 221.53 378.80 220.36 377.90
  Q 220.18 377.76 220.16 377.52
  Q 220.13 377.13 219.84 376.86
  Q 213.77 371.24 207.39 366.76
  Q 204.36 364.63 201.41 361.89
  Q 198.54 359.22 195.25 356.65
  Q 194.59 356.13 194.22 355.42
  Q 194.00 355.00 193.61 354.73
  Q 192.09 353.66 190.70 352.25
  Q 189.43 350.96 187.83 349.79
  Q 186.40 348.74 185.19 347.48
  Q 183.99 346.22 182.64 345.15
  Q 180.25 343.24 178.02 341.21
  Q 176.96 340.24 175.74 339.49
  Q 174.65 338.83 173.74 337.85
  Q 171.86 335.83 169.62 334.27
  Q 167.76 332.98 166.57 331.26
  Q 165.69 329.98 164.36 329.28
  Q 163.20 328.67 162.28 327.72
  Q 158.89 324.19 155.12 320.82
  Q 152.78 318.72 150.72 316.30
  A 1.06 1.02 22.2 0 1 150.49 315.78
  Q 150.41 315.17 149.88 314.83
  Q 149.44 314.55 149.11 314.19
  Q 141.88 306.47 137.33 296.77
  Q 136.84 295.73 135.91 294.22
  Q 135.10 292.92 134.58 291.56
  Q 133.29 288.26 132.11 285.13
  Q 131.96 284.71 131.58 284.46
  Q 131.47 284.38 131.34 284.35
  Q 131.14 284.31 131.08 284.12
  Q 129.46 279.16 128.13 273.99
  Q 127.73 272.44 127.72 270.15
  Q 127.72 268.29 127.15 266.30
  Q 126.13 262.68 126.48 258.71
  Q 126.64 256.98 126.64 255.24
  Q 126.64 253.50 126.78 251.73
  Q 127.12 247.49 126.32 243.50
  Q 126.14 242.59 126.66 241.84
  Q 126.93 241.44 126.96 240.96
  L 127.08 238.68
  Z"
/>
<path fill="#77aed8" d="
  M 129.43 244.74
  Q 132.18 249.39 134.56 254.04
  Q 135.85 256.56 140.77 263.75
  Q 144.22 268.79 147.62 272.99
  Q 163.58 292.66 182.94 308.95
  Q 186.54 311.98 189.84 314.76
  Q 211.70 333.26 218.55 338.17
  Q 221.24 340.10 223.98 342.58
  Q 228.17 346.37 229.28 347.19
  Q 233.88 350.61 238.33 354.50
  Q 241.46 357.26 244.08 359.34
  Q 246.96 361.64 249.72 364.22
  Q 253.51 367.79 257.14 370.86
  Q 266.39 378.71 277.39 390.22
  Q 281.71 394.74 286.28 400.48
  Q 290.52 405.79 294.73 411.18
  Q 301.14 419.38 307.23 430.92
  Q 308.16 432.70 309.37 435.65
  Q 310.37 438.10 311.51 440.39
  L 307.19 439.83
  Q 306.68 439.77 306.36 439.37
  Q 305.81 438.71 304.97 438.91
  A 0.88 0.88 0.0 0 1 304.11 438.64
  Q 303.99 438.51 303.83 438.43
  Q 303.47 438.24 303.05 438.18
  Q 300.70 437.87 298.56 437.20
  Q 298.19 437.09 298.29 437.46
  Q 298.33 437.63 298.46 437.72
  Q 298.73 437.91 299.05 437.84
  Q 299.10 437.83 299.15 437.86
  Q 299.67 438.25 299.02 438.16
  Q 292.56 437.23 286.64 434.27
  Q 286.42 434.16 286.39 433.91
  Q 286.37 433.73 286.25 433.59
  Q 286.04 433.33 285.70 433.31
  Q 284.53 433.27 283.73 432.47
  C 282.71 431.45 281.38 430.82 280.13 430.11
  Q 279.29 429.63 278.54 428.86
  Q 275.71 425.99 272.27 423.88
  Q 271.08 423.15 270.21 422.08
  Q 269.37 421.03 268.10 420.49
  Q 267.56 420.26 267.29 419.75
  Q 266.31 417.93 264.61 416.66
  Q 263.19 415.59 261.96 414.41
  Q 259.75 412.26 257.53 410.09
  C 256.51 409.09 255.27 408.53 254.36 407.34
  Q 253.36 406.02 252.01 405.28
  Q 249.34 403.80 248.64 402.72
  Q 247.69 401.24 246.33 400.13
  Q 245.06 398.69 243.39 397.63
  Q 243.12 397.45 243.03 397.16
  Q 242.90 396.75 242.53 396.52
  Q 240.62 395.33 239.46 393.80
  C 238.01 391.88 236.38 390.85 234.69 389.38
  Q 234.64 389.33 232.87 388.14
  Q 231.87 387.47 231.25 386.25
  Q 233.16 387.38 235.63 389.69
  Q 236.97 390.93 239.10 392.05
  Q 239.84 392.43 239.27 391.82
  Q 238.39 390.85 237.40 390.16
  Q 237.35 390.13 237.39 390.08
  L 237.55 389.87
  Q 237.77 389.59 238.01 389.84
  Q 238.74 390.59 239.76 391.10
  Q 240.82 391.63 241.65 392.47
  Q 244.49 395.32 247.39 397.68
  Q 248.09 398.25 248.59 398.92
  Q 249.06 399.55 249.74 399.97
  Q 250.42 400.39 249.96 399.74
  Q 249.35 398.87 248.60 398.25
  Q 243.69 394.23 239.38 389.78
  Q 239.03 389.42 238.54 389.39
  Q 238.36 389.38 238.18 389.38
  Q 237.99 389.37 237.84 389.26
  Q 235.55 387.65 233.83 385.54
  Q 232.87 384.37 231.70 383.43
  Q 230.48 382.45 229.62 381.27
  Q 228.40 379.59 226.88 378.51
  Q 223.92 376.37 223.79 376.25
  Q 218.30 371.40 212.69 366.75
  Q 211.73 365.95 210.98 365.02
  C 210.25 364.12 209.20 363.75 208.32 363.05
  Q 205.46 360.79 202.65 358.56
  Q 201.04 357.29 199.58 355.61
  Q 198.65 354.55 197.27 354.11
  Q 196.02 353.72 195.17 352.80
  Q 192.89 350.36 190.40 348.02
  Q 190.02 347.67 189.51 347.62
  Q 189.33 347.60 189.16 347.55
  Q 189.00 347.50 188.87 347.39
  Q 185.41 344.46 182.45 341.66
  Q 179.11 338.50 175.78 336.25
  C 175.14 335.81 174.88 334.79 174.14 334.18
  Q 169.91 330.70 166.33 327.04
  Q 163.76 324.41 160.94 321.81
  Q 158.21 319.27 155.82 316.49
  Q 155.52 316.13 155.07 315.99
  Q 154.49 315.81 154.04 315.35
  Q 152.74 313.99 151.69 312.49
  Q 150.67 311.04 149.40 309.82
  Q 147.81 308.28 146.93 306.51
  Q 145.06 302.72 142.94 300.07
  Q 138.78 294.86 136.74 289.09
  Q 136.08 287.21 135.15 285.49
  Q 134.23 283.78 134.05 281.98
  C 133.87 280.11 132.92 278.60 132.89 276.67
  Q 132.84 271.88 131.14 267.46
  C 130.80 266.58 130.84 265.53 130.70 264.58
  C 130.53 263.52 130.93 262.37 130.26 261.44
  Q 129.94 261.01 129.94 260.48
  Q 129.88 256.76 129.53 253.21
  Q 129.41 252.02 129.83 249.36
  Q 130.17 247.16 129.43 244.74
  Z"
/>
<path fill="#7a0c20" d="
  M 373.28 334.71
  Q 382.14 348.80 384.66 362.26
  Q 386.04 369.66 387.62 377.05
  Q 388.07 379.19 388.17 381.51
  Q 388.27 383.78 388.44 386.01
  Q 388.68 386.72 388.50 387.47
  L 388.26 387.17
  Q 387.91 386.74 387.43 387.01
  C 384.84 388.43 384.81 391.17 384.03 393.59
  Q 384.09 390.35 383.89 387.26
  Q 383.24 376.73 382.12 366.24
  Q 381.85 363.71 381.16 361.23
  Q 378.18 350.48 373.33 340.45
  L 371.08 335.43
  Q 370.88 334.99 370.88 334.51
  C 370.87 333.28 370.09 332.75 370.02 331.60
  A 0.41 0.41 0.0 0 1 370.76 331.33
  L 373.28 334.71
  Z"
/>
<path fill="#ea9d87" d="
  M 373.33 340.45
  Q 378.18 350.48 381.16 361.23
  Q 381.85 363.71 382.12 366.24
  Q 383.24 376.73 383.89 387.26
  Q 384.09 390.35 384.03 393.59
  Q 382.20 400.77 380.41 408.03
  Q 379.61 411.28 378.52 414.40
  C 377.53 417.26 376.90 420.06 375.39 422.72
  Q 371.82 429.02 368.39 435.30
  Q 366.32 439.08 363.70 442.54
  C 359.98 447.44 356.60 452.18 352.02 456.41
  C 349.16 459.05 347.04 462.28 344.03 464.90
  Q 335.36 472.45 325.97 477.96
  Q 325.39 477.65 325.36 477.30
  Q 325.33 476.93 325.66 476.76
  C 327.59 475.76 329.21 474.99 330.90 473.56
  C 336.47 468.82 342.45 464.16 347.45 459.08
  Q 350.09 456.40 352.90 453.54
  C 356.80 449.57 359.86 445.15 363.17 440.81
  Q 366.33 436.66 368.46 432.81
  Q 374.85 421.20 377.10 414.41
  Q 380.64 403.76 381.86 392.87
  C 382.66 385.73 381.53 378.50 380.45 371.35
  Q 380.45 371.33 379.84 365.12
  Q 379.44 360.98 377.86 357.07
  L 373.82 345.93
  L 370.84 339.19
  Q 370.60 338.65 371.02 338.23
  L 371.28 337.97
  A 0.41 0.40 -37.3 0 1 371.92 338.05
  L 373.33 340.45
  Z"
/>
<path fill="#147abc" d="
  M 246.33 400.13
  Q 247.69 401.24 248.64 402.72
  Q 249.34 403.80 252.01 405.28
  Q 253.36 406.02 254.36 407.34
  C 255.27 408.53 256.51 409.09 257.53 410.09
  Q 259.75 412.26 261.96 414.41
  Q 263.19 415.59 264.61 416.66
  Q 266.31 417.93 267.29 419.75
  Q 267.56 420.26 268.10 420.49
  Q 269.37 421.03 270.21 422.08
  Q 271.08 423.15 272.27 423.88
  Q 275.71 425.99 278.54 428.86
  Q 279.29 429.63 280.13 430.11
  C 281.38 430.82 282.71 431.45 283.73 432.47
  Q 284.53 433.27 285.70 433.31
  Q 286.04 433.33 286.25 433.59
  Q 286.37 433.73 286.39 433.91
  Q 286.42 434.16 286.64 434.27
  Q 292.56 437.23 299.02 438.16
  Q 299.67 438.25 299.15 437.86
  Q 299.10 437.83 299.05 437.84
  Q 298.73 437.91 298.46 437.72
  Q 298.33 437.63 298.29 437.46
  Q 298.19 437.09 298.56 437.20
  Q 300.70 437.87 303.05 438.18
  Q 303.47 438.24 303.83 438.43
  Q 303.99 438.51 304.11 438.64
  A 0.88 0.88 0.0 0 0 304.97 438.91
  Q 305.81 438.71 306.36 439.37
  Q 306.68 439.77 307.19 439.83
  L 311.51 440.39
  Q 317.92 453.99 318.71 471.50
  Q 318.98 477.68 318.54 481.45
  Q 318.02 485.79 317.99 486.57
  C 317.92 488.85 317.97 491.21 317.51 493.45
  Q 316.92 496.35 316.26 499.55
  Q 315.59 502.83 314.57 505.54
  Q 309.39 519.33 301.45 530.59
  Q 297.64 535.99 291.95 542.65
  C 284.44 551.43 275.69 558.59 266.45 566.24
  Q 265.54 566.99 265.92 567.82
  Q 264.07 568.68 262.10 568.51
  Q 262.37 560.97 261.42 557.30
  Q 259.34 549.30 258.14 541.13
  C 257.66 537.92 256.71 534.37 255.61 531.88
  Q 250.51 520.43 244.56 509.41
  Q 243.23 506.94 241.69 504.81
  Q 241.67 503.17 242.12 502.48
  Q 242.40 502.06 242.23 501.59
  Q 242.10 501.24 241.72 501.10
  Q 241.25 500.92 241.19 500.42
  Q 241.12 499.78 240.50 499.46
  Q 239.82 499.11 240.31 498.52
  Q 240.50 498.30 240.77 498.14
  A 0.82 0.82 0.0 0 0 241.14 497.26
  Q 241.06 496.89 240.67 496.88
  Q 240.03 496.87 240.18 496.24
  Q 240.37 495.48 241.07 495.19
  Q 241.62 494.95 241.64 494.36
  L 241.91 488.72
  Q 241.93 488.11 241.71 487.53
  Q 241.35 486.63 241.85 485.86
  Q 242.15 485.39 241.75 485.01
  Q 240.84 484.14 240.52 482.89
  Q 240.41 482.43 240.13 482.81
  Q 239.90 483.11 239.28 482.41
  A 0.82 0.81 -60.0 0 1 239.09 481.69
  Q 239.50 479.80 238.06 478.90
  Q 237.70 478.68 237.52 478.29
  C 237.15 477.48 237.03 476.75 236.48 476.02
  Q 235.46 474.66 235.43 472.66
  C 235.42 471.54 234.95 470.33 234.01 469.67
  Q 231.72 468.07 232.34 465.20
  Q 232.45 464.67 231.94 464.84
  Q 230.83 465.20 230.21 464.20
  Q 229.86 463.64 229.49 463.14
  Q 228.55 461.89 228.58 460.09
  Q 228.59 459.60 228.33 459.19
  Q 227.31 457.60 226.88 455.72
  Q 226.77 455.21 226.38 454.87
  Q 226.00 454.54 226.18 454.07
  Q 226.31 453.72 226.27 453.35
  C 226.14 452.17 225.68 450.63 226.17 449.53
  Q 226.78 448.16 226.74 446.40
  Q 226.70 444.91 225.94 443.56
  Q 223.70 439.60 221.92 435.23
  Q 220.59 431.93 219.39 429.29
  Q 218.08 426.41 216.84 423.51
  Q 216.63 423.00 216.92 422.53
  Q 217.22 422.05 217.26 421.46
  Q 217.29 421.00 217.03 420.62
  Q 216.09 419.24 216.48 417.82
  Q 216.59 417.40 216.22 417.18
  Q 215.70 416.88 215.94 416.36
  Q 216.09 416.04 216.44 415.93
  Q 216.49 415.91 216.53 415.88
  Q 216.65 415.75 216.55 415.60
  Q 214.99 413.28 214.13 410.91
  Q 214.02 410.61 213.73 410.47
  Q 213.43 410.32 213.25 410.04
  L 209.19 403.40
  A 0.66 0.59 -68.3 0 1 209.11 403.18
  Q 209.09 403.00 209.14 402.84
  Q 209.22 402.58 208.99 402.43
  C 208.01 401.74 207.13 401.11 206.60 399.97
  Q 206.02 398.73 205.40 397.49
  C 204.83 396.36 203.90 396.11 202.95 395.44
  Q 202.78 395.33 202.83 395.13
  L 202.96 394.60
  Q 203.08 394.13 203.44 394.44
  Q 204.28 395.16 204.77 396.03
  Q 204.87 396.20 205.07 396.20
  L 206.38 396.16
  Q 206.51 396.16 206.46 396.04
  Q 205.87 394.72 204.62 394.26
  Q 204.03 394.03 203.89 393.41
  L 203.80 392.99
  Q 203.67 392.38 204.20 392.71
  Q 209.32 395.81 213.77 399.77
  Q 214.69 400.58 213.93 399.65
  Q 213.79 399.49 213.60 399.39
  A 1.52 1.47 -2.5 0 1 212.97 398.83
  Q 211.22 395.96 209.21 393.86
  Q 207.62 392.19 206.23 390.30
  Q 204.83 388.41 203.41 386.50
  Q 202.29 384.99 203.78 386.13
  Q 205.83 387.70 208.09 390.19
  A 0.04 0.04 0.0 0 0 208.16 390.16
  Q 208.14 390.02 208.14 389.89
  Q 208.14 389.83 208.10 389.79
  Q 204.59 385.29 199.55 382.57
  Q 199.09 382.32 198.79 381.88
  Q 198.18 380.97 197.17 380.54
  Q 196.65 380.32 196.66 379.75
  Q 196.67 379.17 196.08 379.32
  Q 195.27 379.54 194.66 378.96
  Q 192.26 376.69 190.94 373.74
  Q 190.59 372.96 191.22 373.54
  L 194.71 376.75
  Q 195.33 377.33 195.09 376.51
  Q 194.90 375.86 194.41 375.61
  Q 192.57 374.65 192.10 372.97
  Q 191.91 372.27 192.44 372.77
  Q 195.71 375.86 199.97 378.85
  A 1.66 1.59 -25.9 0 0 200.87 379.14
  L 201.55 379.15
  Q 202.03 379.16 202.42 379.45
  Q 204.05 380.72 205.56 381.91
  Q 206.41 382.58 207.11 383.42
  Q 207.99 384.46 209.18 385.17
  C 210.35 385.87 210.52 387.06 211.57 387.83
  Q 213.16 389.02 214.61 390.53
  Q 216.00 391.98 217.69 393.07
  Q 219.46 394.22 220.80 395.87
  Q 220.90 395.99 221.02 395.89
  L 221.02 395.89
  Q 221.20 395.74 221.03 395.57
  Q 218.91 393.43 216.12 391.19
  Q 216.05 391.13 216.11 391.05
  L 216.30 390.80
  Q 216.51 390.52 216.77 390.75
  Q 220.92 394.35 225.28 398.35
  Q 226.07 399.08 227.02 399.67
  Q 227.90 400.21 228.70 400.97
  Q 231.78 403.89 236.53 406.97
  Q 236.79 407.14 236.84 406.83
  Q 236.89 406.57 237.07 406.66
  Q 237.81 407.02 237.18 406.49
  Q 234.89 404.58 232.56 402.99
  Q 232.35 402.84 232.49 402.63
  L 232.68 402.35
  Q 232.77 402.22 232.89 402.31
  L 239.05 407.04
  Q 239.36 407.27 239.10 406.98
  Q 238.71 406.54 238.56 405.96
  A 0.63 0.63 0.0 0 0 238.39 405.65
  L 234.50 401.69
  Q 234.18 401.36 233.73 401.26
  Q 233.08 401.11 232.78 400.41
  Q 232.43 399.61 233.17 400.08
  C 234.84 401.14 237.00 402.16 238.46 403.55
  Q 239.23 404.30 240.11 404.92
  Q 240.73 405.35 240.23 404.79
  Q 240.00 404.54 239.96 404.23
  Q 239.88 403.74 239.50 403.42
  Q 237.40 401.67 235.57 400.17
  Q 235.39 400.03 235.52 399.84
  L 235.53 399.83
  Q 235.65 399.64 235.86 399.75
  Q 239.65 401.90 242.90 404.91
  Q 243.37 405.35 243.02 404.80
  Q 242.76 404.40 242.39 404.08
  Q 240.02 402.11 237.73 399.95
  Q 237.58 399.81 237.71 399.65
  L 237.71 399.65
  Q 237.84 399.49 238.00 399.60
  Q 239.73 400.78 241.48 402.04
  Q 241.61 402.13 241.76 402.13
  Q 241.90 402.13 242.01 402.16
  A 0.03 0.03 0.0 0 0 242.03 402.11
  Q 241.64 401.95 241.61 401.64
  Q 241.56 401.16 241.97 401.42
  Q 242.21 401.58 242.47 401.68
  Q 243.38 402.06 242.89 401.20
  Q 242.12 399.84 240.59 399.55
  A 0.06 0.05 25.3 0 1 240.55 399.46
  Q 240.69 399.31 240.60 399.16
  Q 240.57 399.12 240.52 399.09
  Q 236.32 396.34 232.68 392.55
  Q 232.09 391.94 232.90 392.21
  Q 234.63 392.79 235.79 393.81
  Q 237.09 394.97 238.61 396.02
  Q 239.00 396.29 239.24 396.68
  Q 239.87 397.70 240.95 398.15
  A 1.61 1.57 -3.5 0 1 241.67 398.77
  Q 242.41 399.98 243.58 400.79
  Q 244.92 401.73 243.85 400.49
  Q 241.24 397.49 237.97 395.16
  Q 235.90 393.68 233.00 390.31
  Q 232.50 389.72 233.22 390.00
  Q 233.71 390.18 234.03 390.54
  Q 235.13 391.77 236.75 392.20
  Q 236.98 392.26 237.11 392.44
  Q 237.15 392.50 237.13 392.57
  Q 237.06 392.75 237.21 392.87
  Q 239.13 394.52 241.15 396.05
  Q 241.67 396.44 243.59 398.23
  Q 244.80 399.36 246.33 400.13
  Z"
/>
<path fill="#949393" d="
  M 134.68 404.00
  Q 127.30 399.44 121.43 392.80
  L 134.68 404.00
  Z"
/>
<path fill="#949393" d="
  M 138.91 407.27
  Q 152.11 418.12 165.29 428.79
  Q 167.95 430.95 170.82 433.58
  Q 173.71 436.23 176.43 438.32
  Q 186.89 446.37 194.58 453.71
  Q 201.41 460.23 207.99 466.22
  Q 216.94 474.38 222.51 480.50
  Q 230.71 489.49 241.69 504.81
  Q 243.23 506.94 244.56 509.41
  Q 250.51 520.43 255.61 531.88
  C 256.71 534.37 257.66 537.92 258.14 541.13
  Q 259.34 549.30 261.42 557.30
  Q 262.37 560.97 262.10 568.51
  Q 260.71 569.08 259.63 568.54
  Q 259.13 568.30 259.22 567.75
  Q 260.41 559.88 259.01 552.79
  Q 258.01 547.71 257.40 542.78
  Q 256.52 535.66 252.79 527.69
  C 248.25 517.97 244.03 508.46 237.40 500.13
  C 231.57 492.80 225.93 484.96 219.65 478.47
  Q 212.00 470.55 203.06 462.34
  Q 201.74 461.13 200.32 459.85
  Q 196.06 456.04 191.51 451.71
  Q 186.98 447.39 182.68 443.99
  Q 174.45 437.49 166.12 430.21
  Q 159.55 424.48 153.33 420.33
  C 151.59 419.18 150.35 417.38 148.78 416.20
  Q 142.62 411.57 138.91 407.27
  Z"
/>
</svg>
