<?xml version="1.0" encoding="UTF-8" standalone="no"?>
<!DOCTYPE svg PUBLIC "-//W3C//DTD SVG 1.1//EN" "http://www.w3.org/Graphics/SVG/1.1/DTD/svg11.dtd">
<svg xmlns="http://www.w3.org/2000/svg" version="1.1" viewBox="0.00 0.00 443.00 417.00">
<path fill="#3da7e1" d="
  M 291.39 95.25
  C 275.27 78.81 275.94 52.37 292.06 35.96
  Q 304.49 23.31 321.66 6.48
  A 0.46 0.45 -44.6 0 1 322.31 6.48
  Q 335.61 19.79 350.40 34.52
  Q 364.57 48.65 364.23 66.99
  C 363.81 90.21 343.78 109.27 320.47 108.28
  Q 303.45 107.55 291.39 95.25
  Z"
/>
<path fill="#d78eac" d="
  M 430.38 120.95
  C 421.32 146.23 395.57 164.02 368.55 163.41
  Q 343.37 162.84 324.82 145.48
  Q 310.41 132.00 305.63 111.36
  Q 305.47 110.68 306.14 110.86
  C 309.37 111.70 312.52 112.79 315.93 113.13
  Q 338.87 115.42 355.25 99.66
  C 363.54 91.69 368.44 80.90 369.22 69.50
  Q 370.36 52.93 360.96 39.25
  C 357.83 34.70 353.68 30.91 349.96 26.98
  A 1.11 1.10 -44.4 0 1 349.98 25.43
  L 369.06 6.36
  A 0.49 0.49 0.0 0 1 369.74 6.36
  Q 389.52 26.34 410.30 46.83
  C 417.03 53.46 423.66 60.82 427.79 69.53
  Q 439.76 94.79 430.38 120.95
  Z"
/>
<path fill="#000" d="
  M 90.79 202.02
  C 99.55 205.31 99.35 214.00 98.20 221.88
  Q 97.22 228.50 98.32 234.75
  Q 98.58 236.25 97.06 236.25
  L 92.94 236.24
  A 1.93 1.93 0.0 0 1 91.01 234.28
  C 91.07 230.67 90.69 227.09 91.17 223.47
  C 92.35 214.64 93.22 203.93 80.69 203.97
  Q 68.40 204.01 55.33 203.99
  A 0.47 0.46 5.2 0 0 54.87 204.37
  L 49.24 236.03
  A 0.27 0.26 5.2 0 1 48.98 236.24
  L 42.59 236.24
  A 0.28 0.27 -85.5 0 1 42.32 235.92
  L 54.97 164.46
  A 1.45 1.45 0.0 0 1 56.40 163.26
  Q 71.84 163.24 84.75 163.30
  C 92.40 163.34 101.75 164.00 105.67 171.89
  C 111.98 184.60 104.73 198.74 90.86 201.26
  Q 89.46 201.52 90.79 202.02
  Z
  M 82.19 197.99
  C 93.36 197.95 101.85 191.97 100.76 179.67
  Q 99.88 169.81 89.51 169.50
  Q 75.63 169.09 62.23 169.28
  A 1.49 1.48 -85.5 0 0 60.79 170.52
  L 56.04 197.72
  Q 55.99 198.00 56.28 198.00
  Q 69.63 198.02 82.19 197.99
  Z"
/>
<path fill="#000" d="
  M 266.64 230.25
  L 308.44 230.25
  A 0.57 0.57 0.0 0 1 308.99 230.95
  L 307.90 235.81
  A 0.57 0.57 0.0 0 1 307.34 236.25
  L 258.73 236.26
  A 0.57 0.57 0.0 0 1 258.17 235.59
  L 270.83 163.72
  A 0.57 0.57 0.0 0 1 271.39 163.25
  L 321.71 163.24
  A 0.57 0.57 0.0 0 1 322.27 163.93
  L 321.19 168.80
  A 0.57 0.57 0.0 0 1 320.63 169.25
  L 277.24 169.25
  A 0.57 0.57 0.0 0 0 276.68 169.72
  L 272.20 195.08
  A 0.57 0.57 0.0 0 0 272.76 195.75
  L 312.02 195.75
  A 0.57 0.57 0.0 0 1 312.58 196.45
  L 311.49 201.07
  A 0.57 0.57 0.0 0 1 310.94 201.51
  L 271.56 201.51
  A 0.57 0.57 0.0 0 0 271.00 201.98
  L 266.08 229.58
  A 0.57 0.57 0.0 0 0 266.64 230.25
  Z"
/>
<path fill="#000" d="
  M 125.67 230.25
  L 167.59 230.25
  A 0.48 0.48 0.0 0 1 168.06 230.83
  L 166.95 235.87
  A 0.48 0.48 0.0 0 1 166.48 236.25
  L 117.69 236.25
  A 0.48 0.48 0.0 0 1 117.22 235.69
  L 129.86 163.90
  A 0.48 0.48 0.0 0 1 130.33 163.50
  L 180.88 163.50
  A 0.48 0.48 0.0 0 1 181.35 164.09
  L 180.26 168.87
  A 0.48 0.48 0.0 0 1 179.80 169.24
  L 136.22 169.25
  A 0.48 0.48 0.0 0 0 135.75 169.65
  L 131.24 195.18
  A 0.48 0.48 0.0 0 0 131.71 195.74
  L 171.18 195.75
  A 0.48 0.48 0.0 0 1 171.65 196.34
  L 170.53 201.12
  A 0.48 0.48 0.0 0 1 170.06 201.49
  L 130.54 201.52
  A 0.48 0.48 0.0 0 0 130.07 201.92
  L 125.20 229.69
  A 0.48 0.48 0.0 0 0 125.67 230.25
  Z"
/>
<path fill="#000" d="
  M 234.01 164.85
  C 248.13 168.99 251.55 182.78 250.70 195.76
  Q 249.80 209.39 243.27 219.22
  Q 232.04 236.13 210.96 236.23
  Q 198.10 236.30 184.63 236.22
  A 0.65 0.65 0.0 0 1 183.99 235.46
  L 196.59 164.14
  A 0.72 0.72 0.0 0 1 197.30 163.54
  Q 212.21 163.38 225.98 163.60
  Q 229.98 163.67 234.01 164.85
  Z
  M 218.19 229.54
  C 235.61 225.89 243.57 208.84 243.91 192.02
  C 244.18 178.79 237.64 169.67 223.55 169.53
  Q 213.54 169.44 203.23 169.52
  A 0.85 0.85 0.0 0 0 202.39 170.23
  L 191.94 229.51
  A 0.68 0.67 -85.8 0 0 192.62 230.30
  Q 199.36 230.12 205.81 230.30
  Q 213.59 230.51 218.19 229.54
  Z"
/>
<path fill="#000" d="
  M 400.65 286.36
  C 392.26 308.43 372.22 320.12 348.73 315.92
  C 334.61 313.40 326.68 303.49 325.92 289.29
  Q 325.36 279.03 328.83 269.78
  Q 338.47 244.03 366.94 240.45
  Q 373.17 239.66 380.68 241.24
  C 402.53 245.85 407.73 267.74 400.65 286.36
  Z
  M 376.33 261.50
  C 370.21 254.90 360.01 258.48 355.58 265.15
  Q 348.70 275.48 350.09 288.76
  C 350.57 293.35 353.10 297.67 358.04 298.68
  C 368.62 300.84 375.03 292.78 377.66 283.78
  Q 379.31 278.12 379.59 271.95
  Q 379.89 265.34 376.33 261.50
  Z"
/>
<path fill="#000" d="
  M 56.55 292.66
  Q 56.40 292.85 56.26 293.05
  Q 56.12 293.24 56.08 293.47
  Q 54.29 303.71 52.41 314.27
  A 0.90 0.89 5.0 0 1 51.53 315.00
  L 29.09 315.00
  Q 28.41 315.00 28.53 314.33
  L 41.13 242.99
  A 1.14 1.13 4.3 0 1 42.23 242.05
  Q 62.24 241.78 82.15 242.44
  Q 88.19 242.64 94.46 246.01
  C 104.79 251.56 104.99 262.82 101.27 272.76
  Q 96.90 284.44 85.96 289.02
  C 77.01 292.78 67.48 292.45 57.60 292.18
  A 1.31 1.30 -69.2 0 0 56.55 292.66
  Z
  M 80.17 266.52
  C 81.37 258.19 67.72 258.55 62.76 259.33
  A 1.07 1.06 -89.6 0 0 61.88 260.20
  L 59.43 274.51
  A 0.60 0.60 0.0 0 0 60.00 275.21
  Q 65.02 275.34 70.04 275.13
  Q 78.97 274.75 80.17 266.52
  Z"
/>
<path fill="#000" d="
  M 130.83 298.01
  L 166.31 298.00
  A 0.60 0.60 0.0 0 1 166.90 298.71
  L 164.06 314.51
  A 0.60 0.60 0.0 0 1 163.47 315.00
  L 103.95 315.00
  A 0.60 0.60 0.0 0 1 103.35 314.30
  L 116.01 242.51
  A 0.60 0.60 0.0 0 1 116.60 242.01
  L 174.74 242.02
  A 0.60 0.60 0.0 0 1 175.34 242.72
  L 172.55 258.50
  A 0.60 0.60 0.0 0 1 171.96 259.00
  L 137.45 259.00
  A 0.60 0.60 0.0 0 0 136.86 259.49
  L 135.17 268.79
  A 0.60 0.60 0.0 0 0 135.76 269.50
  L 164.45 269.50
  A 0.60 0.60 0.0 0 1 165.04 270.20
  L 162.27 286.00
  A 0.60 0.60 0.0 0 1 161.68 286.50
  L 132.64 286.50
  A 0.60 0.60 0.0 0 0 132.05 287.00
  L 130.24 297.31
  A 0.60 0.60 0.0 0 0 130.83 298.01
  Z"
/>
<path fill="#000" d="
  M 224.66 261.71
  L 215.31 314.53
  A 0.56 0.56 0.0 0 1 214.76 314.99
  L 192.10 315.00
  A 0.56 0.56 0.0 0 1 191.55 314.34
  L 200.79 261.90
  A 0.56 0.56 0.0 0 0 200.24 261.24
  L 180.09 261.25
  A 0.56 0.56 0.0 0 1 179.54 260.59
  L 182.78 242.47
  A 0.56 0.56 0.0 0 1 183.33 242.01
  L 248.90 242.01
  A 0.56 0.56 0.0 0 1 249.45 242.67
  L 246.33 260.77
  A 0.56 0.56 0.0 0 1 245.78 261.23
  L 225.21 261.25
  A 0.56 0.56 0.0 0 0 224.66 261.71
  Z"
/>
<path fill="#000" d="
  M 305.53 280.44
  A 0.36 0.36 0.0 0 0 305.55 281.12
  C 313.99 283.78 315.19 289.50 313.90 297.54
  Q 312.93 303.56 312.04 309.26
  Q 311.69 311.53 313.41 312.89
  A 0.87 0.86 -57.3 0 1 313.64 313.97
  Q 313.13 314.97 312.03 314.98
  Q 301.50 315.03 289.88 314.98
  A 0.72 0.72 0.0 0 1 289.16 314.21
  C 289.34 310.99 289.43 307.80 289.94 304.61
  C 290.92 298.60 293.13 290.14 283.70 289.84
  Q 278.53 289.67 273.24 289.79
  A 0.97 0.97 0.0 0 0 272.31 290.59
  L 268.21 313.99
  A 1.22 1.21 4.7 0 1 267.01 315.00
  L 244.98 314.99
  A 0.67 0.66 5.0 0 1 244.32 314.21
  L 256.91 242.75
  A 0.59 0.59 0.0 0 1 257.48 242.27
  Q 277.28 242.15 297.90 242.30
  C 306.82 242.37 320.37 245.50 320.42 256.96
  Q 320.44 262.26 318.69 267.21
  Q 315.32 276.70 305.53 280.44
  Z
  M 276.31 273.74
  C 283.28 273.75 299.01 275.43 297.15 263.48
  C 296.77 261.05 294.15 259.84 291.94 259.52
  C 287.57 258.88 283.03 258.80 278.66 259.30
  A 1.18 1.18 0.0 0 0 277.63 260.27
  L 275.45 272.72
  A 0.87 0.87 0.0 0 0 276.31 273.74
  Z"
/>
<path fill="#000" d="
  M 353.71 384.62
  C 358.73 382.97 361.14 377.34 354.70 375.03
  Q 348.92 372.95 342.42 371.47
  C 331.93 369.07 319.19 363.71 320.03 350.56
  C 321.39 329.32 341.96 322.48 359.96 322.98
  C 374.54 323.38 385.54 330.02 386.10 346.06
  A 0.91 0.90 89.1 0 1 385.20 347.00
  L 363.52 347.00
  A 1.01 1.00 -17.6 0 1 362.70 346.58
  C 362.03 345.68 362.04 344.53 361.38 343.61
  C 358.58 339.65 351.37 339.93 347.59 341.52
  C 342.69 343.59 344.67 348.67 348.73 349.89
  Q 357.87 352.66 367.68 355.61
  C 377.20 358.48 384.85 365.15 383.06 376.15
  C 380.31 393.08 367.81 400.24 351.77 402.66
  C 340.27 404.39 326.53 403.09 318.29 394.17
  Q 312.59 388.00 313.19 378.48
  Q 313.23 377.75 313.96 377.75
  L 336.22 377.75
  Q 336.77 377.75 337.06 378.22
  C 337.71 379.26 337.68 380.56 338.39 381.58
  C 341.86 386.56 348.53 386.33 353.71 384.62
  Z"
/>
<path fill="#d78eac" d="
  M 12.84 398.58
  L 25.78 327.13
  A 0.77 0.77 0.0 0 1 26.53 326.50
  L 91.55 326.50
  A 0.77 0.77 0.0 0 1 92.31 327.40
  L 79.70 398.86
  A 0.77 0.77 0.0 0 1 78.94 399.50
  L 13.60 399.49
  A 0.77 0.77 0.0 0 1 12.84 398.58
  Z"
/>
<path fill="#3da7e1" d="
  M 199.00 399.51
  L 89.28 399.52
  A 0.78 0.78 0.0 0 1 88.51 398.60
  L 101.10 327.14
  A 0.78 0.78 0.0 0 1 101.86 326.50
  L 212.29 326.50
  A 0.78 0.78 0.0 0 1 213.06 327.42
  L 199.77 398.87
  A 0.78 0.78 0.0 0 1 199.00 399.51
  Z"
/>
<path fill="#000" d="
  M 261.83 354.00
  L 296.62 354.01
  A 0.65 0.65 0.0 0 1 297.26 354.77
  L 294.51 370.46
  A 0.65 0.65 0.0 0 1 293.87 371.00
  L 258.75 371.00
  A 0.65 0.65 0.0 0 0 258.11 371.53
  L 256.23 381.74
  A 0.65 0.65 0.0 0 0 256.87 382.51
  L 298.49 382.50
  A 0.65 0.65 0.0 0 1 299.13 383.27
  L 296.32 398.95
  A 0.65 0.65 0.0 0 1 295.68 399.49
  L 230.00 399.50
  A 0.65 0.65 0.0 0 1 229.36 398.74
  L 242.01 327.04
  A 0.65 0.65 0.0 0 1 242.65 326.50
  L 306.94 326.50
  A 0.65 0.65 0.0 0 1 307.58 327.26
  L 304.80 342.95
  A 0.65 0.65 0.0 0 1 304.16 343.49
  L 263.50 343.50
  A 0.65 0.65 0.0 0 0 262.86 344.03
  L 261.19 353.23
  A 0.65 0.65 0.0 0 0 261.83 354.00
  Z"
/>
</svg>
