<?xml version="1.0" encoding="UTF-8" standalone="no"?>
<!DOCTYPE svg PUBLIC "-//W3C//DTD SVG 1.1//EN" "http://www.w3.org/Graphics/SVG/1.1/DTD/svg11.dtd">
<svg xmlns="http://www.w3.org/2000/svg" version="1.1" viewBox="0.00 0.00 1280.00 1100.00">
<path fill="#fefefe" d="
  M 639.28 443.90
  Q 610.22 522.14 547.70 577.61
  C 493.99 625.26 426.53 653.08 355.61 658.82
  C 314.51 662.15 270.59 657.59 230.28 644.54
  Q 134.16 613.44 70.85 534.16
  Q 64.73 526.49 59.03 518.20
  Q 1.40 434.34 0.19 332.22
  Q 0.06 321.75 0.69 311.89
  Q 7.57 202.82 76.64 119.21
  Q 109.97 78.85 157.46 49.18
  Q 166.03 43.82 174.87 39.19
  Q 269.54 -10.41 375.57 3.78
  C 487.54 18.76 584.33 92.60 630.61 195.16
  Q 634.90 204.65 639.32 216.51
  Q 639.66 217.42 640.00 216.51
  C 642.73 209.28 645.47 202.21 648.64 195.25
  Q 685.14 115.13 756.26 63.11
  C 815.45 19.82 887.21 -1.28 960.24 0.79
  C 997.90 1.85 1037.13 9.77 1072.83 24.43
  Q 1164.34 62.02 1221.18 143.49
  Q 1226.74 151.47 1231.99 160.27
  C 1268.74 221.91 1285.05 293.25 1277.27 365.21
  C 1269.19 439.87 1236.44 508.77 1183.80 562.01
  C 1132.34 614.07 1065.56 647.23 992.57 657.06
  Q 982.41 658.43 972.51 659.06
  Q 867.56 665.68 778.06 611.85
  Q 769.80 606.89 761.57 601.09
  Q 676.76 541.38 639.88 443.89
  Q 639.58 443.09 639.28 443.90
  Z
  M 1060.69 55.63
  L 998.71 55.63
  A 0.31 0.31 0.0 0 0 998.42 56.06
  L 1006.36 74.36
  A 0.56 0.54 77.3 0 0 1006.86 74.69
  L 1021.52 74.66
  A 0.64 0.62 -14.5 0 1 1022.07 74.97
  L 1035.93 98.88
  A 1.00 0.99 74.7 0 0 1036.79 99.38
  L 1046.55 99.35
  Q 1046.93 99.35 1047.11 99.69
  L 1074.24 149.02
  Q 1074.50 149.48 1075.03 149.48
  L 1082.23 149.49
  Q 1082.74 149.49 1082.90 149.01
  Q 1087.88 133.69 1092.87 118.03
  Q 1093.47 116.15 1094.94 114.69
  Q 1105.06 104.61 1114.67 94.98
  Q 1114.97 94.68 1114.70 94.35
  Q 1099.97 76.47 1085.03 58.37
  Q 1082.55 55.35 1079.38 53.08
  Q 1070.34 46.61 1061.76 40.21
  A 0.32 0.32 0.0 0 0 1061.25 40.46
  L 1061.25 55.06
  Q 1061.25 55.63 1060.69 55.63
  Z
  M 470.53 140.55
  L 458.22 157.19
  A 1.27 1.27 0.0 0 0 458.00 158.23
  L 461.31 172.76
  A 0.34 0.34 0.0 0 0 461.91 172.89
  L 488.34 138.12
  Q 488.72 137.63 488.43 137.08
  L 483.34 127.55
  A 0.41 0.40 -14.0 0 1 483.70 126.96
  L 557.46 126.96
  Q 559.65 126.96 557.62 126.14
  Q 554.44 124.85 551.04 123.28
  Q 548.58 122.14 545.87 122.03
  Q 532.50 121.50 519.15 120.76
  Q 518.73 120.74 518.39 120.51
  Q 513.93 117.59 509.30 114.45
  Q 508.03 113.60 506.43 113.52
  Q 471.92 111.82 437.00 110.06
  Q 436.43 110.03 436.21 109.51
  L 433.12 102.36
  Q 432.86 101.77 432.23 101.77
  L 342.97 101.77
  Q 342.64 101.77 342.46 101.50
  L 329.76 83.29
  Q 329.41 82.79 328.80 82.79
  L 228.89 82.79
  A 0.71 0.71 0.0 0 0 228.29 83.12
  L 204.78 120.31
  A 0.97 0.95 15.6 0 1 203.96 120.76
  L 177.72 120.76
  A 0.62 0.62 0.0 0 0 177.14 121.16
  L 165.63 151.52
  A 0.32 0.31 27.2 0 1 165.16 151.67
  L 144.74 138.07
  Q 144.17 137.69 144.85 137.69
  L 156.53 137.66
  A 0.28 0.28 0.0 0 0 156.79 137.27
  L 148.97 119.26
  Q 148.69 118.63 148.01 118.63
  L 122.02 118.63
  Q 121.46 118.63 121.12 119.08
  L 87.04 164.39
  Q 86.73 164.81 86.69 165.33
  L 85.70 181.11
  Q 85.67 181.65 85.93 182.13
  L 91.61 192.15
  A 0.19 0.19 0.0 0 0 91.93 192.16
  L 97.28 184.17
  A 0.23 0.22 47.7 0 1 97.67 184.19
  L 105.50 200.22
  A 0.25 0.24 44.4 0 0 105.94 200.22
  L 114.19 181.98
  Q 114.35 181.64 114.12 181.34
  L 108.57 173.82
  Q 108.26 173.41 108.50 172.95
  L 124.94 141.47
  A 0.11 0.11 0.0 0 1 125.14 141.48
  L 129.57 151.67
  Q 129.68 151.93 129.58 152.19
  L 121.66 172.85
  Q 121.44 173.42 121.73 173.94
  L 126.92 183.32
  Q 127.19 183.81 127.75 183.75
  L 145.53 181.73
  Q 146.14 181.67 146.14 182.28
  L 146.14 193.94
  Q 146.14 194.52 145.65 194.82
  L 119.49 211.00
  Q 119.03 211.28 118.49 211.28
  L 98.04 211.28
  Q 97.49 211.28 97.20 210.81
  L 89.42 198.32
  A 0.16 0.15 -46.7 0 0 89.15 198.33
  L 86.83 202.94
  Q 86.73 203.14 86.83 203.33
  L 91.40 211.78
  Q 91.72 212.37 91.04 212.38
  L 86.26 212.40
  Q 85.66 212.40 85.43 212.95
  L 77.67 230.84
  A 0.91 0.91 0.0 0 1 76.84 231.38
  L 50.44 231.37
  A 0.33 0.32 -15.6 0 0 50.16 231.86
  L 59.24 246.67
  Q 59.51 247.11 59.51 247.63
  L 59.51 260.51
  Q 59.51 261.03 58.99 261.03
  L 37.33 261.03
  A 0.25 0.25 0.0 0 0 37.09 261.35
  C 37.88 264.29 39.31 267.21 38.90 270.44
  Q 37.95 277.94 37.05 285.57
  A 1.00 1.00 0.0 0 0 37.49 286.52
  L 50.74 295.45
  Q 51.29 295.82 50.82 296.29
  L 23.44 323.67
  Q 22.69 324.42 22.69 325.48
  L 22.70 370.14
  Q 22.70 370.66 23.03 371.06
  L 40.29 391.76
  A 0.84 0.84 0.0 0 0 41.03 392.06
  L 85.16 387.52
  Q 85.68 387.47 86.00 387.88
  L 93.50 397.68
  Q 93.88 398.17 93.47 398.64
  L 87.01 406.07
  Q 86.72 406.40 86.90 406.80
  L 101.91 440.30
  A 1.38 1.37 -49.6 0 1 101.98 441.25
  L 91.89 476.04
  Q 91.74 476.56 92.03 477.02
  L 118.79 520.33
  A 0.61 0.60 73.5 0 0 119.30 520.61
  L 145.79 520.62
  A 0.66 0.65 11.6 0 0 146.39 520.23
  Q 152.54 506.17 159.06 491.74
  Q 160.58 488.37 160.93 485.38
  Q 161.81 477.75 162.78 470.19
  Q 163.04 468.21 164.12 466.42
  Q 171.97 453.48 179.26 441.06
  Q 179.49 440.69 179.44 440.25
  L 177.38 422.17
  Q 177.34 421.82 177.61 421.59
  Q 189.47 411.81 201.62 401.87
  Q 203.52 400.32 204.69 398.06
  Q 211.01 385.88 217.46 373.79
  A 0.46 0.45 13.9 0 0 217.05 373.12
  L 190.78 373.12
  Q 190.20 373.12 189.84 372.68
  Q 181.23 362.38 173.03 352.72
  Q 171.22 350.58 170.35 348.11
  Q 163.86 329.55 157.18 310.88
  Q 156.92 310.16 157.68 310.26
  L 173.23 312.24
  Q 173.71 312.30 173.94 312.73
  L 198.66 358.61
  A 0.27 0.26 -27.1 0 0 199.01 358.72
  L 227.76 343.81
  Q 228.53 343.42 227.98 342.75
  L 223.93 337.82
  Q 223.47 337.27 222.76 337.27
  L 215.79 337.27
  Q 215.25 337.27 215.01 336.78
  L 195.56 297.56
  Q 195.27 296.96 195.93 296.96
  L 209.14 296.94
  A 0.59 0.58 77.2 0 1 209.67 297.28
  L 223.26 326.20
  A 0.74 0.73 77.1 0 0 223.92 326.62
  L 240.77 326.62
  Q 241.34 326.62 241.51 327.16
  Q 244.99 338.17 248.48 349.63
  Q 249.85 354.14 252.45 359.00
  Q 261.19 375.39 269.79 391.71
  A 0.26 0.25 -44.7 0 0 270.24 391.71
  L 293.46 348.43
  Q 293.64 348.08 294.04 348.08
  L 305.24 348.08
  Q 305.81 348.08 306.01 348.61
  Q 307.64 352.98 309.57 357.60
  Q 310.47 359.77 310.47 362.09
  Q 310.43 384.90 310.45 407.12
  Q 310.45 408.99 311.41 410.86
  Q 313.19 414.33 314.61 417.76
  C 316.83 423.13 320.84 427.26 324.18 431.91
  Q 324.76 432.71 324.76 431.72
  L 324.76 417.71
  A 2.03 2.01 27.8 0 0 324.40 416.56
  L 316.83 405.72
  Q 316.53 405.29 316.53 404.76
  L 316.53 371.54
  Q 316.53 370.69 316.87 371.48
  L 327.06 395.24
  A 0.44 0.44 0.0 0 0 327.70 395.44
  L 345.73 384.21
  Q 346.25 383.89 346.25 383.27
  L 346.25 367.54
  Q 346.25 367.00 345.96 366.53
  L 333.28 345.96
  A 0.41 0.41 0.0 0 1 333.43 345.38
  Q 343.47 339.89 353.71 334.50
  C 358.87 331.80 362.98 327.24 367.33 323.40
  Q 367.74 323.03 367.80 322.48
  L 369.83 302.09
  Q 369.88 301.53 369.47 301.15
  L 352.39 285.44
  Q 351.99 285.07 352.15 284.55
  L 356.86 268.75
  Q 357.00 268.27 357.51 268.27
  L 370.31 268.26
  A 1.00 0.99 76.1 0 1 371.19 268.80
  L 381.29 287.99
  Q 381.67 288.71 382.07 288.01
  L 387.46 278.50
  Q 387.79 277.90 387.35 277.39
  L 379.89 268.66
  Q 379.55 268.27 379.70 267.78
  L 387.64 240.48
  Q 387.78 240.00 388.28 240.00
  L 400.49 240.00
  Q 401.03 240.00 401.30 239.54
  L 421.95 204.51
  A 0.26 0.25 -71.8 0 0 421.76 204.12
  L 411.75 203.14
  A 0.22 0.22 0.0 0 1 411.58 202.81
  L 432.70 163.01
  A 1.34 1.33 -1.9 0 1 433.18 162.50
  L 470.30 140.30
  Q 471.05 139.85 470.53 140.55
  Z
  M 1013.36 115.63
  A 0.34 0.34 0.0 0 1 1013.06 116.14
  L 995.20 116.12
  A 0.34 0.34 0.0 0 0 994.89 116.60
  L 1000.68 129.26
  A 0.34 0.34 0.0 0 0 1000.99 129.46
  L 1014.51 129.45
  A 0.34 0.34 0.0 0 1 1014.82 129.65
  L 1021.79 145.68
  A 0.34 0.34 0.0 0 0 1022.10 145.88
  L 1050.03 145.87
  A 0.34 0.34 0.0 0 0 1050.34 145.39
  L 1038.82 120.95
  A 0.34 0.34 0.0 0 0 1038.51 120.76
  L 1028.18 120.75
  A 0.34 0.34 0.0 0 1 1027.88 120.57
  L 1011.29 89.13
  A 0.34 0.34 0.0 0 0 1010.99 88.95
  L 992.39 88.94
  A 0.34 0.34 0.0 0 1 992.12 88.81
  L 987.63 82.94
  A 0.34 0.34 0.0 0 0 987.36 82.81
  L 967.98 82.77
  A 0.34 0.34 0.0 0 0 967.69 83.28
  L 976.69 99.20
  A 0.34 0.34 0.0 0 0 976.99 99.37
  L 1004.15 99.37
  A 0.34 0.34 0.0 0 1 1004.45 99.55
  L 1013.36 115.63
  Z
  M 970.10 315.34
  L 960.82 307.98
  Q 960.36 307.61 960.20 307.04
  L 951.89 277.22
  A 0.27 0.26 82.7 0 1 952.15 276.88
  L 989.47 277.93
  Q 990.03 277.95 990.31 278.43
  L 1000.62 296.68
  Q 1000.76 296.92 1001.03 296.87
  L 1006.19 295.90
  A 0.31 0.30 73.8 0 0 1006.41 295.49
  L 998.49 274.81
  Q 998.31 274.35 998.63 273.97
  L 1010.89 259.32
  A 0.97 0.94 60.7 0 0 1011.10 258.53
  Q 1010.29 253.97 1009.45 249.57
  C 1008.68 245.58 1009.04 241.16 1008.98 237.03
  Q 1008.97 236.47 1009.53 236.47
  L 1019.22 236.47
  Q 1019.74 236.48 1019.96 236.02
  L 1031.32 212.97
  Q 1031.55 212.51 1032.07 212.50
  Q 1042.50 212.43 1052.97 212.49
  A 0.04 0.03 65.8 0 0 1052.99 212.43
  Q 1050.32 209.81 1047.14 206.85
  A 0.59 0.58 66.2 0 0 1046.74 206.69
  L 1028.50 206.70
  Q 1028.00 206.70 1027.77 206.25
  L 1022.19 195.04
  Q 1021.94 194.53 1022.51 194.53
  L 1071.47 194.53
  A 0.35 0.35 0.0 0 0 1071.78 194.03
  L 1055.48 160.74
  Q 1055.18 160.12 1054.49 160.12
  L 1042.95 160.16
  Q 1042.28 160.16 1042.47 160.80
  L 1044.66 168.00
  A 0.30 0.29 81.8 0 1 1044.38 168.38
  L 1020.15 168.38
  A 0.61 0.60 77.9 0 1 1019.60 168.02
  L 1009.21 146.24
  A 0.79 0.78 -12.4 0 0 1008.50 145.79
  L 988.00 145.79
  Q 987.46 145.79 987.70 146.27
  L 998.00 166.83
  Q 998.25 167.33 997.97 167.81
  L 986.86 186.65
  Q 986.47 187.32 986.07 186.66
  L 979.58 175.97
  Q 979.31 175.51 978.78 175.51
  L 965.54 175.51
  Q 965.00 175.51 964.72 175.05
  L 954.61 158.22
  Q 954.28 157.67 954.48 157.05
  L 962.34 133.49
  Q 962.50 133.00 963.02 133.00
  L 989.47 133.00
  Q 990.09 133.00 989.85 132.42
  L 981.70 113.09
  Q 981.46 112.51 980.84 112.51
  L 976.24 112.51
  Q 975.73 112.51 975.42 112.93
  L 968.80 121.85
  A 0.25 0.24 -40.5 0 1 968.38 121.82
  L 957.00 99.75
  Q 956.73 99.23 956.15 99.25
  C 952.56 99.33 947.35 98.51 944.11 100.23
  Q 931.31 107.01 918.97 113.32
  A 1.81 1.77 -52.6 0 1 917.80 113.49
  L 877.51 105.49
  A 1.70 1.69 -52.5 0 0 876.40 105.64
  L 855.88 115.90
  Q 855.46 116.11 854.98 116.08
  L 776.54 110.07
  A 1.37 1.36 27.6 0 0 775.58 110.37
  L 758.41 124.14
  A 0.55 0.54 -28.7 0 0 758.23 124.74
  L 765.05 145.16
  Q 765.26 145.79 764.59 145.79
  L 754.73 145.79
  A 0.10 0.10 0.0 0 0 754.64 145.94
  Q 757.27 150.84 758.22 151.95
  Q 758.25 151.98 758.30 151.98
  L 765.52 151.99
  Q 766.27 151.99 765.82 152.60
  L 760.58 159.72
  Q 760.24 160.19 760.53 160.70
  L 766.07 170.45
  Q 766.37 170.97 766.96 170.97
  L 783.27 170.97
  Q 784.12 170.97 783.42 171.45
  L 757.63 189.19
  Q 756.60 189.90 757.85 189.88
  C 761.14 189.83 764.41 190.46 767.49 188.90
  Q 781.33 181.88 794.60 175.46
  Q 798.73 173.46 802.27 170.53
  Q 808.49 165.38 814.68 160.52
  A 1.76 1.74 -66.8 0 1 815.61 160.14
  L 838.47 157.75
  A 1.52 1.49 -30.6 0 1 839.44 157.99
  L 858.61 170.64
  A 1.22 1.21 9.2 0 1 859.10 171.32
  Q 862.37 183.39 865.55 195.94
  Q 866.10 198.10 867.52 199.80
  Q 872.77 206.06 877.68 212.05
  A 1.35 1.34 -63.2 0 1 877.97 212.94
  Q 877.54 222.31 877.01 231.33
  Q 876.85 233.94 877.74 236.54
  Q 880.74 245.32 883.34 253.67
  Q 884.91 258.70 887.63 263.56
  Q 895.81 278.15 903.95 293.06
  Q 904.12 293.36 904.46 293.36
  L 910.03 293.31
  A 0.15 0.14 -13.6 0 0 910.16 293.10
  Q 901.87 276.12 893.71 259.52
  Q 893.45 258.99 894.04 258.99
  L 907.29 258.99
  A 0.71 0.70 75.8 0 1 907.91 259.36
  L 931.32 304.45
  A 3.53 3.47 -86.0 0 0 932.32 305.62
  L 991.76 350.29
  Q 992.20 350.62 992.76 350.62
  L 1002.48 350.61
  A 0.29 0.29 0.0 0 1 1002.75 350.99
  L 994.83 374.77
  Q 994.67 375.26 994.82 375.75
  L 1002.73 402.31
  A 1.72 1.71 10.3 0 0 1003.34 403.19
  L 1027.62 421.56
  Q 1027.94 421.81 1027.86 422.20
  L 1006.59 520.06
  Q 1006.47 520.57 1006.68 521.06
  L 1014.47 539.01
  Q 1014.71 539.57 1015.27 539.81
  L 1033.55 547.60
  A 0.31 0.31 0.0 0 0 1033.98 547.26
  L 1028.10 516.44
  Q 1028.00 515.93 1028.39 515.56
  L 1049.12 495.87
  A 1.21 1.18 68.9 0 0 1049.49 495.00
  L 1049.50 480.73
  Q 1049.50 480.21 1050.02 480.21
  L 1065.31 480.21
  A 1.10 1.10 0.0 0 0 1066.19 479.77
  Q 1071.04 473.22 1076.26 465.80
  Q 1077.91 463.47 1080.11 461.90
  Q 1093.30 452.54 1107.38 442.51
  A 0.97 0.97 0.0 0 0 1107.79 441.72
  L 1107.79 422.33
  Q 1107.79 421.82 1108.19 421.50
  L 1123.87 408.91
  Q 1124.29 408.58 1124.27 408.03
  L 1123.23 379.43
  A 1.09 1.09 0.0 0 0 1122.65 378.52
  Q 1116.28 375.17 1109.38 371.40
  Q 1107.80 370.54 1105.92 370.54
  Q 1098.31 370.56 1091.62 370.62
  Q 1091.00 370.63 1091.00 370.01
  L 1091.00 359.29
  Q 1091.00 358.77 1090.60 358.45
  L 1059.11 332.92
  A 1.26 1.24 64.5 0 0 1058.31 332.63
  L 1014.23 332.63
  Q 1013.65 332.63 1013.36 333.14
  L 1009.24 340.42
  Q 1008.99 340.87 1008.47 340.84
  L 990.66 339.86
  A 1.32 1.30 72.0 0 1 989.70 339.36
  L 977.13 323.41
  Q 976.82 323.01 976.97 322.52
  L 981.37 308.02
  Q 981.50 307.58 981.04 307.58
  L 971.36 307.63
  Q 970.72 307.63 970.72 308.26
  L 970.72 315.04
  Q 970.72 315.83 970.10 315.34
  Z
  M 1118.97 105.37
  A 0.32 0.32 0.0 0 0 1118.67 105.82
  L 1128.83 129.27
  A 0.32 0.32 0.0 0 0 1129.12 129.46
  L 1145.53 129.46
  A 0.32 0.32 0.0 0 0 1145.81 129.29
  L 1153.93 113.78
  A 0.32 0.32 0.0 0 0 1153.94 113.50
  L 1150.47 105.57
  A 0.32 0.32 0.0 0 0 1150.18 105.38
  L 1118.97 105.37
  Z
  M 61.30 206.95
  L 56.42 208.66
  Q 55.98 208.81 55.98 209.27
  L 55.98 216.72
  Q 55.98 217.14 56.33 217.37
  L 58.99 219.20
  Q 59.54 219.58 59.06 220.05
  L 56.60 222.47
  Q 55.84 223.22 56.91 223.22
  L 71.96 223.22
  A 0.56 0.55 -1.0 0 0 72.52 222.65
  Q 72.42 219.10 72.54 215.00
  Q 72.61 212.52 71.62 210.14
  Q 69.28 204.59 67.20 199.31
  Q 66.66 197.94 66.92 196.42
  Q 67.47 193.13 67.73 190.09
  Q 67.74 189.86 67.51 189.86
  L 58.69 189.84
  Q 58.46 189.84 58.51 190.07
  L 61.87 205.94
  Q 62.03 206.69 61.30 206.95
  Z
  M 51.25 198.53
  A 0.38 0.38 0.0 0 0 50.88 198.05
  L 43.02 198.05
  A 0.38 0.38 0.0 0 0 42.65 198.33
  L 39.25 210.90
  A 0.38 0.38 0.0 0 0 39.62 211.38
  L 47.47 211.37
  A 0.38 0.38 0.0 0 0 47.84 211.09
  L 51.25 198.53
  Z
  M 441.99 308.59
  C 446.27 335.56 472.92 343.21 496.96 344.04
  C 513.04 344.59 528.14 343.04 542.21 337.42
  Q 552.34 333.37 557.92 325.18
  C 564.99 314.81 566.07 300.25 557.47 290.42
  Q 551.45 283.55 542.20 279.93
  Q 532.56 276.17 518.40 273.59
  C 513.28 272.66 508.40 270.99 503.26 270.11
  C 498.02 269.22 481.67 265.71 486.41 256.73
  Q 488.32 253.10 492.46 252.25
  Q 500.94 250.50 509.06 252.26
  Q 517.12 254.01 519.14 260.86
  A 0.88 0.87 -7.9 0 0 519.98 261.49
  L 558.49 261.49
  Q 559.19 261.49 559.08 260.81
  C 555.76 239.81 535.50 230.91 516.77 228.71
  Q 501.32 226.90 486.54 228.64
  C 470.69 230.51 451.75 236.84 446.27 253.06
  Q 443.21 262.13 446.09 273.12
  Q 447.11 277.00 450.10 280.10
  Q 455.79 286.00 460.81 288.26
  Q 476.50 295.32 498.91 298.58
  C 500.53 298.82 501.84 299.65 503.40 299.94
  C 508.78 300.92 526.74 304.42 521.34 314.00
  Q 520.31 315.84 518.11 316.82
  Q 508.47 321.15 496.50 319.12
  C 489.92 318.01 485.53 314.74 483.21 308.44
  A 0.68 0.68 0.0 0 0 482.57 307.99
  L 442.50 307.99
  A 0.52 0.52 0.0 0 0 441.99 308.59
  Z
  M 414.63 242.20
  L 424.02 242.22
  Q 424.70 242.22 424.35 241.64
  L 417.91 231.01
  Q 417.44 230.24 417.04 231.04
  Q 414.70 235.72 412.26 240.28
  Q 411.28 242.09 411.31 244.31
  Q 411.45 255.41 411.35 265.59
  A 1.79 1.78 -28.9 0 1 411.07 266.55
  L 401.30 282.06
  A 0.99 0.98 -73.8 0 1 400.47 282.52
  L 390.51 282.53
  A 0.19 0.19 0.0 0 0 390.33 282.78
  L 392.28 288.42
  Q 392.38 288.72 392.71 288.72
  L 408.71 288.72
  Q 409.22 288.72 409.48 288.27
  L 421.80 266.70
  Q 422.14 266.11 421.92 265.46
  L 414.16 242.86
  Q 413.93 242.20 414.63 242.20
  Z
  M 768.27 296.18
  A 0.35 0.35 0.0 0 1 768.62 295.83
  L 823.78 295.84
  A 0.35 0.35 0.0 0 0 824.13 295.49
  L 824.12 273.24
  A 0.35 0.35 0.0 0 0 823.77 272.89
  L 768.62 272.89
  A 0.35 0.35 0.0 0 1 768.27 272.54
  L 768.27 255.35
  A 0.35 0.35 0.0 0 1 768.62 255.00
  L 834.15 255.00
  A 0.35 0.35 0.0 0 0 834.50 254.65
  L 834.50 231.00
  A 0.35 0.35 0.0 0 0 834.15 230.65
  L 726.36 230.64
  A 0.35 0.35 0.0 0 0 726.01 230.99
  L 726.01 340.62
  A 0.35 0.35 0.0 0 0 726.36 340.97
  L 837.02 340.97
  A 0.35 0.35 0.0 0 0 837.37 340.62
  L 837.37 316.14
  A 0.35 0.35 0.0 0 0 837.02 315.79
  L 768.62 315.79
  A 0.35 0.35 0.0 0 1 768.27 315.44
  L 768.27 296.18
  Z
  M 625.19 309.08
  Q 640.69 309.25 656.48 308.98
  C 676.37 308.66 701.04 301.22 706.17 278.91
  Q 710.68 259.25 696.09 244.73
  C 687.29 235.97 672.61 231.48 660.49 231.32
  Q 637.42 231.02 582.81 231.21
  Q 582.26 231.22 582.26 231.76
  L 582.26 343.27
  Q 582.26 343.78 582.77 343.78
  L 623.99 343.78
  Q 624.52 343.78 624.52 343.26
  L 624.52 309.74
  Q 624.52 309.07 625.19 309.08
  Z
  M 1044.50 313.58
  Q 1035.82 311.19 1026.57 308.46
  C 1021.74 307.03 1016.46 307.67 1011.58 307.58
  Q 1011.12 307.57 1011.12 308.04
  L 1011.12 313.27
  A 0.47 0.47 0.0 0 0 1011.59 313.74
  Q 1015.41 313.76 1019.95 313.71
  Q 1023.63 313.67 1027.42 314.56
  Q 1035.99 316.56 1044.48 318.29
  A 0.28 0.28 0.0 0 0 1044.81 318.02
  L 1044.84 314.02
  A 0.46 0.45 7.5 0 0 1044.50 313.58
  Z
  M 716.30 356.27
  A 0.30 0.30 0.0 0 0 716.00 355.97
  L 703.92 355.97
  A 0.30 0.30 0.0 0 0 703.62 356.27
  L 703.62 367.45
  A 0.30 0.30 0.0 0 0 703.92 367.75
  L 716.00 367.75
  A 0.30 0.30 0.0 0 0 716.30 367.45
  L 716.30 356.27
  Z
  M 405.24 356.82
  A 0.29 0.29 0.0 0 0 404.95 356.53
  L 391.91 356.53
  A 0.29 0.29 0.0 0 0 391.62 356.82
  L 391.62 421.22
  A 0.29 0.29 0.0 0 0 391.91 421.51
  L 404.95 421.51
  A 0.29 0.29 0.0 0 0 405.24 421.22
  L 405.24 356.82
  Z
  M 887.75 356.91
  A 0.38 0.38 0.0 0 0 887.37 356.53
  L 875.41 356.53
  A 0.38 0.38 0.0 0 0 875.03 356.91
  L 875.03 421.13
  A 0.38 0.38 0.0 0 0 875.41 421.51
  L 887.37 421.51
  A 0.38 0.38 0.0 0 0 887.75 421.13
  L 887.75 356.91
  Z
  M 467.31 373.38
  L 462.55 373.39
  Q 461.49 373.40 461.49 374.45
  L 461.49 381.31
  Q 461.49 382.83 463.00 382.59
  Q 464.48 382.35 467.49 382.52
  Q 467.99 382.55 467.99 383.05
  Q 467.98 397.12 467.99 410.65
  C 467.99 415.61 468.71 419.89 474.04 421.25
  Q 479.13 422.55 487.56 421.93
  Q 488.53 421.86 488.53 420.89
  L 488.53 413.22
  Q 488.53 412.04 487.38 412.33
  C 485.88 412.71 480.73 412.79 480.73 409.96
  Q 480.72 396.08 480.72 383.04
  Q 480.72 382.49 481.27 382.49
  L 487.52 382.49
  Q 488.53 382.49 488.53 381.48
  L 488.53 374.58
  Q 488.53 373.39 487.33 373.39
  L 481.31 373.39
  Q 480.73 373.39 480.73 372.81
  L 480.72 361.05
  Q 480.72 360.38 480.05 360.38
  L 468.57 360.37
  Q 468.00 360.37 468.00 360.93
  L 468.00 372.69
  Q 468.00 373.38 467.31 373.38
  Z
  M 688.18 382.51
  L 695.27 382.46
  Q 695.49 382.46 695.49 382.23
  L 695.49 373.60
  Q 695.49 373.40 695.29 373.40
  L 688.26 373.39
  Q 687.62 373.39 687.62 372.76
  L 687.62 361.00
  Q 687.62 360.38 687.00 360.38
  L 675.52 360.38
  Q 674.92 360.38 674.92 360.97
  L 674.92 372.77
  Q 674.92 373.33 674.36 373.36
  Q 671.95 373.49 669.96 373.28
  Q 668.40 373.11 668.40 374.68
  L 668.40 381.28
  Q 668.39 382.84 669.93 382.58
  Q 671.45 382.34 674.44 382.54
  Q 674.93 382.58 674.93 383.07
  Q 674.88 398.29 674.92 411.14
  C 674.93 415.84 675.81 419.72 680.71 421.16
  Q 685.56 422.60 694.90 421.89
  Q 695.49 421.84 695.49 421.25
  L 695.50 412.95
  Q 695.50 412.16 694.72 412.29
  Q 691.99 412.75 689.22 412.04
  A 2.12 2.12 0.0 0 1 687.63 409.99
  L 687.62 383.07
  Q 687.62 382.51 688.18 382.51
  Z
  M 425.24 379.71
  L 425.24 373.95
  Q 425.24 373.40 424.70 373.40
  L 413.69 373.39
  Q 413.03 373.39 413.03 374.06
  L 413.03 420.89
  A 0.62 0.61 90.0 0 0 413.64 421.51
  L 425.22 421.51
  Q 425.79 421.51 425.79 420.94
  Q 425.66 405.16 425.83 393.06
  C 425.93 385.88 431.42 381.71 438.52 383.18
  C 442.04 383.90 443.83 387.02 443.85 390.39
  Q 443.93 405.82 443.88 420.91
  Q 443.88 421.51 444.48 421.51
  L 456.02 421.51
  Q 456.65 421.51 456.65 420.87
  Q 456.47 407.54 456.71 393.44
  Q 456.86 384.53 455.10 380.77
  Q 451.79 373.71 443.17 372.42
  Q 431.53 370.67 425.71 379.84
  Q 425.24 380.58 425.24 379.71
  Z
  M 504.80 400.97
  L 536.50 400.97
  Q 537.05 400.97 537.08 400.42
  C 537.81 384.55 530.79 371.42 513.01 372.15
  C 493.32 372.96 488.06 392.54 493.13 408.50
  Q 496.70 419.76 508.76 422.17
  C 520.99 424.61 532.55 420.27 536.49 407.73
  A 0.26 0.26 0.0 0 0 536.24 407.40
  L 524.22 407.39
  Q 523.63 407.39 523.37 407.91
  Q 521.34 411.92 517.27 412.41
  Q 505.50 413.84 504.16 401.68
  Q 504.08 400.97 504.80 400.97
  Z
  M 555.21 380.96
  L 555.21 374.05
  Q 555.21 373.39 554.55 373.39
  L 543.31 373.39
  Q 543.00 373.39 543.00 373.69
  L 543.00 421.01
  Q 543.00 421.51 543.51 421.51
  L 555.22 421.51
  Q 555.73 421.51 555.74 420.99
  Q 555.77 408.81 555.69 397.55
  C 555.61 387.89 560.88 383.86 570.28 385.19
  Q 571.00 385.29 571.00 384.57
  L 570.99 372.96
  Q 570.99 372.27 570.31 372.21
  C 562.77 371.51 558.84 375.04 555.70 381.08
  Q 555.21 382.01 555.21 380.96
  Z
  M 587.53 379.71
  L 587.55 373.97
  Q 587.55 373.39 586.97 373.39
  L 575.99 373.39
  Q 575.38 373.39 575.38 374.01
  L 575.38 420.94
  Q 575.38 421.51 575.94 421.51
  L 587.52 421.51
  Q 588.14 421.51 588.14 420.89
  Q 588.08 407.12 588.14 393.84
  C 588.17 386.27 593.10 381.76 600.47 383.08
  C 604.42 383.78 606.21 387.07 606.22 390.85
  Q 606.28 406.12 606.23 420.96
  Q 606.23 421.51 606.78 421.51
  L 618.28 421.51
  Q 618.97 421.51 618.97 420.83
  Q 619.00 403.60 618.94 388.15
  C 618.91 377.14 610.75 371.41 600.18 372.25
  C 595.04 372.66 590.63 375.41 588.07 379.86
  Q 587.52 380.81 587.53 379.71
  Z
  M 653.69 416.69
  Q 653.82 418.72 654.61 421.13
  A 0.53 0.53 0.0 0 0 655.11 421.49
  Q 660.73 421.55 666.47 421.50
  Q 670.54 421.46 667.31 419.00
  Q 665.78 417.84 665.73 414.56
  Q 665.53 400.26 665.65 386.03
  C 665.76 372.57 649.42 371.17 639.81 372.57
  C 630.85 373.87 625.97 379.41 625.01 388.26
  Q 624.93 389.00 625.67 389.00
  L 636.55 389.00
  Q 637.21 389.00 637.30 388.34
  C 638.17 381.92 644.79 381.40 649.74 382.92
  C 653.53 384.09 655.00 390.38 650.27 391.32
  Q 644.74 392.41 639.22 393.06
  C 629.20 394.25 622.57 399.54 623.51 410.79
  C 623.86 415.02 626.28 418.94 630.09 420.90
  C 637.56 424.72 647.09 422.81 652.97 416.43
  Q 653.62 415.73 653.69 416.69
  Z
  M 772.0199 394.5349
  A 22.25 22.25 0.0 0 0 749.6924 372.3627
  L 745.4124 372.3776
  A 22.25 22.25 0.0 0 0 723.2402 394.7052
  L 723.2601 400.3851
  A 22.25 22.25 0.0 0 0 745.5876 422.5573
  L 749.8676 422.5424
  A 22.25 22.25 0.0 0 0 772.0398 400.2148
  L 772.0199 394.5349
  Z
  M 789.50 379.71
  L 789.50 373.94
  Q 789.50 373.39 788.94 373.39
  L 777.70 373.39
  A 0.42 0.42 0.0 0 0 777.28 373.81
  L 777.28 420.89
  Q 777.28 421.51 777.89 421.51
  L 789.47 421.51
  Q 789.99 421.51 789.99 420.99
  Q 789.97 407.91 789.97 396.39
  C 789.97 389.34 791.57 383.38 799.49 382.87
  C 804.56 382.54 808.08 385.29 808.11 390.61
  Q 808.21 405.76 808.14 420.90
  Q 808.14 421.51 808.75 421.51
  L 820.26 421.51
  Q 820.81 421.51 820.82 420.96
  Q 820.95 402.66 820.78 388.04
  Q 820.65 376.08 809.92 373.02
  Q 797.11 369.36 789.89 379.83
  Q 789.50 380.40 789.50 379.71
  Z
  M 855.12 416.48
  L 856.02 420.89
  Q 856.14 421.47 856.73 421.48
  Q 863.26 421.56 867.83 421.51
  Q 872.31 421.45 868.67 418.84
  Q 867.36 417.90 867.33 414.75
  Q 867.22 401.59 867.22 388.43
  C 867.22 382.82 866.56 379.01 862.19 375.92
  C 856.77 372.09 849.21 371.69 842.66 372.39
  Q 828.05 373.95 826.54 388.45
  Q 826.48 389.00 827.03 389.00
  L 838.22 389.00
  Q 838.78 389.00 838.85 388.44
  C 839.64 382.22 845.29 381.64 850.30 382.63
  C 855.44 383.66 856.92 390.78 850.89 391.59
  Q 843.95 392.52 837.45 393.71
  Q 830.02 395.07 826.76 400.96
  C 822.65 408.39 825.19 419.61 834.42 422.03
  Q 846.05 425.08 854.69 416.36
  Q 855.02 416.02 855.12 416.48
  Z
  M 716.29 373.73
  A 0.34 0.34 0.0 0 0 715.95 373.39
  L 703.97 373.39
  A 0.34 0.34 0.0 0 0 703.63 373.73
  L 703.63 421.17
  A 0.34 0.34 0.0 0 0 703.97 421.51
  L 715.95 421.51
  A 0.34 0.34 0.0 0 0 716.29 421.17
  L 716.29 373.73
  Z
  M 274.71 398.04
  A 0.32 0.32 0.0 0 0 274.69 398.33
  L 278.01 405.91
  A 0.32 0.32 0.0 0 0 278.57 405.96
  L 285.32 395.82
  A 0.32 0.32 0.0 0 0 285.33 395.49
  L 281.01 387.87
  A 0.32 0.32 0.0 0 0 280.45 387.87
  L 274.71 398.04
  Z
  M 308.47 422.42
  A 0.32 0.32 0.0 0 0 307.90 422.62
  L 307.93 433.52
  A 0.32 0.32 0.0 0 0 308.00 433.73
  L 337.15 468.85
  A 0.32 0.32 0.0 0 0 337.72 468.64
  L 337.71 459.88
  A 0.32 0.32 0.0 0 0 337.64 459.68
  L 308.47 422.42
  Z
  M 353.92 455.51
  C 351.76 457.86 349.26 459.32 346.54 460.93
  A 0.45 0.45 0.0 0 0 346.35 461.50
  L 350.73 471.58
  A 0.64 0.63 77.8 0 0 351.31 471.96
  L 369.20 471.96
  Q 369.87 471.96 369.97 471.29
  L 373.38 447.44
  Q 373.47 446.83 373.04 446.39
  L 368.11 441.16
  Q 367.72 440.74 367.32 441.16
  Q 360.33 448.54 353.92 455.51
  Z
  M 177.38 479.96
  A 0.35 0.35 0.0 0 0 177.38 480.31
  L 189.90 501.19
  A 0.35 0.35 0.0 0 0 190.50 501.20
  L 215.13 463.54
  A 0.35 0.35 0.0 0 0 215.12 463.13
  L 199.11 442.54
  A 0.35 0.35 0.0 0 0 198.53 442.59
  L 177.38 479.96
  Z
  M 393.02 463.00
  L 405.40 455.88
  Q 406.82 455.06 405.19 455.26
  Q 397.89 456.17 389.76 457.33
  C 386.56 457.79 382.97 456.01 379.93 455.22
  Q 379.49 455.11 379.45 455.56
  L 378.12 471.26
  Q 378.07 471.95 378.76 471.95
  L 386.23 471.96
  Q 386.75 471.96 386.89 471.46
  L 387.58 468.93
  Q 387.73 468.35 388.32 468.51
  L 399.88 471.61
  Q 401.08 471.94 400.20 471.06
  L 392.91 463.79
  Q 392.45 463.33 393.02 463.00
  Z
  M 467.69 475.89
  Q 461.53 471.92 455.05 467.91
  Q 451.78 465.89 449.94 463.55
  Q 447.62 460.62 445.32 457.90
  A 1.08 1.07 -19.9 0 0 444.50 457.52
  L 416.06 457.52
  Q 414.74 457.52 415.95 458.04
  L 433.77 465.62
  A 1.70 1.67 84.2 0 1 434.55 466.27
  L 441.11 476.10
  A 1.01 1.01 0.0 0 0 441.95 476.55
  L 467.50 476.56
  Q 468.72 476.56 467.69 475.89
  Z
  M 416.80 509.57
  L 395.51 501.80
  Q 394.97 501.60 394.97 501.02
  L 394.98 493.46
  A 0.42 0.42 0.0 0 0 394.48 493.05
  Q 388.98 494.15 383.48 495.11
  C 380.72 495.60 378.60 497.50 376.21 498.86
  Q 375.88 499.05 375.52 498.89
  L 368.23 495.71
  Q 367.70 495.48 367.47 496.02
  L 359.33 515.39
  Q 359.11 515.90 358.64 516.18
  L 333.43 531.03
  A 0.85 0.83 -17.7 0 0 333.01 531.82
  L 335.44 564.06
  Q 335.48 564.61 335.91 564.94
  L 345.99 572.68
  A 0.51 0.50 54.7 0 0 346.45 572.76
  Q 366.33 567.20 385.76 561.57
  Q 387.78 560.99 389.64 561.36
  Q 397.62 562.96 406.13 564.48
  A 1.61 1.57 72.9 0 1 407.03 564.97
  L 419.63 578.61
  Q 419.98 578.98 420.49 578.98
  L 435.82 578.98
  A 1.37 1.37 0.0 0 0 436.87 578.49
  Q 443.04 571.14 449.74 563.58
  Q 451.83 561.22 452.89 558.54
  Q 456.56 549.21 460.24 540.10
  Q 460.45 539.58 460.15 539.10
  Q 451.54 525.54 443.57 513.22
  Q 441.33 509.75 439.82 505.44
  Q 435.70 493.71 431.02 481.01
  Q 430.69 480.11 430.30 480.98
  L 417.73 509.18
  Q 417.45 509.81 416.80 509.57
  Z
  M 498.12 546.06
  A 0.33 0.33 0.0 0 0 497.84 545.55
  L 485.28 545.60
  A 0.33 0.33 0.0 0 0 484.99 545.77
  L 477.09 560.53
  A 0.33 0.33 0.0 0 0 477.38 561.02
  L 488.55 561.00
  A 0.33 0.33 0.0 0 0 488.83 560.85
  L 498.12 546.06
  Z
  M 477.39 583.53
  A 0.35 0.35 0.0 0 1 477.05 583.07
  L 480.35 573.22
  A 0.35 0.35 0.0 0 0 480.01 572.76
  L 471.35 572.78
  A 0.35 0.35 0.0 0 0 471.04 572.96
  L 458.14 596.31
  A 0.35 0.35 0.0 0 0 458.44 596.83
  L 476.66 596.84
  A 0.35 0.35 0.0 0 0 476.97 596.64
  L 482.79 584.00
  A 0.35 0.35 0.0 0 0 482.47 583.50
  L 477.39 583.53
  Z"
/>
<path fill="#fefefe" d="
  M 106.26 284.47
  L 116.30 272.06
  Q 116.49 271.83 116.37 271.55
  L 105.86 247.38
  A 0.15 0.15 0.0 0 1 106.00 247.18
  L 114.01 247.22
  Q 114.34 247.23 114.50 247.51
  L 129.43 273.92
  Q 129.70 274.40 130.00 273.94
  L 145.88 249.78
  Q 146.21 249.28 146.80 249.28
  L 167.03 249.28
  Q 167.62 249.28 167.93 249.79
  L 179.07 267.69
  Q 179.42 268.25 178.76 268.25
  L 138.58 268.25
  Q 137.91 268.25 138.01 268.92
  L 140.36 284.77
  A 0.43 0.42 -4.8 0 0 140.78 285.12
  L 165.01 285.12
  A 0.28 0.27 12.1 0 1 165.27 285.51
  L 157.08 303.61
  A 0.68 0.68 0.0 0 1 156.46 304.01
  L 127.71 304.01
  Q 127.19 304.01 127.19 304.54
  L 127.21 311.50
  Q 127.21 312.25 126.49 312.05
  L 98.02 304.17
  Q 97.51 304.03 97.41 303.51
  L 95.50 293.94
  Q 95.37 293.28 94.70 293.32
  L 52.22 295.74
  Q 51.40 295.78 52.00 295.22
  L 67.22 280.99
  A 3.27 3.24 -12.6 0 0 68.09 279.63
  L 74.80 259.51
  Q 74.98 258.97 75.51 258.78
  L 97.16 250.87
  Q 97.51 250.75 97.64 251.09
  Q 101.05 260.09 104.69 269.08
  Q 105.78 271.78 105.77 274.27
  Q 105.74 279.24 105.68 284.26
  Q 105.67 285.20 106.26 284.47
  Z"
/>
<path fill="#fefefe" d="
  M 624.56 258.69
  A 0.28 0.28 0.0 0 1 624.84 258.41
  L 651.74 258.50
  A 15.66 11.16 0.2 0 1 667.36 269.71
  L 667.35 272.63
  A 15.66 11.16 0.2 0 1 651.66 283.74
  L 624.76 283.65
  A 0.28 0.28 0.0 0 1 624.48 283.37
  L 624.56 258.69
  Z"
/>
<path fill="#fefefe" d="
  M 504.93 392.64
  A 0.30 0.30 0.0 0 1 504.63 392.34
  L 504.63 392.11
  A 9.58 9.55 -0.0 0 1 514.21 382.56
  L 514.31 382.56
  A 9.58 9.55 0.0 0 1 523.89 392.11
  L 523.89 392.34
  A 0.30 0.30 0.0 0 1 523.59 392.64
  L 504.93 392.64
  Z"
/>
<path fill="#fefefe" d="
  M 749.96 383.05
  C 754.59 383.64 757.57 387.27 758.56 391.68
  C 759.81 397.25 759.55 406.09 754.74 409.78
  Q 750.04 413.39 743.40 411.39
  C 735.78 409.10 735.32 397.75 736.77 391.73
  Q 739.18 381.70 749.96 383.05
  Z"
/>
<path fill="#fefefe" d="
  M 642.13 401.31
  C 644.93 400.75 650.66 400.08 652.66 398.53
  Q 653.23 398.08 653.24 398.81
  C 653.29 401.94 653.73 406.74 651.60 409.19
  Q 646.90 414.61 640.53 413.48
  Q 636.48 412.76 636.15 408.56
  Q 635.69 402.58 642.13 401.31
  Z"
/>
<path fill="#fefefe" d="
  M 837.67 407.73
  C 837.85 399.06 849.34 401.88 854.25 398.55
  Q 854.84 398.15 854.80 398.86
  Q 854.67 401.02 854.78 403.32
  C 855.00 407.93 852.36 411.28 848.03 412.90
  C 843.49 414.59 837.54 413.89 837.67 407.73
  Z"
/>
<path fill="#fefefe" d="
  M 1259.8800 619.1838
  A 30.85 30.42 0.1 0 1 1228.9769 649.5500
  A 30.85 30.42 0.1 0 1 1198.1800 619.0762
  A 30.85 30.42 0.1 0 1 1229.0831 588.7100
  A 30.85 30.42 0.1 0 1 1259.8800 619.1838
  Z
  M 1229.0744 644.5800
  A 25.45 24.82 89.9 0 0 1253.8500 619.0867
  A 25.45 24.82 89.9 0 0 1228.9856 593.6800
  A 25.45 24.82 89.9 0 0 1204.2100 619.1733
  A 25.45 24.82 89.9 0 0 1229.0744 644.5800
  Z"
/>
<path fill="#fefefe" d="
  M 1234.56 621.09
  A 0.41 0.40 69.2 0 0 1234.29 621.71
  L 1243.79 636.43
  A 0.12 0.12 0.0 0 1 1243.69 636.61
  L 1238.29 636.65
  Q 1238.04 636.65 1237.91 636.44
  L 1229.09 621.93
  Q 1228.81 621.46 1228.26 621.47
  L 1223.20 621.48
  Q 1222.63 621.48 1222.63 622.05
  L 1222.63 636.25
  A 0.38 0.38 0.0 0 1 1222.25 636.63
  L 1217.76 636.65
  Q 1217.37 636.65 1217.37 636.26
  L 1217.37 602.27
  Q 1217.37 601.70 1217.94 601.68
  Q 1228.42 601.34 1234.85 601.98
  C 1240.29 602.53 1243.30 606.56 1243.05 611.96
  Q 1242.70 619.86 1234.56 621.09
  Z
  M 1222.60 606.46
  L 1222.66 616.66
  A 0.35 0.35 0.0 0 0 1223.01 617.01
  L 1231.63 616.96
  A 5.93 4.87 -0.3 0 0 1237.53 612.06
  L 1237.53 610.90
  A 5.93 4.87 -0.3 0 0 1231.57 606.06
  L 1222.95 606.11
  A 0.35 0.35 0.0 0 0 1222.60 606.46
  Z"
/>
<rect fill="#fefefe" x="315.49" y="748.38" width="14.64" height="12.54" rx="0.34"/>
<rect fill="#fefefe" x="518.61" y="748.38" width="14.64" height="12.54" rx="0.31"/>
<path fill="#fefefe" d="
  M 222.64 812.45
  C 226.51 817.37 235.26 816.49 237.29 809.82
  Q 238.33 806.38 238.32 802.50
  Q 238.21 775.39 238.27 749.77
  Q 238.27 749.25 238.79 749.25
  L 252.97 749.25
  Q 253.50 749.25 253.50 749.78
  Q 253.56 783.54 253.46 804.69
  C 253.42 813.45 248.87 822.24 239.99 824.95
  Q 233.10 827.05 223.68 826.09
  C 210.24 824.73 205.05 815.62 205.03 803.00
  Q 204.99 776.23 205.00 749.53
  Q 205.00 749.25 205.29 749.25
  L 219.74 749.25
  Q 220.29 749.25 220.29 749.80
  Q 220.21 774.99 220.32 802.30
  C 220.33 805.66 220.53 809.77 222.64 812.45
  Z"
/>
<path fill="#fefefe" d="
  M 571.70 819.62
  C 568.70 824.26 565.16 826.37 559.22 826.39
  C 549.66 826.42 544.63 820.57 542.92 812.01
  Q 540.46 799.70 542.16 785.60
  C 543.29 776.20 546.77 767.38 557.63 766.53
  Q 565.96 765.88 570.81 772.56
  Q 571.63 773.69 571.63 772.30
  L 571.62 749.88
  Q 571.62 749.25 572.25 749.25
  L 585.75 749.25
  Q 586.26 749.25 586.26 749.75
  L 586.26 824.75
  Q 586.26 825.25 585.76 825.25
  L 572.75 825.25
  A 0.50 0.50 0.0 0 1 572.25 824.75
  L 572.26 819.79
  Q 572.27 818.75 571.70 819.62
  Z
  M 570.86 807.85
  Q 572.48 796.57 570.78 784.84
  Q 569.70 777.48 563.31 777.75
  C 558.87 777.94 557.28 781.95 556.82 785.74
  Q 555.84 793.75 556.33 802.90
  C 556.60 808.14 557.23 815.67 564.16 815.47
  C 568.69 815.34 570.27 811.89 570.86 807.85
  Z"
/>
<path fill="#fefefe" d="
  M 674.29 772.71
  L 674.30 749.85
  Q 674.30 749.25 674.90 749.25
  L 688.50 749.25
  Q 689.00 749.25 689.00 749.75
  L 689.00 824.75
  Q 689.00 825.25 688.50 825.25
  L 675.62 825.25
  Q 674.98 825.25 674.98 824.62
  L 674.98 819.99
  Q 674.98 818.57 674.25 819.79
  Q 671.01 825.17 665.48 826.02
  C 648.85 828.59 644.97 815.52 644.33 802.47
  Q 643.97 795.10 644.55 787.97
  C 645.39 777.57 648.76 766.91 661.20 766.50
  C 666.59 766.32 670.79 768.58 673.70 772.89
  Q 674.29 773.75 674.29 772.71
  Z
  M 659.59 785.40
  Q 657.84 798.88 659.95 809.55
  C 661.60 817.88 671.80 817.46 673.27 809.19
  Q 675.33 797.64 673.40 784.44
  Q 672.90 781.02 670.74 779.14
  C 668.02 776.78 662.65 777.27 660.89 780.99
  Q 659.88 783.10 659.59 785.40
  Z"
/>
<path fill="#fefefe" d="
  M 789.25 792.56
  L 789.25 824.94
  A 0.31 0.31 0.0 0 1 788.94 825.25
  L 774.29 825.25
  A 0.31 0.31 0.0 0 1 773.98 824.94
  L 773.98 749.56
  A 0.31 0.31 0.0 0 1 774.29 749.25
  L 816.07 749.25
  A 0.31 0.31 0.0 0 1 816.38 749.56
  L 816.38 761.45
  A 0.31 0.31 0.0 0 1 816.07 761.76
  L 789.56 761.75
  A 0.31 0.31 0.0 0 0 789.25 762.06
  L 789.26 779.41
  A 0.31 0.31 0.0 0 0 789.57 779.72
  L 814.46 779.73
  A 0.31 0.31 0.0 0 1 814.77 780.04
  L 814.77 791.94
  A 0.31 0.31 0.0 0 1 814.46 792.25
  L 789.56 792.25
  A 0.31 0.31 0.0 0 0 789.25 792.56
  Z"
/>
<path fill="#fefefe" d="
  M 900.48 772.54
  L 900.48 749.76
  Q 900.48 749.25 900.99 749.25
  L 914.31 749.25
  Q 915.13 749.25 915.13 750.06
  L 915.13 824.56
  Q 915.13 825.25 914.44 825.25
  L 901.67 825.25
  A 0.59 0.58 0.0 0 1 901.08 824.67
  L 901.08 819.80
  Q 901.08 818.67 900.51 819.64
  Q 896.36 826.61 887.70 826.41
  Q 874.70 826.11 871.83 812.27
  Q 868.85 797.84 871.55 782.23
  C 873.26 772.32 878.97 765.40 890.08 766.67
  Q 896.03 767.35 899.75 772.76
  Q 900.48 773.83 900.48 772.54
  Z
  M 885.39 788.02
  Q 884.29 798.26 885.85 808.56
  C 886.44 812.48 888.56 815.77 893.02 815.48
  Q 898.36 815.13 899.40 809.29
  Q 901.50 797.51 899.53 784.47
  Q 898.63 778.52 893.66 777.78
  C 886.98 776.79 885.91 783.23 885.39 788.02
  Z"
/>
<rect fill="#fefefe" x="1059.76" y="749.25" width="14.70" height="76.00" rx="0.34"/>
<path fill="#fefefe" d="
  M 277.13 774.20
  Q 283.43 764.60 295.29 766.90
  Q 305.86 768.94 305.93 781.18
  Q 306.04 802.11 306.03 824.55
  Q 306.02 825.25 305.32 825.25
  L 291.98 825.25
  Q 291.36 825.25 291.36 824.63
  Q 291.42 805.30 291.33 784.64
  Q 291.30 776.83 283.74 777.86
  Q 277.38 778.73 277.32 786.33
  Q 277.18 804.58 277.28 824.69
  Q 277.29 825.25 276.73 825.25
  L 263.31 825.25
  Q 262.62 825.25 262.62 824.56
  L 262.62 768.56
  Q 262.62 768.00 263.19 768.00
  L 276.06 768.00
  Q 276.63 768.00 276.63 768.56
  L 276.63 774.05
  Q 276.63 774.96 277.13 774.20
  Z"
/>
<path fill="#fefefe" d="
  M 398.69 799.34
  C 398.35 803.98 398.36 815.87 405.02 816.68
  C 411.47 817.46 412.98 811.69 413.60 806.59
  Q 413.67 806.00 414.26 806.00
  L 426.25 806.00
  Q 426.87 806.00 426.83 806.62
  C 426.00 821.89 416.97 827.42 402.77 826.28
  C 392.85 825.49 386.51 819.86 384.96 810.02
  Q 383.36 799.85 384.39 788.21
  C 385.36 777.20 390.08 768.49 401.65 766.84
  C 415.12 764.93 425.09 769.92 426.96 784.23
  Q 427.86 791.08 427.75 798.25
  Q 427.74 798.78 427.21 798.78
  L 399.30 798.78
  Q 398.74 798.78 398.69 799.34
  Z
  M 398.93 790.10
  L 413.37 790.16
  A 0.22 0.22 0.0 0 0 413.59 789.94
  L 413.60 786.20
  A 9.68 6.78 -89.8 0 0 406.85 776.49
  L 405.53 776.49
  A 9.68 6.78 -89.8 0 0 398.72 786.14
  L 398.71 789.88
  A 0.22 0.22 0.0 0 0 398.93 790.10
  Z"
/>
<path fill="#fefefe" d="
  M 449.10 774.52
  Q 449.10 776.20 449.93 774.73
  C 453.01 769.19 457.98 765.70 464.66 766.64
  Q 465.20 766.71 465.20 767.26
  L 465.20 780.06
  Q 465.20 780.76 464.50 780.68
  C 459.26 780.06 453.63 780.65 450.89 785.69
  Q 449.65 787.96 449.68 792.79
  Q 449.78 808.91 449.76 824.71
  Q 449.76 825.25 449.22 825.25
  L 435.67 825.25
  Q 435.08 825.25 435.08 824.67
  L 435.08 768.58
  Q 435.08 768.00 435.67 768.00
  L 448.53 768.00
  Q 449.07 768.00 449.08 768.53
  L 449.10 774.52
  Z"
/>
<path fill="#fefefe" d="
  M 483.52 782.18
  C 483.29 786.49 486.24 788.10 490.09 789.43
  C 501.46 793.38 512.56 795.13 511.32 810.63
  C 510.02 826.82 492.13 828.14 480.10 825.27
  C 470.89 823.07 468.87 815.35 469.04 807.02
  A 0.51 0.51 0.0 0 1 469.55 806.52
  L 481.69 806.51
  Q 482.36 806.51 482.30 807.18
  C 481.03 820.76 500.10 819.21 497.03 807.88
  Q 496.23 804.95 492.51 803.63
  Q 485.63 801.20 479.64 798.77
  C 471.44 795.46 468.06 787.90 469.98 779.52
  C 472.53 768.42 483.79 765.76 494.26 766.66
  C 504.52 767.54 510.60 773.18 510.12 784.44
  Q 510.10 785.04 509.49 785.04
  L 497.53 785.04
  Q 496.95 785.04 496.95 784.47
  C 496.95 780.56 495.93 776.72 491.18 776.48
  C 487.46 776.30 483.73 778.05 483.52 782.18
  Z"
/>
<path fill="#fefefe" d="
  M 622.20 819.76
  Q 622.01 819.08 621.67 819.70
  Q 618.58 825.26 612.13 826.10
  Q 607.04 826.76 603.27 825.89
  C 594.85 823.95 592.69 813.95 593.76 806.47
  Q 595.24 796.11 605.64 793.19
  Q 611.68 791.50 617.31 789.93
  C 619.33 789.37 621.30 788.13 621.83 785.99
  C 622.78 782.10 621.83 777.19 617.23 776.60
  Q 608.22 775.44 608.51 784.97
  Q 608.52 785.50 607.99 785.50
  L 595.98 785.50
  Q 595.31 785.50 595.31 784.83
  C 595.23 766.97 611.00 764.56 624.73 767.44
  C 633.99 769.38 636.20 776.22 636.20 784.69
  Q 636.18 801.23 636.23 816.79
  Q 636.24 820.62 637.71 824.66
  Q 637.92 825.25 637.30 825.25
  L 624.38 825.25
  Q 623.77 825.25 623.60 824.67
  L 622.20 819.76
  Z
  M 607.56 807.76
  C 607.23 812.40 608.76 817.74 614.81 816.62
  C 620.42 815.57 622.41 811.55 622.26 806.11
  Q 622.13 801.45 622.26 797.40
  Q 622.29 796.60 621.60 797.01
  Q 618.42 798.93 614.91 799.73
  Q 608.01 801.30 607.56 807.76
  Z"
/>
<path fill="#fefefe" d="
  M 711.18 799.36
  C 710.93 804.62 710.85 818.17 719.76 816.68
  C 724.58 815.88 725.62 810.71 726.12 806.57
  Q 726.18 806.00 726.76 806.00
  L 738.78 806.00
  Q 739.40 806.00 739.36 806.62
  C 738.41 821.97 729.55 827.42 715.09 826.26
  C 704.63 825.42 698.39 818.98 697.22 808.43
  Q 695.55 793.40 697.72 783.07
  C 700.43 770.17 709.79 765.61 721.97 766.57
  C 732.98 767.44 738.26 774.40 739.57 784.84
  Q 740.47 791.97 740.22 798.30
  Q 740.20 798.78 739.72 798.78
  L 711.78 798.78
  Q 711.21 798.78 711.18 799.36
  Z
  M 711.50 790.09
  L 725.80 790.17
  A 0.28 0.28 0.0 0 0 726.09 789.89
  L 726.11 786.15
  A 9.62 6.70 -89.7 0 0 719.46 776.49
  L 718.00 776.49
  A 9.62 6.70 -89.7 0 0 711.25 786.07
  L 711.23 789.81
  A 0.28 0.28 0.0 0 0 711.50 790.09
  Z"
/>
<path fill="#fefefe" d="
  M 835.29 799.44
  C 835.10 804.11 835.02 815.77 841.68 816.68
  C 847.97 817.53 849.81 811.69 850.24 806.67
  Q 850.30 806.00 850.97 806.00
  L 862.97 806.00
  Q 863.54 806.00 863.51 806.57
  C 862.79 822.71 852.37 827.92 837.64 826.08
  C 827.18 824.77 822.02 817.00 821.18 807.02
  C 819.59 788.26 819.56 764.72 846.02 766.58
  C 855.47 767.24 861.47 772.62 863.26 782.24
  Q 864.66 789.74 864.40 798.21
  Q 864.39 798.78 863.81 798.78
  L 835.98 798.78
  Q 835.32 798.78 835.29 799.44
  Z
  M 835.81 790.21
  L 849.95 790.19
  A 0.46 0.46 0.0 0 0 850.41 789.73
  L 850.41 787.16
  A 10.67 6.53 89.9 0 0 843.86 776.50
  L 841.86 776.50
  A 10.67 6.53 89.9 0 0 835.35 787.18
  L 835.35 789.75
  A 0.46 0.46 0.0 0 0 835.81 790.21
  Z"
/>
<path fill="#fefefe" d="
  M 937.28 799.44
  C 937.06 804.05 936.97 815.92 943.78 816.69
  C 950.02 817.39 951.82 811.55 952.22 806.66
  Q 952.27 806.00 952.94 806.00
  L 964.97 806.00
  Q 965.53 806.00 965.50 806.56
  C 965.17 812.34 963.51 818.48 959.04 822.23
  C 953.63 826.78 944.26 827.14 937.82 825.74
  Q 925.53 823.05 923.51 809.27
  Q 921.66 796.67 923.69 783.97
  C 925.30 773.88 931.67 767.57 941.77 766.65
  C 952.90 765.65 962.41 769.08 964.99 781.20
  Q 966.75 789.49 966.30 798.27
  Q 966.28 798.78 965.77 798.78
  L 937.97 798.78
  Q 937.31 798.78 937.28 799.44
  Z
  M 937.58 790.10
  L 952.00 790.16
  A 0.22 0.22 0.0 0 0 952.22 789.94
  L 952.23 786.29
  A 9.77 6.66 -89.8 0 0 945.60 776.49
  L 944.06 776.49
  A 9.77 6.66 -89.8 0 0 937.37 786.23
  L 937.36 789.88
  A 0.22 0.22 0.0 0 0 937.58 790.10
  Z"
/>
<path fill="#fefefe" d="
  M 988.30 775.14
  C 991.54 769.42 996.29 765.74 1003.22 766.60
  Q 1003.79 766.67 1003.79 767.25
  L 1003.79 780.04
  Q 1003.79 780.76 1003.08 780.67
  C 994.72 779.54 988.38 782.62 988.38 791.49
  Q 988.36 807.64 988.40 824.62
  Q 988.40 825.25 987.76 825.25
  L 974.25 825.25
  Q 973.75 825.25 973.75 824.75
  L 973.74 768.50
  Q 973.74 768.00 974.25 768.00
  L 987.25 768.00
  Q 987.75 768.00 987.75 768.50
  L 987.75 774.99
  Q 987.75 776.11 988.30 775.14
  Z"
/>
<path fill="#fefefe" d="
  M 1035.95 819.77
  A 0.34 0.33 -39.3 0 0 1035.33 819.71
  Q 1032.55 825.22 1025.74 826.11
  C 1018.14 827.10 1011.39 825.90 1008.52 817.74
  Q 1006.86 812.99 1007.40 807.25
  C 1008.10 799.78 1012.05 795.48 1019.24 793.28
  Q 1024.98 791.53 1030.75 790.05
  Q 1036.81 788.50 1035.79 781.77
  C 1035.17 777.71 1032.33 776.15 1028.52 776.46
  Q 1021.91 777.01 1022.28 784.95
  Q 1022.30 785.50 1021.74 785.50
  L 1009.72 785.50
  Q 1009.07 785.50 1009.06 784.85
  C 1008.89 767.01 1024.74 764.58 1038.44 767.42
  C 1047.42 769.28 1049.98 775.97 1049.95 784.29
  Q 1049.90 800.95 1050.01 817.85
  Q 1050.03 820.93 1051.45 824.66
  Q 1051.68 825.25 1051.05 825.25
  L 1038.22 825.25
  Q 1037.50 825.25 1037.31 824.56
  L 1035.95 819.77
  Z
  M 1027.96 799.94
  C 1021.88 801.35 1020.25 807.01 1021.78 812.52
  Q 1023.14 817.46 1028.23 816.65
  Q 1034.90 815.59 1035.72 809.44
  Q 1036.23 805.67 1035.89 797.35
  Q 1035.86 796.69 1035.30 797.03
  Q 1031.97 799.01 1027.96 799.94
  Z"
/>
<rect fill="#fefefe" x="315.49" y="767.99" width="14.64" height="57.26" rx="0.26"/>
<path fill="#fefefe" d="
  M 359.74 807.74
  L 367.18 768.48
  A 0.60 0.59 5.2 0 1 367.77 768.00
  L 381.56 768.00
  A 0.28 0.27 7.2 0 1 381.83 768.34
  L 367.67 824.74
  Q 367.54 825.25 367.01 825.25
  L 351.16 825.25
  Q 350.55 825.25 350.40 824.66
  L 335.93 768.66
  Q 335.76 768.00 336.45 768.00
  L 350.51 768.00
  A 0.66 0.65 84.0 0 1 351.15 768.52
  L 358.99 807.75
  Q 359.38 809.66 359.74 807.74
  Z"
/>
<rect fill="#fefefe" x="518.61" y="767.99" width="14.64" height="57.26" rx="0.27"/>
<path fill="#fefefe" d="
  M 783.04 942.46
  C 785.45 943.43 788.75 943.61 791.19 942.71
  Q 798.02 940.19 796.90 931.85
  Q 796.15 926.23 790.47 923.70
  C 784.32 920.96 777.46 919.36 771.69 915.32
  C 764.64 910.38 762.87 902.80 763.65 894.65
  Q 765.20 878.44 781.89 875.93
  C 789.04 874.85 798.48 875.79 804.15 880.56
  Q 811.03 886.36 810.48 897.42
  Q 810.45 898.04 809.82 898.04
  L 796.46 898.04
  Q 795.85 898.04 795.85 897.43
  C 795.81 893.27 794.73 887.98 789.83 887.02
  C 785.64 886.21 780.07 887.55 779.17 892.40
  C 777.26 902.71 783.41 904.94 791.48 908.11
  C 800.32 911.60 811.06 915.67 812.63 926.37
  C 814.39 938.45 810.51 949.36 797.89 952.72
  Q 786.58 955.75 775.67 952.83
  C 765.12 950.00 761.82 939.98 762.50 929.97
  Q 762.55 929.34 763.17 929.34
  L 777.06 929.33
  Q 777.81 929.33 777.78 930.08
  C 777.53 934.98 777.91 940.41 783.04 942.46
  Z"
/>
<rect fill="#fefefe" x="572.48" y="876.23" width="14.56" height="12.50" rx="0.29"/>
<rect fill="#fefefe" x="632.24" y="876.23" width="14.64" height="12.50" rx="0.31"/>
<path fill="#fefefe" d="
  M 311.76 877.06
  C 324.46 877.10 332.17 884.66 334.14 896.98
  Q 336.25 910.20 334.88 925.93
  C 333.68 939.70 328.99 951.95 312.94 952.82
  Q 305.84 953.20 285.76 953.01
  Q 285.22 953.00 285.22 952.47
  L 285.22 877.61
  Q 285.22 877.02 285.81 877.02
  Q 298.86 877.02 311.76 877.06
  Z
  M 300.34 888.92
  L 300.44 941.12
  A 0.71 0.71 0.0 0 0 301.15 941.83
  L 308.55 941.81
  A 15.82 11.55 89.9 0 0 320.07 925.97
  L 320.03 903.99
  A 15.82 11.55 89.9 0 0 308.45 888.19
  L 301.05 888.21
  A 0.71 0.71 0.0 0 0 300.34 888.92
  Z"
/>
<path fill="#fefefe" d="
  M 436.87 940.50
  L 464.39 940.50
  A 0.36 0.36 0.0 0 1 464.75 940.86
  L 464.76 952.66
  A 0.36 0.36 0.0 0 1 464.40 953.02
  L 421.61 953.02
  A 0.36 0.36 0.0 0 1 421.25 952.66
  L 421.25 877.39
  A 0.36 0.36 0.0 0 1 421.61 877.03
  L 463.37 877.03
  A 0.36 0.36 0.0 0 1 463.73 877.39
  L 463.73 889.18
  A 0.36 0.36 0.0 0 1 463.37 889.54
  L 436.87 889.56
  A 0.36 0.36 0.0 0 0 436.51 889.92
  L 436.52 907.14
  A 0.36 0.36 0.0 0 0 436.88 907.50
  L 461.74 907.50
  A 0.36 0.36 0.0 0 1 462.10 907.86
  L 462.11 919.65
  A 0.36 0.36 0.0 0 1 461.75 920.01
  L 436.88 920.02
  A 0.36 0.36 0.0 0 0 436.52 920.38
  L 436.51 940.14
  A 0.36 0.36 0.0 0 0 436.87 940.50
  Z"
/>
<path fill="#fefefe" d="
  M 659.30 905.75
  L 653.26 905.75
  Q 652.52 905.75 652.52 905.01
  L 652.53 896.99
  Q 652.53 895.76 653.76 895.76
  L 659.48 895.78
  Q 660.00 895.78 660.00 895.26
  L 660.00 879.97
  Q 660.00 879.43 660.54 879.43
  L 674.10 879.43
  Q 674.64 879.43 674.64 879.98
  L 674.65 895.21
  Q 674.65 895.76 675.21 895.76
  L 682.60 895.77
  A 0.59 0.58 0.0 0 1 683.19 896.35
  L 683.19 905.16
  Q 683.19 905.75 682.60 905.75
  L 675.24 905.75
  Q 674.65 905.75 674.65 906.35
  Q 674.66 921.27 674.62 934.78
  C 674.61 941.44 675.13 943.64 682.56 942.91
  Q 683.19 942.84 683.19 943.47
  L 683.20 952.24
  Q 683.20 952.91 682.53 952.98
  Q 674.52 953.74 667.74 952.97
  C 661.18 952.22 660.03 946.27 660.02 940.63
  Q 659.98 922.50 660.01 906.46
  Q 660.01 905.75 659.30 905.75
  Z"
/>
<path fill="#fefefe" d="
  M 941.52 906.45
  Q 941.54 921.28 941.55 936.64
  C 941.55 942.88 943.95 943.38 949.49 942.92
  Q 950.10 942.86 950.10 943.48
  L 950.10 952.24
  Q 950.10 952.96 949.38 953.02
  Q 943.46 953.45 937.01 953.24
  C 929.63 953.00 927.08 948.92 927.03 942.02
  Q 926.90 924.42 926.99 906.17
  A 0.42 0.41 -88.6 0 0 926.60 905.75
  Q 923.53 905.53 921.24 905.87
  Q 919.49 906.12 919.49 904.35
  L 919.49 896.97
  Q 919.49 895.52 920.94 895.65
  Q 923.71 895.90 926.37 895.71
  Q 926.97 895.66 926.97 895.07
  L 926.97 879.98
  Q 926.97 879.43 927.52 879.43
  L 940.98 879.43
  Q 941.53 879.43 941.53 879.98
  L 941.54 895.27
  Q 941.54 895.76 942.02 895.76
  L 949.91 895.77
  Q 950.10 895.77 950.10 895.96
  L 950.12 905.54
  Q 950.12 905.75 949.91 905.75
  L 942.21 905.76
  Q 941.52 905.76 941.52 906.45
  Z"
/>
<path fill="#fefefe" d="
  M 375.23 895.89
  C 382.38 898.44 385.68 905.86 386.58 913.12
  Q 388.46 928.33 385.68 939.28
  Q 382.42 952.14 369.94 953.83
  Q 361.78 954.93 355.24 953.03
  C 346.99 950.63 343.79 942.85 342.87 934.90
  Q 341.09 919.49 344.18 908.56
  Q 347.54 896.71 359.57 894.73
  Q 368.03 893.34 375.23 895.89
  Z
  M 372.12 934.91
  C 372.96 926.79 373.31 917.30 371.12 909.38
  C 369.33 902.93 360.89 902.35 358.56 908.72
  Q 357.31 912.14 357.10 916.09
  Q 356.53 926.65 357.35 935.31
  C 357.81 940.24 360.09 945.46 366.20 944.39
  C 370.42 943.65 371.74 938.59 372.12 934.91
  Z"
/>
<path fill="#fefefe" d="
  M 493.33 931.31
  Q 487.38 929.25 481.79 927.06
  Q 468.02 921.67 471.17 906.94
  C 473.56 895.70 486.58 893.31 496.69 894.65
  Q 511.75 896.64 511.22 912.27
  Q 511.20 912.89 510.58 912.89
  L 498.69 912.89
  Q 497.89 912.89 497.96 912.09
  C 498.37 907.30 495.79 903.55 490.35 904.39
  C 482.54 905.60 482.83 914.42 489.73 916.75
  Q 495.88 918.83 501.92 920.99
  C 506.66 922.68 510.75 926.15 511.89 931.32
  C 514.00 940.94 510.39 950.35 500.47 953.01
  Q 491.40 955.44 481.59 953.16
  C 472.13 950.97 469.82 943.51 470.14 934.97
  Q 470.16 934.37 470.76 934.37
  L 482.72 934.36
  Q 483.34 934.36 483.31 934.98
  C 483.01 941.04 485.88 945.40 492.77 944.43
  Q 496.18 943.94 497.62 941.35
  C 499.95 937.17 497.77 932.85 493.33 931.31
  Z"
/>
<path fill="#fefefe" d="
  M 533.49 901.44
  Q 533.49 902.15 533.88 901.56
  C 536.09 898.19 538.76 895.50 542.80 894.73
  C 554.64 892.46 561.26 899.37 563.13 910.51
  Q 565.28 923.24 563.42 936.60
  C 561.94 947.24 556.85 955.27 544.55 954.08
  Q 538.61 953.50 534.92 948.46
  Q 534.13 947.38 534.13 948.71
  L 534.13 970.93
  A 0.56 0.56 0.0 0 1 533.57 971.49
  L 519.99 971.49
  Q 519.49 971.49 519.49 970.99
  L 519.49 896.26
  Q 519.49 895.76 519.99 895.76
  L 532.75 895.77
  Q 533.49 895.77 533.49 896.50
  L 533.49 901.44
  Z
  M 549.12 915.22
  C 548.61 909.76 546.91 904.34 539.95 905.80
  C 536.79 906.46 535.36 909.74 534.95 912.67
  Q 533.15 925.63 535.13 936.88
  Q 536.43 944.25 543.56 943.11
  C 548.93 942.25 549.33 933.56 549.49 929.51
  Q 549.78 922.18 549.12 915.22
  Z"
/>
<path fill="#fefefe" d="
  M 611.21 902.88
  C 614.53 897.13 619.16 893.51 626.06 894.44
  Q 626.71 894.53 626.71 895.18
  L 626.72 907.95
  Q 626.72 908.64 626.03 908.53
  C 620.76 907.68 615.32 908.65 612.52 913.18
  Q 611.15 915.40 611.19 920.67
  Q 611.31 937.07 611.22 952.52
  Q 611.22 953.02 610.72 953.02
  L 597.18 953.02
  Q 596.59 953.02 596.59 952.43
  L 596.59 896.34
  Q 596.59 895.76 597.16 895.76
  L 610.22 895.77
  Q 610.56 895.77 610.56 896.10
  L 610.62 902.73
  Q 610.64 903.87 611.21 902.88
  Z"
/>
<path fill="#fefefe" d="
  M 719.91 896.08
  C 726.11 898.64 729.30 904.73 730.39 911.09
  Q 732.73 924.71 730.28 937.55
  C 727.41 952.58 715.42 955.89 701.87 953.64
  C 692.58 952.10 688.46 944.90 687.22 936.15
  Q 685.65 925.08 687.11 914.01
  C 687.88 908.19 690.06 902.22 694.75 898.49
  C 701.07 893.46 712.70 893.10 719.91 896.08
  Z
  M 716.34 914.41
  C 715.87 909.13 713.88 903.02 707.07 904.53
  C 703.33 905.36 701.87 910.08 701.53 913.43
  Q 700.55 923.21 701.40 934.39
  C 701.79 939.39 703.83 945.53 710.17 944.42
  Q 714.67 943.64 715.80 937.56
  Q 717.57 928.05 716.34 914.41
  Z"
/>
<path fill="#fefefe" d="
  M 846.68 947.64
  C 843.20 953.64 837.14 954.60 830.93 954.14
  C 820.58 953.37 817.73 943.28 818.84 934.49
  Q 820.15 924.07 830.44 921.12
  Q 836.78 919.30 842.78 917.61
  Q 846.89 916.46 847.20 912.28
  Q 847.81 903.77 839.59 904.31
  C 834.98 904.60 833.35 908.53 833.59 912.61
  Q 833.63 913.28 832.96 913.28
  L 821.01 913.28
  Q 820.43 913.28 820.42 912.70
  C 820.24 896.37 832.99 893.10 846.35 894.61
  C 855.48 895.65 861.06 900.20 861.17 909.77
  Q 861.38 928.45 861.20 941.94
  Q 861.12 947.35 862.77 952.41
  Q 862.96 953.02 862.32 953.02
  L 849.43 953.02
  Q 848.84 953.02 848.68 952.46
  L 847.34 947.72
  Q 847.11 946.89 846.68 947.64
  Z
  M 832.91 939.38
  C 833.50 942.89 835.35 944.88 839.22 944.47
  Q 847.26 943.62 847.26 934.78
  Q 847.27 929.96 847.25 925.09
  Q 847.25 924.31 846.63 924.78
  C 843.33 927.28 839.03 927.03 835.76 929.43
  Q 831.71 932.39 832.91 939.38
  Z"
/>
<path fill="#fefefe" d="
  M 885.18 902.10
  Q 892.08 891.66 905.29 895.17
  C 912.02 896.95 914.17 903.51 914.19 909.90
  Q 914.23 930.35 914.20 952.38
  Q 914.20 953.02 913.56 953.02
  L 899.80 953.02
  Q 899.49 953.02 899.49 952.71
  Q 899.55 932.49 899.46 911.55
  C 899.42 903.82 889.24 903.85 886.49 909.36
  Q 885.47 911.41 885.46 916.27
  Q 885.42 933.66 885.44 952.39
  Q 885.44 953.02 884.81 953.02
  L 871.26 953.02
  Q 870.75 953.02 870.75 952.51
  L 870.75 896.26
  Q 870.75 895.76 871.24 895.76
  L 884.27 895.77
  Q 884.77 895.77 884.77 896.27
  L 884.76 901.98
  Q 884.76 902.75 885.18 902.10
  Z"
/>
<path fill="#fefefe" d="
  M 998.04 932.17
  C 997.14 942.24 993.40 951.56 982.35 953.61
  C 977.88 954.44 972.92 954.44 968.47 953.59
  C 959.33 951.84 955.39 944.77 954.19 936.30
  Q 952.31 923.05 954.47 911.69
  Q 957.41 896.29 971.92 894.53
  C 983.36 893.15 993.59 896.22 996.72 908.54
  Q 999.27 918.59 998.04 932.17
  Z
  M 968.29 914.80
  Q 967.85 921.99 968.04 930.50
  C 968.18 936.49 969.09 945.82 977.53 944.36
  C 986.02 942.88 983.75 918.21 982.99 912.50
  Q 982.48 908.78 980.62 906.44
  C 978.02 903.17 972.50 903.63 970.40 907.27
  Q 968.56 910.47 968.29 914.80
  Z"
/>
<rect fill="#fefefe" x="572.48" y="895.76" width="14.56" height="57.26" rx="0.27"/>
<rect fill="#fefefe" x="632.24" y="895.76" width="14.64" height="57.26" rx="0.27"/>
<path fill="#fefefe" d="
  M 230.69 1070.48
  C 235.26 1071.91 242.06 1070.81 243.58 1065.46
  C 246.39 1055.58 239.76 1051.78 231.90 1049.19
  C 220.84 1045.54 211.35 1040.83 210.71 1027.72
  C 210.22 1017.64 213.23 1008.92 223.04 1005.26
  Q 230.62 1002.42 240.03 1003.80
  Q 258.11 1006.45 257.68 1025.44
  Q 257.67 1025.89 257.22 1025.89
  L 243.69 1025.88
  Q 242.95 1025.88 242.96 1025.14
  C 243.13 1017.88 239.52 1013.24 231.60 1015.00
  C 226.70 1016.09 225.50 1020.73 226.04 1025.27
  Q 226.69 1030.65 231.76 1032.87
  Q 240.04 1036.50 248.07 1040.13
  Q 261.19 1046.05 260.07 1060.91
  Q 259.62 1066.97 257.63 1071.03
  C 251.91 1082.71 233.46 1083.48 223.13 1080.75
  C 212.13 1077.83 209.14 1068.06 209.54 1057.78
  Q 209.56 1057.13 210.21 1057.13
  L 224.25 1057.14
  Q 224.85 1057.14 224.85 1057.74
  C 224.83 1062.73 224.89 1068.68 230.69 1070.48
  Z"
/>
<path fill="#fefefe" d="
  M 412.37 1021.42
  Q 411.20 1030.14 419.12 1033.42
  Q 428.25 1037.20 435.21 1040.53
  C 445.79 1045.60 447.95 1055.32 445.72 1066.00
  C 442.46 1081.63 423.93 1083.78 410.76 1081.06
  C 398.74 1078.57 395.31 1068.43 395.96 1057.44
  Q 395.97 1057.13 396.29 1057.13
  L 410.85 1057.15
  A 0.41 0.40 2.0 0 1 411.26 1057.58
  Q 410.97 1061.60 411.83 1065.06
  C 413.21 1070.66 419.90 1072.05 424.56 1070.52
  Q 430.10 1068.71 430.49 1062.51
  C 430.94 1055.36 426.37 1051.92 420.32 1049.94
  C 410.78 1046.82 400.35 1043.05 397.77 1032.47
  Q 395.89 1024.78 398.18 1017.08
  C 401.49 1005.94 412.68 1002.76 423.37 1003.46
  C 436.26 1004.30 444.42 1011.10 444.00 1025.25
  Q 443.98 1025.89 443.34 1025.89
  L 429.96 1025.88
  Q 429.31 1025.88 429.31 1025.24
  C 429.25 1019.83 427.61 1014.74 421.25 1014.59
  C 416.65 1014.49 413.02 1016.58 412.37 1021.42
  Z"
/>
<path fill="#fefefe" d="
  M 776.78 1014.99
  C 765.43 1012.28 764.87 1026.01 764.58 1033.69
  Q 764.17 1044.86 764.75 1055.68
  Q 765.05 1061.17 766.76 1066.00
  Q 768.45 1070.76 773.47 1071.07
  C 778.36 1071.38 781.24 1068.96 782.43 1064.39
  Q 784.04 1058.24 783.74 1052.40
  Q 783.71 1051.83 784.27 1051.83
  L 798.48 1051.84
  Q 799.05 1051.84 799.05 1052.41
  C 799.28 1073.28 790.76 1084.43 769.15 1081.64
  C 756.51 1080.01 751.06 1070.57 749.92 1059.00
  Q 748.13 1040.66 750.23 1024.66
  Q 750.92 1019.39 753.44 1014.48
  C 758.22 1005.18 767.35 1002.96 777.36 1003.43
  Q 785.27 1003.80 790.23 1007.55
  C 797.29 1012.88 798.38 1021.40 798.48 1029.84
  Q 798.48 1030.50 797.82 1030.50
  L 783.76 1030.50
  Q 783.12 1030.50 783.14 1029.86
  C 783.25 1024.29 782.64 1016.40 776.78 1014.99
  Z"
/>
<path fill="#fefefe" d="
  M 282.52 1051.23
  L 282.52 1080.49
  Q 282.52 1080.87 282.14 1080.87
  L 267.80 1080.85
  Q 267.25 1080.85 267.25 1080.30
  L 267.25 1005.47
  Q 267.25 1004.80 267.92 1004.81
  Q 278.32 1004.99 289.02 1004.80
  Q 298.28 1004.63 302.16 1006.10
  C 313.00 1010.22 315.96 1021.38 314.61 1032.06
  Q 313.77 1038.77 309.87 1043.30
  C 303.29 1050.96 292.41 1050.73 283.31 1050.46
  Q 282.52 1050.44 282.52 1051.23
  Z
  M 282.56 1016.43
  L 282.44 1038.85
  A 0.39 0.39 0.0 0 0 282.83 1039.24
  L 289.90 1039.27
  A 9.74 9.64 -89.7 0 0 299.59 1029.58
  L 299.61 1025.86
  A 9.74 9.64 -89.7 0 0 290.02 1016.07
  L 282.95 1016.04
  A 0.39 0.39 0.0 0 0 282.56 1016.43
  Z"
/>
<path fill="#fefefe" d="
  M 337.71 1035.30
  L 362.63 1035.31
  A 0.33 0.33 0.0 0 1 362.96 1035.64
  L 362.96 1047.48
  A 0.33 0.33 0.0 0 1 362.63 1047.81
  L 337.71 1047.78
  A 0.33 0.33 0.0 0 0 337.38 1048.11
  L 337.38 1068.00
  A 0.33 0.33 0.0 0 0 337.71 1068.33
  L 365.21 1068.33
  A 0.33 0.33 0.0 0 1 365.54 1068.66
  L 365.58 1080.54
  A 0.33 0.33 0.0 0 1 365.25 1080.87
  L 322.42 1080.87
  A 0.33 0.33 0.0 0 1 322.09 1080.54
  L 322.09 1005.19
  A 0.33 0.33 0.0 0 1 322.42 1004.86
  L 364.18 1004.87
  A 0.33 0.33 0.0 0 1 364.51 1005.20
  L 364.51 1017.05
  A 0.33 0.33 0.0 0 1 364.18 1017.38
  L 337.70 1017.38
  A 0.33 0.33 0.0 0 0 337.37 1017.71
  L 337.38 1034.97
  A 0.33 0.33 0.0 0 0 337.71 1035.30
  Z"
/>
<path fill="#fefefe" d="
  M 567.58 1075.69
  Q 567.59 1074.38 566.89 1075.49
  Q 563.13 1081.52 555.93 1081.96
  C 541.43 1082.85 537.89 1071.31 537.08 1059.62
  Q 536.47 1050.87 537.33 1042.30
  C 538.36 1031.97 542.13 1022.20 554.32 1022.13
  Q 561.90 1022.09 566.17 1028.28
  Q 566.98 1029.44 566.98 1028.02
  L 566.98 1005.44
  Q 566.98 1004.87 567.56 1004.87
  L 581.21 1004.86
  Q 581.55 1004.86 581.55 1005.21
  L 581.55 1080.28
  Q 581.55 1080.86 580.97 1080.86
  L 568.08 1080.85
  Q 567.56 1080.85 567.56 1080.33
  L 567.58 1075.69
  Z
  M 566.01 1040.24
  Q 564.79 1032.77 558.45 1033.39
  C 553.79 1033.84 552.56 1037.87 552.08 1041.82
  Q 550.75 1052.80 552.24 1063.76
  Q 552.60 1066.35 553.87 1068.43
  C 555.79 1071.54 560.72 1071.96 563.34 1069.72
  Q 565.35 1068.01 565.84 1065.22
  Q 568.05 1052.73 566.01 1040.24
  Z"
/>
<path fill="#fefefe" d="
  M 821.26 1028.76
  Q 821.26 1029.86 821.85 1028.93
  C 825.91 1022.56 833.69 1021.00 840.50 1022.74
  C 847.97 1024.66 850.07 1031.19 850.05 1038.08
  Q 849.98 1059.56 850.04 1080.28
  Q 850.04 1080.87 849.45 1080.87
  L 836.03 1080.86
  Q 835.36 1080.86 835.36 1080.19
  Q 835.39 1061.44 835.36 1040.95
  C 835.35 1037.27 834.52 1033.81 830.22 1033.43
  C 822.36 1032.73 821.16 1038.41 821.21 1045.00
  Q 821.33 1064.18 821.25 1080.26
  Q 821.24 1080.87 820.64 1080.87
  L 807.30 1080.85
  Q 806.62 1080.85 806.62 1080.17
  L 806.62 1005.50
  Q 806.62 1004.87 807.25 1004.87
  L 820.69 1004.87
  Q 821.26 1004.87 821.26 1005.44
  L 821.26 1028.76
  Z"
/>
<path fill="#fefefe" d="
  M 471.78 1034.23
  Q 471.79 1048.58 471.77 1064.77
  C 471.77 1070.69 474.53 1071.30 479.73 1070.73
  Q 480.35 1070.66 480.35 1071.29
  L 480.36 1079.77
  Q 480.36 1080.81 479.33 1080.88
  Q 472.63 1081.36 466.06 1080.93
  C 458.80 1080.47 457.26 1075.14 457.24 1069.06
  Q 457.19 1051.74 457.23 1034.16
  Q 457.23 1033.62 456.70 1033.58
  Q 453.23 1033.36 451.52 1033.62
  Q 449.74 1033.91 449.74 1032.10
  L 449.74 1024.94
  Q 449.74 1023.19 451.46 1023.50
  Q 453.38 1023.85 456.73 1023.52
  Q 457.22 1023.47 457.22 1022.99
  L 457.22 1007.76
  Q 457.22 1007.24 457.74 1007.24
  L 471.26 1007.24
  Q 471.79 1007.24 471.79 1007.76
  L 471.79 1022.95
  Q 471.79 1023.61 472.45 1023.61
  L 480.04 1023.62
  Q 480.31 1023.62 480.31 1023.89
  L 480.33 1033.22
  Q 480.33 1033.52 480.03 1033.53
  L 472.47 1033.53
  Q 471.78 1033.53 471.78 1034.23
  Z"
/>
<path fill="#fefefe" d="
  M 696.38 1022.98
  L 696.37 1007.81
  Q 696.37 1007.24 696.94 1007.24
  L 710.50 1007.24
  Q 711.01 1007.24 711.01 1007.75
  L 711.01 1022.93
  Q 711.01 1023.61 711.69 1023.61
  L 719.38 1023.62
  Q 719.51 1023.62 719.51 1023.75
  L 719.53 1033.25
  Q 719.53 1033.53 719.25 1033.53
  L 711.68 1033.53
  Q 711.02 1033.53 711.02 1034.19
  Q 710.97 1050.41 711.06 1066.05
  C 711.09 1070.82 714.86 1071.39 718.59 1070.72
  Q 719.52 1070.55 719.52 1071.49
  L 719.52 1079.83
  Q 719.52 1080.74 718.62 1080.81
  Q 710.18 1081.55 703.94 1080.76
  C 697.13 1079.89 696.38 1073.27 696.38 1067.77
  Q 696.37 1051.45 696.38 1034.22
  Q 696.38 1033.71 695.87 1033.66
  Q 692.51 1033.30 690.79 1033.61
  Q 688.97 1033.94 688.97 1032.09
  L 688.97 1024.94
  Q 688.97 1023.16 690.72 1023.51
  Q 692.58 1023.88 695.94 1023.47
  Q 696.38 1023.42 696.38 1022.98
  Z"
/>
<path fill="#fefefe" d="
  M 980.54 1023.61
  L 987.56 1023.62
  Q 988.49 1023.62 988.49 1024.55
  L 988.49 1032.52
  Q 988.49 1033.53 987.48 1033.53
  L 980.52 1033.53
  Q 979.99 1033.53 979.99 1034.06
  Q 979.92 1048.65 980.00 1064.72
  C 980.02 1068.20 980.55 1070.81 984.48 1070.89
  Q 986.59 1070.94 987.56 1070.74
  Q 988.50 1070.54 988.49 1071.49
  L 988.49 1080.03
  Q 988.49 1080.83 987.69 1080.87
  Q 982.02 1081.16 976.72 1081.14
  C 967.41 1081.11 965.33 1076.50 965.30 1068.06
  Q 965.24 1050.53 965.28 1034.09
  Q 965.29 1033.53 964.73 1033.53
  L 958.94 1033.53
  Q 957.84 1033.53 957.85 1032.44
  L 957.86 1024.76
  Q 957.86 1023.63 958.99 1023.62
  L 964.71 1023.61
  Q 965.27 1023.61 965.27 1023.04
  L 965.28 1007.85
  Q 965.28 1007.24 965.90 1007.24
  L 979.36 1007.24
  Q 979.97 1007.24 979.97 1007.85
  L 979.98 1023.04
  Q 979.98 1023.61 980.54 1023.61
  Z"
/>
<path fill="#fefefe" d="
  M 603.78 1055.10
  C 603.43 1060.82 603.79 1074.33 612.86 1072.20
  C 617.33 1071.15 618.16 1066.25 618.77 1062.23
  Q 618.86 1061.62 619.48 1061.62
  L 631.46 1061.62
  Q 632.02 1061.62 631.99 1062.18
  C 631.57 1069.97 628.73 1077.65 620.98 1080.49
  C 614.50 1082.86 604.03 1082.78 598.18 1078.92
  Q 591.44 1074.48 590.14 1065.71
  Q 587.87 1050.45 590.54 1037.95
  C 592.71 1027.77 599.78 1022.71 609.71 1022.16
  C 631.10 1020.98 633.31 1037.29 632.85 1053.91
  Q 632.83 1054.47 632.28 1054.47
  L 604.45 1054.47
  Q 603.82 1054.47 603.78 1055.10
  Z
  M 604.07 1045.72
  L 618.49 1045.82
  A 0.30 0.30 0.0 0 0 618.79 1045.52
  L 618.81 1042.52
  A 10.42 6.74 -89.6 0 0 612.15 1032.06
  L 610.61 1032.04
  A 10.42 6.74 -89.6 0 0 603.80 1042.42
  L 603.77 1045.42
  A 0.30 0.30 0.0 0 0 604.07 1045.72
  Z"
/>
<path fill="#fefefe" d="
  M 654.77 1029.67
  Q 661.61 1019.62 674.36 1022.90
  Q 683.48 1025.25 683.56 1037.03
  Q 683.72 1057.99 683.62 1080.22
  Q 683.62 1080.86 682.98 1080.86
  L 669.63 1080.87
  Q 668.97 1080.87 668.97 1080.20
  Q 669.06 1059.35 668.95 1040.21
  Q 668.91 1032.91 662.11 1033.37
  C 656.65 1033.74 654.88 1037.74 654.88 1042.46
  Q 654.87 1061.14 654.88 1080.24
  Q 654.88 1080.87 654.25 1080.87
  L 640.80 1080.85
  Q 640.24 1080.85 640.24 1080.30
  L 640.24 1024.19
  Q 640.24 1023.61 640.81 1023.61
  L 653.69 1023.62
  Q 654.26 1023.62 654.26 1024.19
  L 654.24 1029.51
  Q 654.24 1030.46 654.77 1029.67
  Z"
/>
<path fill="#fefefe" d="
  M 885.17 1075.45
  C 883.58 1078.23 881.33 1080.36 878.24 1081.15
  C 873.35 1082.41 867.01 1082.75 862.79 1079.63
  C 856.53 1074.99 856.20 1064.57 858.38 1057.96
  C 860.17 1052.55 865.48 1049.76 870.79 1048.35
  Q 876.17 1046.92 881.42 1045.39
  C 887.91 1043.49 887.21 1032.66 880.23 1032.12
  Q 871.74 1031.46 872.14 1040.68
  A 0.43 0.43 0.0 0 1 871.71 1041.13
  L 859.53 1041.13
  Q 859.02 1041.13 858.99 1040.61
  C 858.50 1030.34 864.22 1023.67 874.32 1022.46
  Q 882.14 1021.52 889.03 1023.23
  C 898.39 1025.56 899.85 1032.58 899.81 1041.73
  Q 899.74 1056.94 899.78 1071.32
  Q 899.79 1075.98 901.40 1080.47
  Q 901.55 1080.87 901.13 1080.87
  L 887.99 1080.86
  Q 887.36 1080.86 887.20 1080.26
  L 885.87 1075.54
  Q 885.62 1074.65 885.17 1075.45
  Z
  M 885.08 1052.69
  C 880.23 1056.47 872.57 1054.27 871.32 1062.41
  C 870.59 1067.17 871.94 1073.46 878.48 1072.22
  C 883.84 1071.20 885.99 1067.39 885.82 1062.09
  Q 885.67 1057.15 885.81 1053.06
  Q 885.84 1052.10 885.08 1052.69
  Z"
/>
<path fill="#fefefe" d="
  M 923.27 1028.74
  Q 923.27 1030.28 924.06 1028.96
  Q 928.44 1021.67 937.48 1022.16
  C 946.11 1022.62 950.68 1028.06 952.44 1035.81
  Q 954.97 1046.89 953.61 1061.74
  C 952.56 1073.28 948.06 1083.11 934.42 1081.90
  Q 928.39 1081.36 924.64 1076.05
  Q 923.99 1075.13 923.99 1076.26
  L 923.99 1098.76
  Q 923.99 1099.27 923.49 1099.27
  L 909.90 1099.26
  Q 909.28 1099.26 909.28 1098.65
  L 909.28 1024.16
  Q 909.28 1023.61 909.84 1023.61
  L 922.70 1023.62
  Q 923.28 1023.62 923.28 1024.20
  L 923.27 1028.74
  Z
  M 939.13 1059.81
  Q 940.02 1049.91 938.57 1040.27
  Q 938.15 1037.50 936.67 1035.55
  C 934.34 1032.49 928.66 1032.59 926.51 1035.85
  Q 925.06 1038.05 924.66 1041.16
  Q 923.44 1050.86 924.39 1061.30
  Q 924.74 1065.15 926.12 1067.98
  C 927.83 1071.49 933.28 1072.09 936.00 1069.64
  C 938.47 1067.41 938.85 1062.96 939.13 1059.81
  Z"
/>
<path fill="#fefefe" d="
  M 1006.34 1055.09
  Q 1005.94 1062.25 1007.56 1067.31
  C 1008.85 1071.35 1012.49 1073.57 1016.51 1071.83
  C 1019.95 1070.35 1020.89 1065.66 1021.32 1062.22
  Q 1021.39 1061.62 1021.99 1061.62
  L 1033.96 1061.62
  Q 1034.56 1061.62 1034.53 1062.22
  C 1033.96 1073.25 1028.88 1081.05 1016.79 1081.91
  C 1002.34 1082.93 993.45 1077.19 992.15 1062.25
  Q 991.28 1052.31 992.17 1043.01
  C 993.62 1028.05 1002.18 1021.27 1017.04 1022.21
  C 1026.59 1022.81 1032.64 1028.43 1034.36 1038.28
  Q 1035.68 1045.85 1035.39 1053.91
  Q 1035.37 1054.47 1034.81 1054.47
  L 1007.00 1054.47
  Q 1006.38 1054.47 1006.34 1055.09
  Z
  M 1006.93 1045.80
  L 1020.87 1045.76
  A 0.59 0.59 0.0 0 0 1021.46 1045.16
  L 1021.45 1042.78
  A 10.77 6.77 89.8 0 0 1014.65 1032.04
  L 1013.07 1032.04
  A 10.77 6.77 89.8 0 0 1006.33 1042.84
  L 1006.34 1045.22
  A 0.59 0.59 0.0 0 0 1006.93 1045.80
  Z"
/>
<path fill="#fefefe" d="
  M 1057.32 1030.87
  C 1060.76 1024.91 1065.16 1021.42 1072.21 1022.21
  Q 1072.88 1022.29 1072.88 1022.96
  L 1072.88 1035.71
  Q 1072.88 1036.40 1072.20 1036.31
  C 1063.45 1035.19 1057.29 1038.27 1057.39 1047.72
  Q 1057.54 1063.99 1057.45 1080.22
  Q 1057.44 1080.87 1056.79 1080.87
  L 1043.37 1080.85
  Q 1042.75 1080.85 1042.75 1080.24
  L 1042.75 1024.18
  Q 1042.75 1023.61 1043.32 1023.61
  L 1056.19 1023.62
  Q 1056.77 1023.62 1056.77 1024.19
  L 1056.76 1030.72
  Q 1056.76 1031.85 1057.32 1030.87
  Z"
/>
<path fill="#fefefe" d="
  M 514.14 1075.01
  C 510.12 1081.19 503.30 1082.86 496.24 1081.70
  C 486.74 1080.14 485.38 1072.51 485.44 1063.60
  Q 485.58 1043.16 485.47 1024.17
  Q 485.47 1023.61 486.03 1023.61
  L 499.74 1023.62
  A 0.39 0.38 0.0 0 1 500.13 1024.00
  Q 500.13 1043.17 500.12 1062.68
  C 500.12 1065.63 500.35 1069.97 504.03 1070.79
  C 510.26 1072.18 514.19 1068.72 514.22 1062.60
  Q 514.28 1044.02 514.23 1024.19
  Q 514.22 1023.61 514.80 1023.61
  L 528.25 1023.61
  Q 528.88 1023.61 528.88 1024.25
  L 528.88 1080.24
  Q 528.88 1080.87 528.26 1080.87
  L 515.48 1080.86
  Q 514.86 1080.86 514.86 1080.23
  L 514.90 1075.24
  Q 514.91 1073.82 514.14 1075.01
  Z"
/>
</svg>
