<?xml version="1.0" encoding="UTF-8" standalone="no"?>
<!DOCTYPE svg PUBLIC "-//W3C//DTD SVG 1.1//EN" "http://www.w3.org/Graphics/SVG/1.1/DTD/svg11.dtd">
<svg xmlns="http://www.w3.org/2000/svg" version="1.1" viewBox="0.00 0.00 512.00 512.00">
<path fill="#800000" d="
  M 143.83 0.00
  L 504.77 0.00
  Q 510.67 1.47 512.00 7.36
  L 512.00 43.82
  C 509.82 52.80 502.34 51.02 495.44 51.28
  Q 494.96 51.29 494.96 51.78
  L 494.96 238.45
  Q 494.96 238.92 495.43 238.92
  L 512.00 239.01
  L 512.00 256.01
  L 333.29 256.03
  Q 332.78 256.03 332.78 256.54
  L 332.78 293.06
  Q 332.78 293.68 333.32 293.99
  L 387.83 325.16
  A 0.45 0.44 29.5 0 1 388.00 325.76
  L 379.90 339.93
  A 0.31 0.31 0.0 0 1 379.48 340.04
  L 333.16 313.55
  A 0.25 0.25 0.0 0 0 332.78 313.77
  L 332.78 340.77
  Q 332.78 341.31 332.23 341.31
  L 316.28 341.31
  Q 315.75 341.31 315.75 340.78
  L 315.74 313.80
  A 0.24 0.24 0.0 0 0 315.38 313.59
  L 269.03 340.07
  A 0.33 0.32 60.7 0 1 268.59 339.94
  L 260.44 325.69
  A 0.32 0.32 0.0 0 1 260.56 325.25
  L 315.28 294.00
  Q 315.74 293.74 315.74 293.21
  L 315.74 256.50
  Q 315.74 256.00 315.25 256.00
  L 205.39 256.00
  Q 204.78 256.00 204.78 255.39
  L 204.78 239.46
  A 0.51 0.50 -0.0 0 1 205.29 238.96
  L 477.33 238.96
  Q 477.86 238.96 477.86 238.42
  L 477.86 51.54
  A 0.32 0.32 0.0 0 0 477.54 51.22
  L 171.24 51.22
  Q 170.69 51.22 170.69 51.77
  L 170.69 152.95
  Q 170.69 153.58 170.05 153.58
  L 154.21 153.59
  Q 153.59 153.59 153.59 152.96
  L 153.59 51.69
  A 0.45 0.44 0.7 0 0 153.15 51.25
  C 147.57 51.03 140.05 52.73 137.26 46.01
  Q 136.53 44.25 136.53 40.40
  Q 136.51 24.95 136.48 9.50
  Q 136.47 1.89 143.83 0.00
  Z
  M 494.96 17.51
  A 0.46 0.46 0.0 0 0 494.50 17.05
  L 154.04 17.05
  A 0.46 0.46 0.0 0 0 153.58 17.51
  L 153.58 33.69
  A 0.46 0.46 0.0 0 0 154.04 34.15
  L 494.50 34.15
  A 0.46 0.46 0.0 0 0 494.96 33.69
  L 494.96 17.51
  Z"
/>
<path fill="#800000" d="
  M 0.00 316.91
  L 0.00 210.89
  Q 0.83 200.63 5.08 193.09
  Q 16.81 172.27 42.10 170.56
  Q 42.87 170.51 42.39 169.89
  C 38.98 165.52 36.61 160.11 35.32 154.72
  C 33.47 147.02 34.28 138.49 34.11 130.63
  C 33.79 115.70 39.66 102.26 51.71 93.56
  C 80.33 72.91 118.82 93.24 119.46 127.91
  Q 119.63 137.05 119.39 145.99
  Q 119.03 159.45 110.98 170.26
  A 0.31 0.31 0.0 0 0 111.23 170.76
  C 130.05 170.40 146.75 183.14 153.20 200.09
  Q 153.60 201.15 153.99 200.08
  Q 157.87 189.37 162.01 177.96
  C 163.70 173.34 166.03 170.66 171.21 170.67
  Q 187.80 170.69 204.20 170.69
  C 211.02 170.69 215.06 176.65 212.50 182.99
  Q 198.92 216.68 186.22 248.71
  C 183.37 255.90 179.58 261.89 173.32 266.32
  C 156.71 278.07 133.58 273.92 122.95 256.07
  Q 121.28 253.27 119.93 250.43
  Q 119.48 249.49 119.48 250.53
  L 119.49 406.52
  A 1.98 1.92 -63.1 0 0 119.84 407.64
  Q 127.80 419.43 135.09 430.47
  C 138.01 434.90 136.23 441.06 131.23 443.03
  Q 129.32 443.78 126.64 443.78
  Q 74.78 443.71 25.87 443.74
  C 18.52 443.75 14.71 436.17 18.92 429.84
  Q 26.45 418.53 33.74 407.63
  Q 34.14 407.03 34.14 406.31
  L 34.14 324.74
  A 0.48 0.47 90.0 0 0 33.67 324.26
  Q 21.74 324.24 9.75 324.37
  Q 1.87 324.45 0.00 316.91
  Z
  M 73.96 170.47
  C 89.70 172.17 102.57 159.85 102.44 144.25
  Q 102.40 139.02 102.45 133.56
  Q 102.52 126.18 101.83 122.92
  C 96.36 97.13 60.38 95.23 52.40 120.32
  Q 50.97 124.84 51.18 130.86
  C 51.44 138.32 50.28 146.76 52.67 153.56
  C 55.91 162.74 64.19 169.42 73.96 170.47
  Z
  M 68.26 272.40
  L 68.26 188.03
  A 0.33 0.32 -0.0 0 0 67.93 187.71
  Q 57.43 187.81 45.24 187.68
  C 37.97 187.60 31.74 189.06 26.28 193.69
  Q 17.10 201.48 17.07 213.99
  Q 17.01 244.70 17.05 272.38
  Q 17.05 273.05 17.72 273.05
  L 33.52 273.04
  Q 34.15 273.04 34.15 272.41
  Q 34.15 243.33 34.14 213.79
  C 34.14 201.85 51.22 202.03 51.22 213.73
  Q 51.23 252.48 51.20 289.75
  Q 51.20 290.14 51.59 290.14
  L 102.13 290.14
  A 0.26 0.26 0.0 0 0 102.39 289.88
  Q 102.50 253.40 102.35 215.32
  Q 102.33 211.69 103.26 209.59
  C 105.40 204.75 111.84 203.21 116.01 206.45
  Q 117.87 207.89 119.07 210.33
  Q 128.63 229.77 136.85 245.99
  C 144.04 260.19 163.82 258.88 169.60 244.27
  Q 173.86 233.53 178.29 222.55
  Q 178.57 221.86 177.82 221.86
  L 164.93 221.85
  Q 164.16 221.85 163.93 222.58
  C 162.19 227.96 160.72 234.34 153.81 234.60
  C 148.93 234.78 146.42 231.56 144.84 227.23
  Q 142.28 220.18 139.82 213.03
  Q 136.74 204.07 134.03 200.00
  C 127.88 190.79 118.39 187.46 107.38 187.67
  Q 96.43 187.87 85.86 187.69
  A 0.54 0.54 0.0 0 0 85.31 188.23
  L 85.31 272.49
  Q 85.31 273.04 84.76 273.04
  L 68.90 273.05
  Q 68.26 273.05 68.26 272.40
  Z
  M 192.03 188.17
  A 0.33 0.33 0.0 0 0 191.72 187.72
  L 176.86 187.75
  A 0.33 0.33 0.0 0 0 176.55 187.97
  L 170.60 204.34
  A 0.33 0.33 0.0 0 0 170.91 204.78
  L 185.15 204.78
  A 0.33 0.33 0.0 0 0 185.45 204.57
  L 192.03 188.17
  Z
  M 34.15 290.55
  A 0.41 0.41 0.0 0 0 33.74 290.14
  L 17.46 290.14
  A 0.41 0.41 0.0 0 0 17.05 290.55
  L 17.05 306.81
  A 0.41 0.41 0.0 0 0 17.46 307.22
  L 33.74 307.22
  A 0.41 0.41 0.0 0 0 34.15 306.81
  L 34.15 290.55
  Z
  M 69.00 324.26
  L 84.78 324.26
  Q 85.31 324.26 85.31 324.78
  L 85.31 426.25
  A 0.44 0.44 0.0 0 0 85.75 426.69
  L 111.29 426.69
  Q 112.03 426.69 111.63 426.07
  Q 108.04 420.55 104.00 414.64
  C 102.94 413.08 102.41 411.25 102.42 409.40
  Q 102.48 356.53 102.40 307.65
  A 0.43 0.42 -90.0 0 0 101.98 307.22
  L 51.79 307.22
  Q 51.23 307.22 51.23 307.77
  Q 51.21 359.33 51.22 409.47
  Q 51.22 412.03 49.84 414.15
  Q 45.97 420.12 41.78 426.28
  A 0.26 0.26 0.0 0 0 42.00 426.69
  L 67.79 426.69
  A 0.48 0.47 -90.0 0 0 68.26 426.21
  L 68.26 325.00
  Q 68.26 324.26 69.00 324.26
  Z"
/>
<path fill="#800000" d="
  M 397.06 105.88
  L 382.52 102.29
  Q 381.92 102.14 382.07 101.53
  L 385.98 86.00
  A 0.46 0.46 0.0 0 1 386.54 85.66
  Q 401.53 89.49 418.78 93.68
  C 423.54 94.84 426.62 97.64 426.65 102.80
  Q 426.73 118.57 426.65 136.14
  Q 426.65 136.52 426.27 136.52
  L 410.17 136.52
  Q 409.58 136.52 409.58 135.92
  L 409.60 119.32
  A 0.29 0.28 -17.5 0 0 409.15 119.09
  Q 374.63 143.33 337.67 169.13
  C 334.35 171.45 330.26 171.00 327.20 168.56
  Q 308.58 153.68 290.11 138.90
  A 0.42 0.42 0.0 0 0 289.60 138.89
  L 235.96 177.19
  Q 235.37 177.61 234.95 177.02
  L 225.82 164.25
  Q 225.45 163.73 225.96 163.37
  Q 254.85 142.76 284.91 121.26
  C 288.24 118.87 292.27 118.81 295.68 121.52
  Q 312.35 134.79 332.69 151.12
  Q 333.16 151.49 333.65 151.15
  L 397.20 106.66
  Q 397.98 106.11 397.06 105.88
  Z"
/>
<path fill="#800000" d="
  M 512.00 483.85
  L 512.00 512.00
  L 494.95 512.00
  Q 494.98 499.00 494.79 486.00
  C 494.57 471.16 482.97 460.75 468.18 460.78
  Q 448.00 460.83 423.10 460.70
  Q 414.44 460.65 410.43 461.97
  C 400.02 465.41 392.44 475.17 392.49 486.25
  Q 392.56 499.13 392.48 512.00
  L 375.47 512.00
  Q 375.50 499.12 375.38 486.25
  C 375.27 475.15 368.48 465.79 358.12 462.15
  Q 353.73 460.61 344.67 460.69
  Q 321.10 460.89 300.06 460.74
  C 284.40 460.63 272.91 471.94 273.00 487.50
  Q 273.08 499.75 273.01 512.00
  L 255.99 512.00
  Q 256.02 499.12 255.91 486.25
  C 255.82 475.06 248.79 465.50 238.30 462.02
  Q 234.00 460.60 223.95 460.70
  Q 204.01 460.90 181.98 460.71
  C 174.98 460.65 168.73 461.96 163.34 466.34
  Q 153.53 474.33 153.56 487.25
  Q 153.59 499.63 153.57 512.00
  L 136.57 512.00
  Q 136.47 502.79 136.51 493.58
  Q 136.57 480.79 137.90 475.70
  C 142.08 459.78 154.85 447.95 171.06 444.61
  A 0.31 0.31 0.0 0 0 171.24 444.11
  C 164.23 435.19 161.97 425.76 162.07 414.05
  Q 162.13 406.44 162.27 399.03
  C 162.61 381.81 174.63 366.60 190.64 360.86
  C 205.93 355.38 223.08 359.31 234.53 370.55
  Q 247.08 382.87 247.42 400.86
  Q 247.57 408.62 247.44 418.09
  Q 247.24 432.76 238.31 444.17
  A 0.26 0.26 0.0 0 0 238.46 444.58
  Q 254.58 448.08 264.14 460.61
  Q 264.52 461.10 264.90 460.61
  Q 274.69 447.97 290.44 444.63
  Q 290.99 444.51 290.64 444.07
  C 284.32 435.95 281.46 426.52 281.57 416.21
  Q 281.64 409.97 281.54 403.79
  Q 281.19 382.31 296.14 369.05
  C 313.31 353.83 339.67 355.16 355.33 371.89
  Q 366.72 384.06 366.94 401.55
  Q 367.04 409.71 366.92 418.13
  Q 366.72 432.58 357.89 444.07
  Q 357.52 444.54 358.11 444.66
  Q 373.61 447.80 383.73 460.70
  A 0.35 0.34 -45.1 0 0 384.28 460.69
  Q 394.26 447.88 409.99 444.63
  A 0.32 0.31 -25.5 0 0 410.17 444.13
  Q 401.24 432.86 401.13 418.19
  C 401.07 410.99 400.62 402.94 401.45 396.00
  Q 403.64 377.77 418.84 366.49
  C 444.91 347.12 483.37 364.51 486.10 396.74
  Q 486.65 403.19 486.41 417.59
  Q 486.16 432.87 477.28 444.13
  A 0.30 0.29 -65.5 0 0 477.45 444.60
  C 496.72 448.54 510.34 464.10 512.00 483.85
  Z
  M 180.59 426.34
  C 189.30 451.05 224.05 448.63 229.74 423.45
  Q 230.64 419.46 230.48 412.97
  Q 230.33 407.31 230.38 401.37
  C 230.55 381.95 209.56 369.03 192.44 378.68
  C 183.12 383.94 178.87 392.91 179.19 403.39
  C 179.42 410.83 178.23 419.64 180.59 426.34
  Z
  M 308.61 380.84
  C 303.09 385.08 298.81 392.46 298.76 399.53
  Q 298.71 407.15 298.63 415.55
  Q 298.57 422.57 300.16 426.76
  C 308.03 447.53 336.35 449.85 346.87 430.07
  Q 349.69 424.79 349.77 419.39
  Q 349.89 411.57 349.89 402.33
  Q 349.89 396.40 348.14 391.88
  C 341.93 375.87 322.21 370.39 308.61 380.84
  Z
  M 466.35 430.01
  Q 469.15 424.94 469.22 419.49
  Q 469.31 412.31 469.37 403.20
  Q 469.41 396.54 467.66 392.01
  C 458.92 369.47 427.10 370.28 419.44 393.10
  Q 417.93 397.61 418.09 403.79
  C 418.30 411.42 417.11 420.31 419.82 427.22
  C 428.03 448.14 455.76 449.18 466.35 430.01
  Z"
/>
</svg>
