<?xml version="1.0" encoding="UTF-8" standalone="no"?>
<!DOCTYPE svg PUBLIC "-//W3C//DTD SVG 1.1//EN" "http://www.w3.org/Graphics/SVG/1.1/DTD/svg11.dtd">
<svg xmlns="http://www.w3.org/2000/svg" version="1.1" viewBox="0.00 0.00 512.00 512.00">
<path fill="#800000" d="
  M 251.58 0.00
  L 260.51 0.00
  Q 297.84 2.60 322.43 29.32
  C 348.87 58.05 353.58 101.58 333.71 135.25
  C 302.95 187.39 231.38 195.52 190.17 151.20
  C 158.36 116.98 157.64 63.78 190.01 28.94
  Q 214.32 2.78 251.58 0.00
  Z
  M 325.98 89.99
  A 69.98 69.98 0.0 0 0 256.00 20.01
  A 69.98 69.98 0.0 0 0 186.02 89.99
  A 69.98 69.98 0.0 0 0 256.00 159.97
  A 69.98 69.98 0.0 0 0 325.98 89.99
  Z"
/>
<path fill="#800000" d="
  M 387.21 512.00
  L 299.68 512.00
  C 290.41 510.02 287.49 498.15 296.11 493.32
  Q 298.60 491.93 302.71 491.94
  Q 340.06 492.07 375.22 491.97
  A 0.78 0.78 0.0 0 0 376.00 491.19
  L 376.00 446.75
  A 0.75 0.75 0.0 0 0 375.25 446.00
  L 136.25 446.00
  A 0.25 0.25 0.0 0 0 136.00 446.25
  L 136.00 491.03
  A 0.96 0.96 0.0 0 0 136.96 491.99
  Q 175.21 492.03 210.18 491.97
  C 223.33 491.95 224.93 509.63 212.18 512.00
  L 124.66 512.00
  Q 115.99 509.86 116.00 499.99
  Q 116.02 472.24 115.98 446.59
  Q 115.98 446.02 115.40 446.01
  C 107.45 445.84 99.16 447.93 96.13 437.94
  Q 87.37 409.07 78.53 379.67
  Q 78.32 378.99 77.63 378.78
  Q 70.30 376.59 65.06 371.41
  C 48.92 355.46 55.42 327.58 77.54 321.27
  Q 82.65 319.81 90.86 319.91
  Q 107.69 320.12 126.05 319.95
  A 0.33 0.32 -87.0 0 0 126.37 319.65
  Q 130.48 274.54 160.78 241.62
  C 179.52 221.25 204.70 207.46 231.51 202.35
  C 307.86 187.78 378.76 242.52 385.55 319.38
  Q 385.61 320.00 386.23 320.00
  L 415.25 320.00
  A 0.75 0.75 0.0 0 0 416.00 319.25
  L 416.00 254.54
  Q 416.00 254.13 415.71 253.85
  L 399.44 237.58
  Q 398.97 237.10 398.34 237.36
  Q 383.02 243.64 369.65 235.05
  C 353.19 224.48 351.23 200.79 366.09 187.62
  C 380.09 175.21 401.99 178.45 411.55 194.39
  Q 419.43 207.53 413.34 222.41
  Q 413.11 222.98 413.54 223.41
  Q 423.23 233.09 432.80 242.64
  C 436.41 246.24 436.00 249.61 436.00 255.55
  Q 435.98 288.37 436.02 321.20
  Q 436.02 321.72 436.51 321.91
  C 461.81 331.86 462.67 367.04 437.46 377.67
  Q 435.79 378.37 434.17 378.92
  Q 433.68 379.09 433.53 379.58
  Q 424.27 410.30 415.64 438.62
  C 412.80 447.90 403.87 445.77 396.51 446.01
  Q 396.04 446.03 396.03 446.51
  Q 395.87 471.37 396.10 494.78
  C 396.19 503.30 396.41 509.83 387.21 512.00
  Z
  M 395.97 210.00
  A 9.97 9.97 0.0 0 0 386.00 200.03
  A 9.97 9.97 0.0 0 0 376.03 210.00
  A 9.97 9.97 0.0 0 0 386.00 219.97
  A 9.97 9.97 0.0 0 0 395.97 210.00
  Z
  M 281.58 223.03
  C 216.12 207.74 153.63 252.79 146.49 319.38
  Q 146.42 320.00 147.04 320.00
  L 365.22 320.00
  A 0.29 0.29 0.0 0 0 365.51 319.68
  C 360.87 273.28 327.50 233.77 281.58 223.03
  Z
  M 435.96 349.93
  A 9.93 9.93 0.0 0 0 426.03 340.00
  L 85.97 340.00
  A 9.93 9.93 0.0 0 0 76.04 349.93
  L 76.04 350.07
  A 9.93 9.93 0.0 0 0 85.97 360.00
  L 426.03 360.00
  A 9.93 9.93 0.0 0 0 435.96 350.07
  L 435.96 349.93
  Z
  M 99.92 380.00
  A 0.33 0.33 0.0 0 0 99.61 380.43
  L 113.35 425.77
  A 0.33 0.33 0.0 0 0 113.66 426.00
  L 398.34 426.00
  A 0.33 0.33 0.0 0 0 398.65 425.77
  L 412.39 380.43
  A 0.33 0.33 0.0 0 0 412.08 380.00
  L 99.92 380.00
  Z"
/>
<path fill="#800000" d="
  M 257.18 512.00
  L 254.71 512.00
  C 245.36 509.81 242.53 498.67 251.04 493.43
  C 258.50 488.84 267.93 495.90 265.56 504.68
  Q 263.98 510.50 257.18 512.00
  Z"
/>
</svg>
