<?xml version="1.0" encoding="UTF-8" standalone="no"?>
<!DOCTYPE svg PUBLIC "-//W3C//DTD SVG 1.1//EN" "http://www.w3.org/Graphics/SVG/1.1/DTD/svg11.dtd">
<svg xmlns="http://www.w3.org/2000/svg" version="1.1" viewBox="0.00 0.00 512.00 512.00">
<path fill="#800000" d="
  M 69.37 0.00
  L 133.81 0.00
  C 142.37 1.95 142.89 7.72 142.82 15.48
  Q 142.58 42.07 142.75 67.44
  Q 142.75 67.96 143.25 68.14
  L 222.97 96.22
  Q 223.45 96.39 223.86 96.10
  Q 243.57 82.54 266.21 86.71
  C 286.96 90.54 302.97 105.84 308.92 125.97
  Q 309.09 126.55 309.66 126.75
  Q 382.05 152.25 454.42 177.75
  C 459.24 179.45 464.16 180.94 468.16 183.67
  C 491.82 199.80 482.98 236.20 454.58 239.88
  Q 454.02 239.96 454.02 240.52
  L 454.02 294.75
  Q 454.02 295.32 454.56 295.51
  Q 473.57 302.20 478.78 320.69
  C 484.12 339.63 472.73 358.54 454.61 364.39
  Q 454.02 364.58 454.02 365.20
  L 454.02 412.31
  A 0.45 0.45 0.0 0 0 454.46 412.76
  Q 461.14 412.85 468.64 412.74
  C 475.45 412.64 480.62 416.15 480.61 423.48
  Q 480.52 459.38 480.60 491.39
  Q 480.60 491.89 481.10 491.90
  Q 495.14 492.18 499.48 492.01
  Q 509.99 491.58 512.00 501.02
  L 512.00 503.05
  Q 510.58 510.43 503.18 512.00
  L 8.68 512.00
  Q 1.42 510.36 0.00 503.12
  L 0.00 500.74
  Q 2.07 491.91 10.74 491.97
  Q 20.88 492.04 30.98 491.99
  A 0.39 0.39 0.0 0 0 31.36 491.60
  Q 31.43 459.20 31.33 424.24
  C 31.31 416.82 35.65 412.62 43.05 412.74
  Q 49.91 412.85 56.88 412.76
  Q 57.33 412.76 57.33 412.30
  L 57.34 192.10
  A 0.37 0.36 0.8 0 0 56.98 191.74
  Q 50.97 191.56 44.74 191.76
  C 35.36 192.04 30.71 188.66 30.74 179.21
  Q 30.88 122.91 30.96 68.45
  Q 30.96 66.44 32.00 64.38
  Q 46.69 35.18 61.61 6.10
  Q 64.14 1.17 69.37 0.00
  Z
  M 76.79 20.44
  C 68.37 36.46 60.25 52.69 51.92 68.73
  Q 50.93 70.64 50.93 72.70
  Q 50.86 122.05 50.79 171.22
  Q 50.79 171.69 51.25 171.69
  L 85.96 171.69
  Q 86.38 171.69 86.52 171.29
  L 122.45 73.93
  Q 122.72 73.21 122.72 72.44
  L 122.72 20.36
  A 0.36 0.36 0.0 0 0 122.36 20.00
  L 77.52 20.00
  Q 77.02 20.00 76.79 20.44
  Z
  M 131.28 107.78
  A 0.41 0.41 0.0 0 0 131.53 108.31
  L 201.26 132.85
  A 0.36 0.35 13.6 0 0 201.73 132.57
  Q 203.29 122.04 208.66 112.88
  A 0.39 0.38 -65.3 0 0 208.46 112.32
  L 139.22 87.93
  Q 138.67 87.74 138.47 88.29
  L 131.28 107.78
  Z
  M 290.86 140.60
  A 34.87 34.87 0.0 0 0 255.99 105.73
  A 34.87 34.87 0.0 0 0 221.12 140.60
  A 34.87 34.87 0.0 0 0 255.99 175.47
  A 34.87 34.87 0.0 0 0 290.86 140.60
  Z
  M 102.96 184.54
  C 101.33 188.95 97.84 191.66 93.05 191.68
  Q 85.16 191.71 77.79 191.67
  A 0.42 0.41 -89.3 0 0 77.37 192.09
  L 77.37 412.41
  A 0.35 0.35 0.0 0 0 77.71 412.76
  Q 84.47 412.84 91.56 412.74
  C 98.42 412.63 103.39 416.36 103.37 423.58
  Q 103.27 462.06 103.37 491.60
  A 0.40 0.40 0.0 0 0 103.77 492.00
  L 135.49 492.00
  Q 136.01 492.00 136.14 491.50
  L 215.93 178.98
  Q 216.11 178.27 215.62 177.72
  C 209.67 171.19 205.46 163.67 203.04 155.08
  Q 202.92 154.64 202.49 154.49
  L 124.69 127.08
  Q 124.24 126.93 124.08 127.37
  Q 113.34 156.33 102.96 184.54
  Z
  M 425.67 211.92
  Q 436.55 215.75 447.28 219.38
  C 461.24 224.10 467.89 203.69 454.30 198.90
  Q 382.86 173.74 310.76 148.34
  A 0.38 0.37 13.8 0 0 310.26 148.64
  Q 308.73 159.01 303.30 168.37
  A 0.33 0.32 24.6 0 0 303.48 168.84
  Q 364.54 190.40 425.67 211.92
  Z
  M 433.51 364.38
  C 424.01 361.86 415.81 354.18 411.69 345.80
  C 401.92 325.94 412.35 302.01 433.57 295.55
  Q 434.02 295.42 434.02 294.95
  L 434.02 236.53
  Q 434.02 236.00 433.53 235.83
  L 298.95 188.47
  A 0.31 0.30 2.7 0 0 298.55 188.83
  L 375.86 491.49
  A 0.68 0.67 82.8 0 0 376.51 492.00
  L 408.28 492.00
  A 0.33 0.33 0.0 0 0 408.61 491.67
  Q 408.61 458.25 408.61 423.56
  Q 408.61 417.05 413.67 414.16
  Q 416.52 412.54 422.37 412.72
  Q 427.89 412.89 433.73 412.76
  Q 434.02 412.75 434.02 412.46
  L 434.02 365.05
  Q 434.02 364.51 433.51 364.38
  Z
  M 277.67 191.03
  Q 255.27 200.10 233.89 190.79
  A 0.28 0.28 0.0 0 0 233.51 190.98
  L 226.46 218.58
  A 0.64 0.62 -61.5 0 0 226.63 219.19
  L 255.65 247.37
  A 0.53 0.52 -44.6 0 0 256.38 247.37
  L 285.28 219.29
  A 0.80 0.79 -29.3 0 0 285.50 218.53
  L 278.59 191.49
  Q 278.40 190.73 277.67 191.03
  Z
  M 241.42 261.88
  A 0.32 0.32 0.0 0 0 241.42 261.42
  L 221.08 241.65
  A 0.32 0.32 0.0 0 0 220.54 241.80
  L 207.07 294.45
  A 0.32 0.32 0.0 0 0 207.60 294.76
  L 241.42 261.88
  Z
  M 291.45 241.86
  A 0.33 0.33 0.0 0 0 290.90 241.71
  L 270.62 261.41
  A 0.33 0.33 0.0 0 0 270.62 261.89
  L 304.33 294.66
  A 0.33 0.33 0.0 0 0 304.88 294.34
  L 291.45 241.86
  Z
  M 256.35 275.92
  A 0.47 0.47 0.0 0 0 255.69 275.92
  L 203.10 326.98
  A 0.47 0.47 0.0 0 0 203.10 327.66
  L 255.68 378.73
  A 0.47 0.47 0.0 0 0 256.34 378.73
  L 308.91 327.66
  A 0.47 0.47 0.0 0 0 308.91 326.98
  L 256.35 275.92
  Z
  M 460.03 329.99
  A 16.00 16.00 0.0 0 0 444.03 313.99
  A 16.00 16.00 0.0 0 0 428.03 329.99
  A 16.00 16.00 0.0 0 0 444.03 345.99
  A 16.00 16.00 0.0 0 0 460.03 329.99
  Z
  M 241.41 393.23
  A 0.34 0.34 0.0 0 0 241.41 392.75
  L 194.23 346.92
  A 0.34 0.34 0.0 0 0 193.66 347.08
  L 162.50 469.02
  A 0.34 0.34 0.0 0 0 163.06 469.35
  L 241.41 393.23
  Z
  M 348.93 469.31
  A 0.33 0.33 0.0 0 0 349.48 469.00
  L 318.33 347.08
  A 0.33 0.33 0.0 0 0 317.78 346.93
  L 270.61 392.76
  A 0.33 0.33 0.0 0 0 270.61 393.24
  L 348.93 469.31
  Z
  M 168.99 491.46
  A 0.31 0.31 0.0 0 0 169.21 491.99
  L 342.83 491.99
  A 0.31 0.31 0.0 0 0 343.05 491.46
  L 256.24 407.14
  A 0.31 0.31 0.0 0 0 255.80 407.14
  L 168.99 491.46
  Z
  M 83.35 433.18
  A 0.40 0.40 0.0 0 0 82.95 432.78
  L 51.77 432.78
  A 0.40 0.40 0.0 0 0 51.37 433.18
  L 51.37 491.60
  A 0.40 0.40 0.0 0 0 51.77 492.00
  L 82.95 492.00
  A 0.40 0.40 0.0 0 0 83.35 491.60
  L 83.35 433.18
  Z
  M 460.58 433.15
  A 0.37 0.37 0.0 0 0 460.21 432.78
  L 428.97 432.78
  A 0.37 0.37 0.0 0 0 428.60 433.15
  L 428.60 491.63
  A 0.37 0.37 0.0 0 0 428.97 492.00
  L 460.21 492.00
  A 0.37 0.37 0.0 0 0 460.58 491.63
  L 460.58 433.15
  Z"
/>
<circle fill="#800000" cx="255.98" cy="140.58" r="9.98"/>
</svg>
