<?xml version="1.0" encoding="UTF-8" standalone="no"?>
<!DOCTYPE svg PUBLIC "-//W3C//DTD SVG 1.1//EN" "http://www.w3.org/Graphics/SVG/1.1/DTD/svg11.dtd">
<svg xmlns="http://www.w3.org/2000/svg" version="1.1" viewBox="0.00 0.00 203.00 143.00">
<path fill="#ffffff" d="
  M 19.60 17.86
  C 16.23 16.39 12.76 13.33 14.73 9.38
  Q 16.07 6.68 18.78 6.14
  C 23.25 5.26 26.02 8.83 26.55 12.81
  Q 27.16 17.38 26.34 22.52
  Q 26.23 23.18 25.84 22.63
  Q 23.74 19.66 19.60 17.86
  Z"
/>
<path fill="#ffffff" d="
  M 34.82 31.59
  Q 31.06 33.22 29.18 36.07
  Q 28.87 36.54 28.77 35.99
  C 27.97 31.41 27.42 23.52 31.59 20.40
  C 33.76 18.78 37.35 19.05 39.19 21.15
  C 43.17 25.68 39.25 29.67 34.82 31.59
  Z"
/>
<path fill="#ffffff" d="
  M 13.89 36.77
  Q 11.27 35.79 9.36 33.83
  C 6.03 30.40 6.70 24.82 10.60 22.05
  Q 15.29 18.72 20.11 21.78
  C 26.20 25.65 26.64 37.41 26.16 43.63
  Q 26.07 44.72 25.52 43.78
  Q 24.10 41.33 21.52 40.05
  Q 17.82 38.23 13.89 36.77
  Z"
/>
<path fill="#ffffff" d="
  M 156.06 36.19
  Q 155.51 35.64 154.98 36.20
  L 152.41 38.90
  A 0.84 0.84 0.0 0 0 152.42 40.07
  L 165.59 53.19
  Q 166.06 53.65 166.13 54.31
  C 166.80 60.17 168.07 66.15 175.61 63.78
  Q 176.10 63.63 176.46 63.99
  L 184.68 72.10
  Q 185.19 72.60 184.53 72.87
  Q 169.94 78.89 158.30 71.09
  C 149.37 65.11 146.68 53.14 150.14 43.33
  Q 153.80 32.96 164.11 29.29
  Q 172.62 26.26 181.68 29.27
  C 198.36 34.80 201.97 57.27 189.82 69.10
  Q 189.34 69.57 188.87 69.09
  L 179.30 59.43
  Q 178.90 59.02 178.99 58.46
  C 179.72 53.99 180.80 41.08 175.19 39.09
  C 170.02 37.25 166.71 41.14 166.56 45.85
  Q 166.53 46.67 165.95 46.09
  L 156.06 36.19
  Z"
/>
<path fill="#ffffff" d="
  M 94.66 110.19
  Q 94.25 109.97 93.78 109.97
  Q 74.03 109.98 54.13 109.97
  Q 50.35 109.96 50.35 106.19
  Q 50.35 98.59 50.42 92.70
  Q 50.45 90.09 52.07 87.99
  Q 73.47 60.15 95.30 31.92
  Q 97.45 29.15 101.03 29.14
  Q 113.31 29.11 123.81 29.12
  Q 127.15 29.12 127.16 32.47
  L 127.19 87.73
  A 1.30 1.30 0.0 0 0 128.49 89.02
  L 139.51 89.03
  A 2.48 2.48 0.0 0 1 141.99 91.51
  L 142.00 106.85
  Q 142.00 109.96 138.90 109.96
  L 128.68 109.97
  A 1.47 1.47 0.0 0 0 127.22 111.42
  Q 127.11 119.58 127.15 127.50
  Q 127.18 132.12 122.75 132.09
  Q 110.59 132.03 97.99 131.97
  A 2.79 2.79 0.0 0 1 95.21 129.18
  L 95.26 111.19
  A 1.13 1.13 0.0 0 0 94.66 110.19
  Z
  M 74.35 87.85
  A 0.72 0.72 0.0 0 0 74.94 88.99
  L 95.00 89.00
  A 0.72 0.72 0.0 0 0 95.72 88.28
  L 95.74 60.19
  A 0.72 0.72 0.0 0 0 94.43 59.77
  L 74.35 87.85
  Z"
/>
<path fill="#ffffff" d="
  M 28.00 43.69
  C 28.69 41.31 31.40 36.25 34.58 37.05
  C 37.04 37.67 38.64 40.73 36.50 42.94
  C 34.30 45.21 30.71 43.49 27.84 45.00
  Q 26.92 45.49 27.51 44.63
  C 27.74 44.28 27.88 44.10 28.00 43.69
  Z"
/>
<path fill="#ffffff" d="
  M 38.95 66.27
  L 17.24 55.17
  A 0.32 0.32 0.0 0 1 17.07 54.86
  L 17.63 48.16
  A 0.32 0.32 0.0 0 1 17.94 47.87
  L 37.31 47.88
  A 0.32 0.32 0.0 0 1 37.63 48.17
  L 39.41 65.96
  A 0.32 0.32 0.0 0 1 38.95 66.27
  Z"
/>
<path fill="#ffffff" d="
  M 38.16 71.53
  L 13.97 89.32
  A 0.33 0.33 0.0 0 1 13.44 89.02
  L 16.32 60.38
  A 0.33 0.33 0.0 0 1 16.80 60.12
  L 38.11 70.97
  A 0.33 0.33 0.0 0 1 38.16 71.53
  Z"
/>
<path fill="#ffffff" d="
  M 40.47 76.34
  L 43.15 102.30
  A 0.33 0.33 0.0 0 1 42.71 102.64
  L 17.69 93.08
  A 0.33 0.33 0.0 0 1 17.61 92.50
  L 39.95 76.11
  A 0.33 0.33 0.0 0 1 40.47 76.34
  Z"
/>
<path fill="#ffffff" d="
  M 21.26 119.50
  L 10.69 119.51
  A 0.31 0.31 0.0 0 1 10.38 119.17
  L 12.63 96.38
  A 0.31 0.31 0.0 0 1 13.05 96.13
  L 40.76 106.77
  A 0.31 0.31 0.0 0 1 40.81 107.32
  L 21.43 119.45
  A 0.31 0.31 0.0 0 1 21.26 119.50
  Z"
/>
<path fill="#ffffff" d="
  M 44.60 119.47
  L 31.07 119.58
  A 0.34 0.34 0.0 0 1 30.89 118.95
  L 43.46 111.21
  A 0.34 0.34 0.0 0 1 43.98 111.45
  L 44.93 119.09
  A 0.34 0.34 0.0 0 1 44.60 119.47
  Z"
/>
<path fill="#ffffff" d="
  M 17.15 131.43
  L 17.02 139.18
  A 0.35 0.35 0.0 0 1 16.67 139.52
  L 11.92 139.53
  A 0.35 0.35 0.0 0 1 11.57 139.18
  L 11.56 131.36
  A 0.35 0.35 0.0 0 0 11.20 131.01
  L 5.60 131.09
  A 0.35 0.35 0.0 0 1 5.24 130.75
  L 5.13 124.11
  A 0.35 0.35 0.0 0 1 5.48 123.75
  L 49.58 123.75
  A 0.35 0.35 0.0 0 1 49.93 124.10
  L 49.89 130.71
  A 0.35 0.35 0.0 0 1 49.54 131.06
  L 44.11 131.05
  A 0.35 0.35 0.0 0 0 43.76 131.40
  L 43.76 139.25
  A 0.35 0.35 0.0 0 1 43.40 139.60
  L 38.58 139.53
  A 0.35 0.35 0.0 0 1 38.24 139.18
  L 38.24 131.47
  A 0.35 0.35 0.0 0 0 37.89 131.12
  L 17.50 131.09
  A 0.35 0.35 0.0 0 0 17.15 131.43
  Z"
/>
</svg>
